<svg width="58" height="58" viewBox="0 0 58 58" fill="none" xmlns="http://www.w3.org/2000/svg">
<path d="M29 2.33325C14.3334 2.33325 2.33337 14.3333 2.33337 28.9999C2.33337 43.6666 14.3334 55.6666 29 55.6666C43.6667 55.6666 55.6667 43.6666 55.6667 28.9999V26.3333C54.0667 28.7333 52.4667 30.8666 51.1334 32.7333C50.0667 38.5999 46.8667 43.6666 42.3334 47.1333C42.0667 46.3333 41.8 45.2666 41.5334 44.4666C41.2667 43.3999 41 42.3333 40.4667 41.2666C40.2 40.1999 39.9334 39.1333 39.4 38.3333C39.1334 38.0666 38.6 37.7999 38.0667 37.5333C36.2 36.9999 33.8 37.7999 32.4667 35.9333C31.9334 35.1333 31.9334 34.3333 32.2 33.2666C32.7334 32.4666 33 31.6666 33.5334 30.8666C34.0667 29.7999 34.8667 28.4666 35.1334 27.1333C33 23.9333 30.8667 20.1999 29.8 16.7333H29.5334C29.2667 16.7333 29.2667 16.7333 29 16.4666C28.4667 15.9333 28.2 14.5999 28.4667 13.7999C28.4667 12.4666 29.2667 11.6666 29 10.3333C29 10.0666 28.7334 7.93325 28.7334 7.93325C27.9334 7.93325 26.6 7.93325 26.8667 6.59992V6.33325H29H30.3334C30.8667 4.73325 31.9334 3.39992 32.7334 2.33325H29ZM45 2.33325C39.1334 2.33325 34.3334 7.13325 34.3334 12.9999C34.3334 18.8666 45 31.6666 45 31.6666C45 31.6666 55.6667 18.8666 55.6667 12.9999C55.6667 7.13325 50.8667 2.33325 45 2.33325ZM45 8.99992C47.1334 8.99992 49 10.8666 49 12.9999C49 15.1333 47.1334 16.9999 45 16.9999C42.8667 16.9999 41 15.1333 41 12.9999C41 10.8666 42.8667 8.99992 45 8.99992ZM18.3334 10.5999C19.4 10.5999 20.2 10.5999 21 10.8666C21.8 11.1333 22.6 11.6666 23.1334 12.1999C23.6667 12.7333 24.4667 13.5333 24.4667 14.3333C24.4667 14.5999 24.4667 14.8666 24.2 14.8666C23.9334 15.1333 23.6667 15.1333 23.4 15.1333C22.6 15.1333 21.8 15.1333 21.2667 14.8666C21 14.5999 20.4667 14.0666 19.9334 13.7999C18.6 13.2666 16.2 16.7333 15.9334 17.7999C15.6667 18.5999 15.6667 20.4666 17 20.7333C17.8 20.7333 19.6667 19.1333 20.2 18.5999C20.7334 18.3333 21 18.0666 21.5334 17.7999C23.6667 17.5333 25.2667 19.3999 25.8 21.2666C26.3334 23.3999 22.6 24.9999 21 25.5333C20.4667 25.7999 20.2 25.2666 19.6667 25.5333C18.3334 26.0666 16.7334 27.9333 16.7334 29.2666C16.7334 30.5999 16.4667 31.9333 16.2 33.2666C15.9334 33.2666 15.6667 32.9999 15.6667 32.9999V32.4666C15.6667 31.6666 15.4 30.8666 14.6 30.3333C14.3334 30.3333 14.3334 30.0666 14.0667 30.0666C13.2667 29.7999 12.4667 28.9999 11.6667 29.7999C11.1334 30.3333 10.6 31.1333 10.6 31.9333C10.6 32.1999 10.6 32.4666 10.8667 32.7333C11.4 32.9999 11.9334 32.7333 12.4667 32.7333C12.7334 32.7333 13 33.2666 13.2667 33.5333C13.8 34.3333 14.0667 35.6666 15.1334 35.6666H17H20.4667C21.2667 35.9333 22.6 36.1999 23.1334 36.7333C23.4 37.2666 23.4 37.7999 23.6667 38.3333C24.7334 39.6666 26.6 39.6666 28.2 40.1999C28.7334 40.4666 29 40.7333 29 41.2666C29 42.0666 28.7334 43.1333 28.4667 43.9333C28.2 44.7333 27.9334 45.7999 27.4 46.3333C26.8667 46.8666 26.3334 47.1333 25.8 47.3999C24.7334 47.9333 24.2 48.9999 23.6667 49.7999C23.6667 49.7999 23.4 50.3333 23.1334 50.5999C21 50.0666 19.1334 49.2666 17.2667 47.9333V47.3999C17 46.3333 16.7334 45.5333 16.4667 44.7333C15.9334 43.3999 15.1334 41.7999 14.8667 40.4666C14.8667 39.1333 15.1334 37.7999 14.3334 36.7333C13.5334 35.3999 11.4 35.3999 10.0667 34.5999C9.00004 33.5333 7.66671 32.4666 6.60004 31.1333V28.9999C6.60004 21.7999 10.0667 15.3999 15.4 11.1333C16.4667 10.8666 17.2667 10.5999 18.3334 10.5999Z" fill="white" stroke="white" stroke-width="2.66667"/>
</svg>
