<svg width="42" height="43" viewBox="0 0 42 43" fill="none" xmlns="http://www.w3.org/2000/svg">
<path d="M37.8854 0.142578H4.18143C2.33978 0.142578 0.730713 1.54883 0.730713 3.48026V39.3271C0.730713 41.2691 2.33978 42.9997 4.18143 42.9997H37.8755C39.727 42.9997 41.1153 41.2576 41.1153 39.3271V3.48026C41.1261 1.54883 39.727 0.142578 37.8854 0.142578ZM13.249 35.8661H7.46357V16.7765H13.249V35.8661ZM10.5564 13.8741H10.515C8.66339 13.8741 7.46448 12.4114 7.46448 10.5804C7.46448 8.71591 8.69494 7.28766 10.588 7.28766C12.481 7.28766 13.6393 8.70538 13.6808 10.5804C13.6799 12.4114 12.481 13.8741 10.5564 13.8741ZM34.3932 35.8661H28.6078V25.4283C28.6078 22.9276 27.7658 21.2191 25.6727 21.2191C24.0735 21.2191 23.127 22.367 22.706 23.4853C22.5483 23.8871 22.5059 24.4343 22.5059 24.993V35.8661H16.7205V16.7765H22.5059V19.433C23.3479 18.1607 24.6631 16.3297 27.7235 16.3297C31.5212 16.3297 34.3941 18.9863 34.3941 24.7137L34.3932 35.8661Z" fill="#ffffff"/>
</svg>
