<svg width="67" height="67" viewBox="0 0 67 67" fill="none" xmlns="http://www.w3.org/2000/svg">
<path fill-rule="evenodd" clip-rule="evenodd" d="M51.3488 61.7478C45.5031 61.7478 41.7242 58.9608 39.8817 55.316L45.0072 52.3471C46.3573 54.5514 48.1093 56.1699 51.2148 56.1699C53.8211 56.1699 55.486 54.8658 55.486 53.0669C55.486 50.3601 51.8747 49.3025 49.3254 48.2104C44.7828 46.2774 41.7678 43.8486 41.7678 38.7198C41.7678 33.9996 45.3657 30.402 50.9904 30.402C54.9903 30.402 57.8712 31.7954 59.9382 35.4368L55.0371 38.5856C53.9584 36.6527 52.7893 35.8883 50.9904 35.8883C49.1445 35.8883 47.9754 37.058 47.9754 38.5856C47.9754 40.475 49.1445 41.2392 51.8446 42.4084C57.5028 44.8338 61.784 46.7392 61.784 52.9769C61.784 58.6451 57.3319 61.7478 51.3488 61.7478ZM36.85 52.2572C36.85 58.7796 32.8333 62.227 27.2556 62.227C22.2172 62.227 19.1988 60.3001 17.7148 56.9501H17.6646H17.6411H17.6277L22.7498 53.3695C23.738 55.1215 24.6292 56.3645 26.7866 56.3645C28.8569 56.3645 30.15 55.3161 30.15 52.1705V30.1501H36.85V52.2572ZM0 67.0001H67V0.00012207H0V67.0001Z" fill="#F7DF1E"/>
</svg>
