<svg width="68" height="68" viewBox="0 0 68 68" fill="none" xmlns="http://www.w3.org/2000/svg">
<g clip-path="url(#clip0_766_659)">
<mask id="mask0_766_659" style="mask-type:luminance" maskUnits="userSpaceOnUse" x="0" y="0" width="68" height="68">
<path d="M67.707 0.0578613H0.707031V67.0579H67.707V0.0578613Z" fill="white"/>
</mask>
<g mask="url(#mask0_766_659)">
<path d="M32.0131 0.0758939C31.869 0.0889926 31.4103 0.134838 30.9977 0.167585C21.4816 1.02555 12.5679 6.16025 6.92237 14.0522C3.77867 18.4403 1.76803 23.4178 1.0083 28.69C0.739778 30.5306 0.707031 31.0741 0.707031 33.5693C0.707031 36.0648 0.739778 36.6083 1.0083 38.4486C2.82902 51.0301 11.782 61.6007 23.9245 65.5171C26.0989 66.2178 28.3912 66.6961 30.9977 66.9842C32.0131 67.0955 36.401 67.0955 37.4163 66.9842C41.9157 66.4864 45.7274 65.3731 49.4867 63.4541C50.0631 63.1593 50.1742 63.0809 50.0958 63.0152C50.0433 62.9759 47.5875 59.6817 44.64 55.6997L39.2828 48.4626L32.5697 38.5273C28.8758 33.0651 25.8369 28.5985 25.8108 28.5985C25.7845 28.5918 25.7584 33.0062 25.7452 38.3961C25.7256 47.8339 25.7191 48.2138 25.6012 48.4363C25.4309 48.7574 25.2999 48.8883 25.0248 49.0323C24.8153 49.1373 24.6319 49.1569 23.6429 49.1569H22.5099L22.2086 48.967C22.0121 48.8425 21.868 48.6786 21.7698 48.4888L21.6322 48.194L21.6453 35.0626L21.665 21.9246L21.868 21.6692C21.9728 21.5316 22.1955 21.3548 22.3527 21.2696C22.6212 21.1387 22.726 21.1256 23.859 21.1256C25.1951 21.1256 25.4178 21.1779 25.7649 21.5578C25.8631 21.6626 29.498 27.1379 33.8469 33.7332C38.1955 40.3282 44.1423 49.3336 47.0635 53.7545L52.3685 61.7905L52.6371 61.6138C55.0144 60.0681 57.5295 57.8674 59.5202 55.5752C63.7577 50.709 66.4887 44.7753 67.4058 38.4486C67.6744 36.6083 67.707 36.0648 67.707 33.5693C67.707 31.0741 67.6744 30.5306 67.4058 28.69C65.5851 16.1087 56.6319 5.53807 44.4896 1.62154C42.3478 0.927312 40.0687 0.449208 37.5146 0.161036C36.8856 0.0955421 32.5566 0.023499 32.0131 0.0758939ZM45.7274 20.3396C46.0417 20.4968 46.2972 20.7981 46.3887 21.1124C46.4412 21.2827 46.4544 24.9242 46.4412 33.1305L46.4217 44.9063L44.3455 41.7232L42.2627 38.5404V29.9803C42.2627 24.4461 42.2889 21.3351 42.3283 21.1845C42.433 20.8177 42.6622 20.5296 42.9765 20.3593C43.2451 20.2217 43.3433 20.2086 44.3718 20.2086C45.341 20.2086 45.5113 20.2217 45.7274 20.3396Z" fill="#000000"/>
</g>
</g>
<defs>
<clipPath id="clip0_766_659">
<rect width="67" height="67" fill="white" transform="translate(0.707031 0.0578613)"/>
</clipPath>
</defs>
</svg>
