<svg width="84" height="68" viewBox="0 0 84 68" fill="none" xmlns="http://www.w3.org/2000/svg">
<g clip-path="url(#clip0_852451_218)">
<path d="M82.2798 30.0633C78.3052 25.1424 63.5425 9.05486 41.9662 9.05486C36.4604 9.03781 31.0014 10.0654 25.8786 12.0831L14.9012 1.29497C14.1723 0.748261 13.2706 0.482838 12.3617 0.547431C11.4528 0.612024 10.5977 1.0023 9.95342 1.6466C9.30912 2.2909 8.91885 3.14599 8.85425 4.05488C8.78966 4.96377 9.05508 5.86546 9.60179 6.5944L31.7459 28.7385C32.6531 26.7988 34.0989 25.1609 35.911 24.02C37.7231 22.8791 39.825 22.2832 41.9662 22.3034C44.5341 22.31 47.0241 23.1867 49.0296 24.7905C51.0351 26.3943 52.4379 28.6306 53.0089 31.1342C53.5799 33.6379 53.2855 36.2612 52.1736 38.576C51.0618 40.8908 49.1983 42.7604 46.8871 43.8797L69.0312 66.0238C69.3566 66.4576 69.7714 66.8165 70.2476 67.0761C70.7237 67.3357 71.2501 67.4899 71.7911 67.5284C72.332 67.5668 72.875 67.4886 73.383 67.2989C73.8911 67.1093 74.3526 66.8127 74.736 66.4292C75.1195 66.0457 75.4161 65.5843 75.6058 65.0762C75.7954 64.5681 75.8737 64.0252 75.8352 63.4843C75.7968 62.9433 75.6425 62.4169 75.3829 61.9407C75.1233 61.4646 74.7645 61.0497 74.3306 60.7243L65.2459 51.6396C71.7804 47.9624 77.5601 43.0818 82.2798 37.2554C83.11 36.2409 83.5637 34.9703 83.5637 33.6594C83.5637 32.3484 83.11 31.0779 82.2798 30.0633Z" fill="#4760FF"/>
<path d="M16.2259 21.5464C15.497 20.9997 14.5953 20.7342 13.6864 20.7988C12.7775 20.8634 11.9224 21.2537 11.2781 21.898C10.6338 22.5423 10.2436 23.3974 10.179 24.3063C10.1144 25.2152 10.3798 26.1169 10.9265 26.8458L39.3163 55.2356C40.0453 55.7823 40.947 56.0478 41.8559 55.9832C42.7647 55.9186 43.6198 55.5283 44.2641 54.884C44.9084 54.2397 45.2987 53.3846 45.3633 52.4757C45.4279 51.5668 45.1625 50.6651 44.6158 49.9362L16.2259 21.5464Z" fill="#4760FF"/>
<path d="M6.76266 31.0097C6.4258 30.6425 6.01631 30.3494 5.56018 30.1489C5.10404 29.9483 4.61121 29.8448 4.11294 29.8448C3.61467 29.8448 3.12184 29.9483 2.66571 30.1489C2.20957 30.3494 1.80009 30.6425 1.46322 31.0097C1.09608 31.3465 0.802947 31.756 0.602418 32.2122C0.401888 32.6683 0.29834 33.1611 0.29834 33.6594C0.29834 34.1577 0.401888 34.6505 0.602418 35.1066C0.802947 35.5628 1.09608 35.9722 1.46322 36.3091L14.7118 49.5577C15.4408 50.1044 16.3424 50.3698 17.2513 50.3052C18.1602 50.2406 19.0153 49.8504 19.6596 49.2061C20.3039 48.5618 20.6942 47.7067 20.7588 46.7978C20.8234 45.8889 20.558 44.9872 20.0112 44.2583L6.76266 31.0097Z" fill="#4760FF"/>
</g>
<defs>
<clipPath id="clip0_852451_218">
<rect width="83.239" height="67" fill="white" transform="translate(0.289062 0.5)"/>
</clipPath>
</defs>
</svg>
