<svg width="64" height="64" viewBox="0 0 64 64" fill="none" xmlns="http://www.w3.org/2000/svg">
<g clip-path="url(#clip0_786_72)">
<path fill-rule="evenodd" clip-rule="evenodd" d="M32.0002 63.9999C27.4158 64.0073 22.8832 63.0295 18.7095 61.1328C14.5358 59.2361 10.8183 56.4648 7.8088 53.0064C4.79932 49.5481 2.5681 45.4834 1.26615 41.0877C-0.0357974 36.6921 -0.378041 32.0679 0.262572 27.5284C0.903184 22.9889 2.51184 18.6401 4.97937 14.7764C7.44689 10.9126 10.7157 7.62415 14.5647 5.13365C18.4136 2.64315 22.753 1.00881 27.2886 0.341168C31.8242 -0.326475 36.45 -0.0118035 40.8534 1.26394L37.9735 6.03192C32.5822 4.79278 26.9391 5.26101 21.8257 7.37168C16.7123 9.48236 12.3817 13.131 9.43412 17.8122C6.48658 22.4934 5.06798 27.9754 5.37455 33.4988C5.68112 39.0222 7.69789 44.3136 11.1454 48.6398C14.5929 52.9661 19.3005 56.1131 24.6161 57.6449C29.9317 59.1767 35.592 59.0175 40.813 57.1893C46.0341 55.3611 50.5575 51.9545 53.7564 47.4413C56.9553 42.9282 58.6712 37.5318 58.6669 31.9999C58.6671 28.9506 58.1348 25.9247 57.0936 23.0586L60.4803 17.4373C62.9793 22.3138 64.1833 27.7507 63.9768 33.2263C63.7703 38.702 62.1601 44.0327 59.301 48.7072C56.4418 53.3817 52.4296 57.2431 47.649 59.921C42.8683 62.5989 37.4798 64.0035 32.0002 63.9999ZM34.4537 40.9839C34.3328 41.3401 34.1319 41.6639 33.8667 41.9306C33.6183 42.1814 33.3171 42.3736 32.9849 42.4931C32.6527 42.6126 32.2981 42.6564 31.9468 42.6213C31.3924 42.66 30.8416 42.5078 30.3856 42.19C29.9296 41.8723 29.596 41.4081 29.4403 40.8746L19.2535 30.6933C18.8475 30.2358 18.6315 29.6406 18.6496 29.0293C18.6677 28.418 18.9188 27.8366 19.3511 27.404C19.7834 26.9714 20.3645 26.72 20.9758 26.7014C21.5871 26.6828 22.1824 26.8984 22.6402 27.304L31.3068 35.9732L51.0136 6.70925C51.1843 6.39677 51.416 6.12167 51.6949 5.90017C51.9737 5.67866 52.2939 5.51523 52.6369 5.41954C52.9799 5.32384 53.3387 5.29786 53.6919 5.34304C54.0452 5.38822 54.3857 5.5037 54.6936 5.68264C55.3127 6.06468 55.7592 6.67255 55.9384 7.37771C56.1175 8.08287 56.0153 8.83003 55.6535 9.46128L34.4537 40.9839Z" fill="url(#paint0_linear_786_72)"/>
</g>
<defs>
<linearGradient id="paint0_linear_786_72" x1="31.974" y1="0" x2="31.974" y2="64" gradientUnits="userSpaceOnUse">
<stop stop-color="#4760FF"/>
<stop offset="1" stop-color="#4760FF"/>
</linearGradient>
<clipPath id="clip0_786_72">
<rect width="64" height="64" fill="white"/>
</clipPath>
</defs>
</svg>
