<svg width="56" height="64" viewBox="0 0 56 64" fill="none" xmlns="http://www.w3.org/2000/svg">
<path fill-rule="evenodd" clip-rule="evenodd" d="M5.37988 57.2124L0.406006 0.602051H55.0623L50.0835 57.2036L27.701 63.5005L5.37988 57.2124ZM27.7346 25.7402H36.7889L37.4142 18.6304H27.7579H27.7346H11.2304L11.0933 17.0703L10.7817 13.5503L10.6179 11.6875H27.7346H27.7579H44.8924L44.7281 13.5503L43.0718 32.3896L43.0461 32.6831L41.8817 45.8838L41.7787 47.0571L27.7753 50.9951L27.7515 51.0015L27.7441 51.0044L13.7283 47.0571L12.77 36.1553H19.6377L20.125 41.6929L27.7451 43.7808L27.7515 43.7778L27.7753 43.7715L35.3831 41.6875L36.1812 32.6831H27.7346L20.2105 32.6841L20.0734 31.124L19.7613 27.604L19.598 25.7412L27.7346 25.7402Z" fill="#4760FF"/>
</svg>
