<svg width="47" height="68" viewBox="0 0 47 68" fill="none" xmlns="http://www.w3.org/2000/svg">
<g clip-path="url(#clip0_767_736)">
<path d="M23.2553 3.15796H13.2553C7.73248 3.15796 3.25531 7.63513 3.25531 13.158C3.25531 18.6808 7.73248 23.158 13.2553 23.158M23.2553 3.15796V23.158M23.2553 3.15796H33.2553C38.7783 3.15796 43.2553 7.63513 43.2553 13.158C43.2553 18.6808 38.7783 23.158 33.2553 23.158M13.2553 23.158H23.2553M13.2553 23.158C7.73248 23.158 3.25531 27.635 3.25531 33.158C3.25531 38.681 7.73248 43.158 13.2553 43.158M23.2553 23.158H33.2553M23.2553 23.158V43.158M33.2553 23.158C38.7783 23.158 43.2553 27.635 43.2553 33.158C43.2553 38.681 38.7783 43.158 33.2553 43.158C27.7323 43.158 23.2553 38.681 23.2553 33.158C23.2553 27.635 27.7323 23.158 33.2553 23.158ZM23.2553 43.158H13.2553M23.2553 43.158V53.158C23.2553 58.681 18.7783 63.158 13.2553 63.158C7.73248 63.158 3.25531 58.681 3.25531 53.158C3.25531 47.635 7.73248 43.158 13.2553 43.158" stroke="#5C47DF" stroke-width="6.66667" stroke-linecap="round" stroke-linejoin="round"/>
</g>
<defs>
<clipPath id="clip0_767_736">
<rect width="46.6" height="67" fill="white" transform="translate(0.0552979 0.0578613)"/>
</clipPath>
</defs>
</svg>
