<svg width="36" height="36" viewBox="0 0 36 36" fill="none" xmlns="http://www.w3.org/2000/svg">
<path d="M18.0001 10.5V30M18.0001 10.5H12.6966C11.9151 10.5 11.1657 10.1839 10.6131 9.62131C10.0605 9.05871 9.75012 8.29565 9.75012 7.5C9.75012 6.70435 10.0605 5.94129 10.6131 5.37868C11.1657 4.81606 11.9151 4.5 12.6966 4.5C16.8216 4.5 18.0001 10.5 18.0001 10.5ZM18.0001 10.5H23.3037C24.0852 10.5 24.8346 10.1839 25.3872 9.62131C25.9396 9.05871 26.2501 8.29565 26.2501 7.5C26.2501 6.70435 25.9396 5.94129 25.3872 5.37868C24.8346 4.81606 24.0852 4.5 23.3037 4.5C19.1787 4.5 18.0001 10.5 18.0001 10.5ZM7.50012 18H28.5001V26.7C28.5001 28.3801 28.5001 29.2203 28.1731 29.862C27.8856 30.4265 27.4266 30.8854 26.8621 31.173C26.2204 31.5 25.3803 31.5 23.7001 31.5H12.3001C10.62 31.5 9.77988 31.5 9.13815 31.173C8.57366 30.8854 8.11472 30.4265 7.82711 29.862C7.50012 29.2203 7.50012 28.3801 7.50012 26.7V18ZM6.90012 18H29.1001C29.9403 18 30.3603 18 30.6811 17.8365C30.9634 17.6926 31.1928 17.4633 31.3366 17.181C31.5001 16.8602 31.5001 16.4401 31.5001 15.6V12.9C31.5001 12.0599 31.5001 11.6399 31.3366 11.319C31.1928 11.0368 30.9634 10.8073 30.6811 10.6635C30.3603 10.5 29.9403 10.5 29.1001 10.5H6.90012C6.06005 10.5 5.64 10.5 5.31914 10.6635C5.0369 10.8073 4.80743 11.0368 4.66361 11.319C4.50012 11.6399 4.50012 12.0599 4.50012 12.9V15.6C4.50012 16.4401 4.50012 16.8602 4.66361 17.181C4.80743 17.4633 5.0369 17.6926 5.31914 17.8365C5.64 18 6.06005 18 6.90012 18Z" stroke="#4760FF" stroke-width="3" stroke-linecap="round" stroke-linejoin="round"/>
</svg>
