<svg width="274" height="108" viewBox="0 0 274 108" fill="none" xmlns="http://www.w3.org/2000/svg">
<rect x="56" y="13" width="216" height="82" rx="41" fill="white" stroke="black" stroke-width="4"/>
<path d="M128.703 59.5469L134.172 40.25H137.297L130.234 63H128.031L128.703 59.5469ZM123.797 40.25L129.219 59.5469L129.938 63H127.734L120.672 40.25H123.797ZM142.984 46.0938V63H140.234V46.0938H142.984ZM140.078 41.6094C140.078 41.1406 140.208 40.7448 140.469 40.4219C140.729 40.099 141.12 39.9375 141.641 39.9375C142.161 39.9375 142.552 40.099 142.812 40.4219C143.083 40.7448 143.219 41.1406 143.219 41.6094C143.219 42.0573 143.083 42.4427 142.812 42.7656C142.552 43.0781 142.161 43.2344 141.641 43.2344C141.12 43.2344 140.729 43.0781 140.469 42.7656C140.208 42.4427 140.078 42.0573 140.078 41.6094ZM153.406 63.3125C152.396 63.3125 151.484 63.1615 150.672 62.8594C149.859 62.5573 149.167 62.099 148.594 61.4844C148.021 60.8594 147.583 60.0729 147.281 59.125C146.979 58.1771 146.828 57.0573 146.828 55.7656V53.8594C146.828 52.3698 147 51.1094 147.344 50.0781C147.698 49.0469 148.172 48.2188 148.766 47.5938C149.359 46.9583 150.031 46.5 150.781 46.2188C151.531 45.9271 152.302 45.7812 153.094 45.7812C154.156 45.7812 155.062 45.9531 155.812 46.2969C156.562 46.6406 157.172 47.151 157.641 47.8281C158.109 48.5052 158.453 49.3385 158.672 50.3281C158.901 51.3177 159.016 52.4583 159.016 53.75V55.3594H148.453V53H156.25V52.6094C156.208 51.7344 156.089 50.9635 155.891 50.2969C155.703 49.6302 155.391 49.1094 154.953 48.7344C154.516 48.349 153.896 48.1562 153.094 48.1562C152.583 48.1562 152.109 48.2448 151.672 48.4219C151.245 48.5885 150.875 48.8854 150.562 49.3125C150.26 49.7292 150.021 50.3073 149.844 51.0469C149.677 51.7865 149.594 52.724 149.594 53.8594V55.7656C149.594 56.6719 149.677 57.4531 149.844 58.1094C150.021 58.7552 150.276 59.2917 150.609 59.7188C150.953 60.1354 151.37 60.4479 151.859 60.6562C152.359 60.8542 152.927 60.9531 153.562 60.9531C154.49 60.9531 155.255 60.776 155.859 60.4219C156.464 60.0573 156.99 59.5938 157.438 59.0312L158.891 60.7656C158.589 61.1927 158.193 61.6042 157.703 62C157.224 62.3854 156.63 62.7031 155.922 62.9531C155.224 63.1927 154.385 63.3125 153.406 63.3125ZM165.828 60L169.562 46.0938H171.359L171.156 48.8594L167.406 63H165.672L165.828 60ZM163.797 46.0938L166.938 60.1562L167.016 63H165.188L161.062 46.0938H163.797ZM174.562 60.0469L177.531 46.0938H180.25L176.125 63H174.328L174.562 60.0469ZM171.75 46.0938L175.391 59.7656L175.641 63H173.922L170.047 48.8281L169.844 46.0938H171.75ZM202.688 60.5469V63H193.25V60.5469H202.688ZM193.766 40.25V63H190.891V40.25H193.766ZM208.703 46.0938V63H205.953V46.0938H208.703ZM205.797 41.6094C205.797 41.1406 205.927 40.7448 206.188 40.4219C206.448 40.099 206.839 39.9375 207.359 39.9375C207.88 39.9375 208.271 40.099 208.531 40.4219C208.802 40.7448 208.938 41.1406 208.938 41.6094C208.938 42.0573 208.802 42.4427 208.531 42.7656C208.271 43.0781 207.88 43.2344 207.359 43.2344C206.839 43.2344 206.448 43.0781 206.188 42.7656C205.927 42.4427 205.797 42.0573 205.797 41.6094ZM217.453 60.3906L221.078 46.0938H223.891L218.875 63H217.047L217.453 60.3906ZM214.531 46.0938L218.312 60.4688L218.609 63H216.797L211.719 46.0938H214.531ZM232.594 63.3125C231.583 63.3125 230.672 63.1615 229.859 62.8594C229.047 62.5573 228.354 62.099 227.781 61.4844C227.208 60.8594 226.771 60.0729 226.469 59.125C226.167 58.1771 226.016 57.0573 226.016 55.7656V53.8594C226.016 52.3698 226.188 51.1094 226.531 50.0781C226.885 49.0469 227.359 48.2188 227.953 47.5938C228.547 46.9583 229.219 46.5 229.969 46.2188C230.719 45.9271 231.49 45.7812 232.281 45.7812C233.344 45.7812 234.25 45.9531 235 46.2969C235.75 46.6406 236.359 47.151 236.828 47.8281C237.297 48.5052 237.641 49.3385 237.859 50.3281C238.089 51.3177 238.203 52.4583 238.203 53.75V55.3594H227.641V53H235.438V52.6094C235.396 51.7344 235.276 50.9635 235.078 50.2969C234.891 49.6302 234.578 49.1094 234.141 48.7344C233.703 48.349 233.083 48.1562 232.281 48.1562C231.771 48.1562 231.297 48.2448 230.859 48.4219C230.432 48.5885 230.062 48.8854 229.75 49.3125C229.448 49.7292 229.208 50.3073 229.031 51.0469C228.865 51.7865 228.781 52.724 228.781 53.8594V55.7656C228.781 56.6719 228.865 57.4531 229.031 58.1094C229.208 58.7552 229.464 59.2917 229.797 59.7188C230.141 60.1354 230.557 60.4479 231.047 60.6562C231.547 60.8542 232.115 60.9531 232.75 60.9531C233.677 60.9531 234.443 60.776 235.047 60.4219C235.651 60.0573 236.177 59.5938 236.625 59.0312L238.078 60.7656C237.776 61.1927 237.38 61.6042 236.891 62C236.411 62.3854 235.818 62.7031 235.109 62.9531C234.411 63.1927 233.573 63.3125 232.594 63.3125Z" fill="black"/>
<rect x="2" y="2" width="104.138" height="104" rx="52" fill="white"/>
<rect x="2" y="2" width="104.138" height="104" rx="52" stroke="black" stroke-width="4"/>
<rect x="14" y="14" width="80.1378" height="80" rx="40" fill="white"/>
<path fill-rule="evenodd" clip-rule="evenodd" d="M51.4374 14.0534C48.8675 14.2233 46.4592 14.6384 43.6117 15.4024C34.8004 17.7665 26.7993 23.3442 21.3669 30.9102C17.8354 35.8286 15.2682 42.2117 14.4054 48.2191C13.6668 53.3615 13.9434 58.8418 15.1859 63.6885C16.837 70.1282 19.7963 75.7332 24.1602 80.6859C26.8104 83.6936 30.3988 86.6238 33.9067 88.6447C38.677 91.3928 43.9824 93.1903 49.2309 93.8368C51.0041 94.0551 56.693 94.0543 58.5993 93.8353C61.7923 93.4686 65.3454 92.6162 68.2853 91.5116C70.0161 90.8612 72.9002 89.466 74.4276 88.5401C81.2208 84.4221 86.3724 78.9491 89.731 72.282C91.4483 68.873 92.2289 66.7344 93.0729 63.1268C93.7631 60.1762 94.1378 56.8284 94.1378 53.6119C94.1378 52.4408 94.0997 51.459 94.0531 51.4302C94.0064 51.4013 93.9414 50.9147 93.9086 50.3487C93.6744 46.3071 92.0186 40.4173 89.9647 36.3193C86.7288 29.8634 82.032 24.4805 76.4338 20.8121C74.4011 19.4802 71.7038 18.0061 69.8253 17.2005C66.2442 15.6646 62.2085 14.5996 58.2693 14.1509C56.9967 14.006 53.0144 13.9491 51.4374 14.0534ZM51.0155 14.8184C49.0677 15.0106 47.6444 15.1905 47.0635 15.3179C45.2879 15.7071 43.0204 16.4841 41.7544 17.1372L41.1604 17.4436L41.7251 17.4484C43.1652 17.4607 45.5623 17.8276 47.0302 18.2605L47.6972 18.4572L48.4354 17.7301C49.5869 16.5959 51.5161 15.3815 52.8415 14.9566C53.0479 14.8905 53.2167 14.8173 53.2167 14.794C53.2167 14.7466 51.5566 14.765 51.0155 14.8184ZM54.7115 15.0978C52.5227 15.5466 50.5302 16.5688 48.8278 18.1163L48.2908 18.6044L49.7283 19.1823C51.7661 20.0016 51.823 20.0192 53.2835 20.2805L54.6009 20.5162L55.1845 20.2209C57.5033 19.0478 60.9028 17.8483 62.7552 17.5495C63.1829 17.4804 63.4966 17.3884 63.4524 17.3447C63.0766 16.9746 59.2422 15.6638 57.5189 15.3164C55.7958 14.969 55.4651 14.9433 54.7115 15.0978ZM60.0202 15.2877C61.0945 15.6201 62.946 16.362 63.9083 16.8459C64.6921 17.24 64.7739 17.2598 65.5039 17.2322L66.2734 17.2031L65.128 16.7145C63.1518 15.8716 61.1382 15.2697 59.7701 15.1129C59.297 15.0587 59.3106 15.0682 60.0202 15.2877ZM67.801 17.2699C67.8592 17.3281 67.9658 17.356 68.038 17.3319C68.113 17.3069 68.0675 17.2616 67.9323 17.2262C67.7659 17.1827 67.7268 17.1957 67.801 17.2699ZM66.0233 17.8812C66.0508 17.9112 66.7487 18.3866 67.5741 18.9374C68.3995 19.4882 69.5026 20.2793 70.0254 20.6953L70.9758 21.4517L71.8763 21.4488L72.7768 21.4459L72.441 21.1754C71.6624 20.5483 69.6066 19.1206 68.6611 18.5503C67.6776 17.9572 67.6132 17.9338 66.8078 17.8811C66.3488 17.8511 65.9958 17.8511 66.0233 17.8812ZM63.472 18.1097C61.4486 18.4174 59.5022 18.9625 57.769 19.707C56.0701 20.4367 55.4851 20.723 55.5784 20.779C55.6276 20.8086 56.2053 20.9757 56.8622 21.1503C59.2934 21.7968 62.5451 22.9854 64.7628 24.0382L65.7536 24.5085L66.6638 23.6041C67.6258 22.6481 68.5311 22.0816 69.6065 21.7623L70.1462 21.6021L69.0603 20.7948C68.4629 20.3508 67.7042 19.8063 67.374 19.5847C66.4641 18.9742 64.6564 17.9522 64.5057 17.9632C64.4325 17.9685 63.9672 18.0344 63.472 18.1097ZM39.8098 18.24C39.6172 18.2821 39.0569 18.5772 38.5647 18.8956C37.8085 19.385 37.3363 19.7281 35.9115 20.8231C35.8269 20.8883 36.2754 20.8096 36.9083 20.6484C39.553 19.9746 41.8149 19.6688 44.7623 19.5865C45.9664 19.5529 46.9191 19.4837 46.994 19.4242C47.0657 19.3673 47.1675 19.2403 47.2199 19.1423C47.3332 18.9305 47.1948 18.8818 45.3626 18.4906C44.3564 18.2757 43.838 18.2285 42.161 18.1989C41.0604 18.1794 40.0024 18.1979 39.8098 18.24ZM70.4256 18.9079C71.3734 19.5446 72.6182 20.4702 73.3771 21.1026C74.0259 21.6433 73.9761 21.618 74.9448 21.899C75.4032 22.032 76.0034 22.2348 76.2786 22.3496L76.7788 22.5585L75.9284 21.7271C75.4607 21.2699 74.799 20.7065 74.4579 20.4751C73.0793 19.5395 71.1439 18.6569 69.9253 18.408C69.6261 18.3469 69.6991 18.4197 70.4256 18.9079ZM36.7081 18.9124C34.6653 19.6023 32.3818 21.0888 31.1552 22.5272L30.7957 22.9488L31.7259 22.5188C32.2374 22.2824 32.9937 21.963 33.4064 21.8093C33.9051 21.6235 34.3079 21.3886 34.6071 21.1094C35.285 20.4764 36.0696 19.8405 36.9438 19.2156C37.376 18.9067 37.6686 18.655 37.5941 18.6564C37.5196 18.6578 37.1209 18.773 36.7081 18.9124ZM47.7156 19.3509C47.6312 19.5087 47.6356 19.5672 47.7345 19.5995C47.8701 19.6438 49.3147 19.7264 49.3147 19.6899C49.3147 19.6664 48.3899 19.3185 48.0451 19.212C47.8829 19.162 47.7974 19.1981 47.7156 19.3509ZM42.9114 20.3248C39.9069 20.5593 35.3134 21.583 34.3797 22.2261C33.5794 22.7774 31.1429 25.6415 29.8431 27.5588C29.2044 28.5012 28.0037 30.4951 28.0037 30.6135C28.0037 30.6391 28.3751 30.6608 28.8291 30.6617C31.4453 30.6672 34.4295 31.3633 37.2685 32.6301L38.3642 33.119L39.3806 32.8651L40.3971 32.611L41.1724 31.7106C41.5987 31.2153 42.3576 30.3599 42.8587 29.8096L43.7699 28.8091L43.9466 27.5485C44.2697 25.243 44.8423 23.3417 45.7739 21.4803L46.3873 20.2546L44.8745 20.2722C44.0423 20.2818 43.159 20.3055 42.9114 20.3248ZM46.7841 20.7667C45.7383 22.4044 44.6156 25.6141 44.3574 27.7044L44.2838 28.3007L44.7327 27.9045C44.9795 27.6867 45.6049 27.1227 46.1225 26.6513C48.1629 24.7926 50.0451 23.3393 52.1993 21.9595L53.0329 21.4256L52.2993 21.0345C51.6592 20.6931 51.4194 20.6258 50.4152 20.5061C49.7824 20.4306 48.7839 20.3373 48.1963 20.2986L47.1279 20.2283L46.7841 20.7667ZM54.4202 21.2513C54.2417 21.3641 54.1752 21.3087 55.2677 21.956C56.7148 22.8133 57.5052 23.3969 60.7694 26.0185C61.0509 26.2447 61.8934 26.9982 62.6413 27.6932L64.0013 28.9565L64.1773 28.2325C64.3919 27.3494 64.7233 26.4487 65.1302 25.6428C65.2984 25.3096 65.4192 25.02 65.3986 24.9994C65.2807 24.8815 62.9835 23.8658 61.5926 23.3165C59.7283 22.5803 58.2751 22.1014 56.2216 21.5463C54.6353 21.1176 54.6324 21.1171 54.4202 21.2513ZM53.2667 21.9965C49.4465 24.4899 47.6224 25.9127 45.0961 28.3691L44.1292 29.3093L44.083 30.61C44.0574 31.3254 44.0522 31.9379 44.0713 31.9712C44.0904 32.0045 44.3437 31.9938 44.6342 31.9475C45.6269 31.7889 48.8622 31.464 50.4636 31.3621C53.8916 31.1439 58.6623 31.2631 62.1213 31.6534C62.9742 31.7497 63.6836 31.8203 63.6978 31.8105C63.7119 31.8007 63.7639 31.3465 63.8136 30.8011L63.9037 29.8096L62.5944 28.5235C60.0694 26.0432 57.6371 24.1604 54.713 22.4229C53.7042 21.8234 53.5857 21.7884 53.2667 21.9965ZM73.0805 23.4704C74.6525 25.0785 75.6264 26.2093 76.7736 27.7585C77.2015 28.3363 77.5609 28.8198 77.5726 28.833C77.5957 28.859 79.4556 28.2516 79.5195 28.1971C79.5724 28.1519 78.8168 27.2725 77.4413 25.7783C76.1147 24.3372 73.9313 22.3345 73.5859 22.2422C73.4543 22.207 72.9709 22.1457 72.5114 22.106L71.6762 22.0338L73.0805 23.4704ZM69.4621 22.3957C69.0698 22.5227 68.4704 22.7959 68.1301 23.0027C67.5394 23.3615 66.1328 24.6076 66.2281 24.6878C66.253 24.7088 66.9488 25.0998 67.7742 25.5566C70.0205 26.7996 72.3802 28.3446 74.3308 29.8492L74.5841 30.0447L75.7213 29.5538C76.3468 29.2838 76.8737 29.0477 76.8923 29.0291C76.9109 29.0106 76.7163 28.7058 76.4599 28.3519C75.3786 26.8598 74.2886 25.6031 72.6255 23.9315C70.6185 21.9142 70.7505 21.9782 69.4621 22.3957ZM76.6857 24.0777C77.4562 24.864 78.4564 25.9235 78.9084 26.4319C79.3605 26.9405 79.7295 27.3232 79.7285 27.2824C79.7243 27.1167 78.837 25.431 78.332 24.6291C77.7969 23.7795 77.7846 23.7684 76.9353 23.3704C75.1284 22.5236 75.1375 22.4977 76.6857 24.0777ZM31.1277 23.5661L29.7066 24.2762L29.2589 24.9944C28.6078 26.0392 27.8695 27.6619 27.5234 28.8091C27.009 30.5141 26.9222 30.8601 27.0084 30.8601C27.0544 30.8601 27.3461 30.4072 27.6569 29.8536C28.8293 27.7647 30.6122 25.2552 32.0443 23.6781C32.4083 23.2773 32.7061 22.9284 32.7061 22.9027C32.7061 22.7954 32.4799 22.8904 31.1277 23.5661ZM78.0737 23.0811C78.1556 23.2049 78.4605 23.4363 78.7514 23.5953C79.3332 23.9133 79.3184 23.8878 78.5659 23.2748C77.9873 22.8035 77.8559 22.7517 78.0737 23.0811ZM29.1042 23.617C28.4413 24.167 28.1742 24.4285 28.4039 24.3028C28.9512 24.0035 29.3116 23.727 29.5005 23.4618C29.6202 23.2937 29.7038 23.1571 29.6863 23.1583C29.6688 23.1594 29.4069 23.3659 29.1042 23.617ZM79.1479 24.7196C79.1713 24.7677 79.5146 25.4684 79.9107 26.2768C80.3068 27.0852 80.6308 27.7999 80.6308 27.8651C80.6308 27.9445 80.7341 27.963 80.9435 27.9211C81.1155 27.8867 81.6445 27.8566 82.1191 27.8542L82.982 27.8499L82.3317 27.2489C81.2183 26.2199 79.0325 24.4834 79.1479 24.7196ZM27.5425 25.717C25.1617 27.4206 23.2933 29.3965 21.4017 32.2108C21.0319 32.7611 20.6278 33.4102 20.5039 33.6534L20.2785 34.0954L20.8143 33.6438C21.5188 33.0502 22.4013 32.4637 23.1841 32.069C23.8962 31.71 25.7668 31.0602 26.0885 31.0602C26.2362 31.0602 26.3175 30.9783 26.3613 30.7851C26.7501 29.0701 27.3571 27.3407 28.061 25.943C28.2567 25.5546 28.3977 25.2177 28.3743 25.1944C28.351 25.1711 27.9767 25.4063 27.5425 25.717ZM65.589 25.6825C65.2775 26.2283 64.7804 27.699 64.5857 28.6512L64.4339 29.3939L64.9832 30.0019C65.2852 30.3364 65.8792 30.9993 66.3031 31.4751L67.0738 32.3404L68.1907 32.562L69.3076 32.7837L70.1917 32.2853C70.678 32.0112 71.7268 31.4608 72.5224 31.0622C73.8741 30.3852 73.9562 30.328 73.7731 30.1905C72.7637 29.4324 71.0663 28.2517 70.1255 27.6531C68.9637 26.9138 66.0471 25.2572 65.9073 25.2572C65.8657 25.2572 65.7224 25.4485 65.589 25.6825ZM81.1561 28.4295C80.7617 28.5054 80.8287 28.6498 81.9774 30.1988C82.4309 30.8102 83.1081 31.7719 83.4825 32.3359C83.8569 32.8999 84.1992 33.3614 84.2433 33.3614C84.4173 33.3614 84.9377 31.4447 84.9504 30.757C84.9645 29.9908 84.9263 29.9087 84.1679 29.0773C83.8098 28.6846 83.5775 28.5213 83.2822 28.4544C82.881 28.3633 81.5783 28.3481 81.1561 28.4295ZM78.8799 28.9463C78.3847 29.0975 77.9881 29.2669 77.9986 29.3226C78.0091 29.3784 78.3292 29.9159 78.71 30.5172C79.5536 31.8493 80.6699 33.8892 81.239 35.139C81.4714 35.6489 81.676 36.0515 81.6939 36.0336C81.7526 35.9749 81.4342 33.4346 81.2271 32.3109C80.8204 30.103 80.2802 28.6403 79.8804 28.6653C79.8254 28.6687 79.3752 28.7952 78.8799 28.9463ZM76.4287 29.7534C76.071 29.9062 75.6071 30.104 75.3978 30.1928L75.0173 30.3541L76.0982 31.2722C76.6927 31.7773 78.0007 33.0101 79.005 34.012C80.0093 35.0138 80.8309 35.8107 80.8309 35.783C80.8309 35.7552 80.4335 34.9626 79.9477 34.0217C78.9114 32.0144 77.3664 29.456 77.1972 29.4673C77.1322 29.4716 76.7863 29.6004 76.4287 29.7534ZM43.2944 30.1436C43.1113 30.3548 42.5862 30.9438 42.1276 31.4526C41.6691 31.9614 41.3126 32.3964 41.3355 32.4192C41.3774 32.4612 43.5113 32.0986 43.5598 32.0413C43.5975 31.9968 43.6934 29.7596 43.6575 29.7596C43.6409 29.7596 43.4774 29.9323 43.2944 30.1436ZM64.272 30.5802C64.2367 30.8167 64.2224 31.2116 64.2401 31.4577L64.2724 31.9053L65.0228 32.0254C66.1935 32.2128 66.1863 32.2144 65.8679 31.8356C65.7176 31.6568 65.3115 31.2044 64.9653 30.8303L64.3361 30.1502L64.272 30.5802ZM72.2714 31.7143C71.1238 32.2904 70.1432 32.8033 70.0924 32.8542C70.0358 32.9108 70.1698 32.9902 70.4379 33.059C73.8815 33.9425 77.1043 35.0493 79.5211 36.1784C80.0938 36.4459 80.5796 36.6477 80.6006 36.6267C80.6216 36.6057 79.9589 35.887 79.128 35.0298C77.7568 33.6152 76.2322 32.2033 74.8681 31.085L74.3581 30.6669L72.2714 31.7143ZM81.5313 30.98C81.5313 31.0523 81.577 31.2688 81.633 31.4611C81.7886 31.9966 82.1103 34.2046 82.1794 35.2124C82.2134 35.7076 82.266 36.2846 82.2964 36.4945L82.3515 36.8762L82.808 36.1444C83.059 35.7418 83.3984 35.1271 83.562 34.7784L83.8596 34.1441L82.7848 32.5515C81.7084 30.9564 81.5313 30.7344 81.5313 30.98ZM85.4562 31.5075C85.3873 31.8708 85.1674 32.5816 84.9676 33.0869C84.6084 33.9952 84.6063 34.0089 84.7813 34.3088C84.8785 34.4756 85.2942 35.1974 85.7051 35.9127C86.1158 36.6281 86.4602 37.2221 86.4706 37.2327C86.4808 37.2434 86.9607 37.3004 87.5371 37.3595C88.1134 37.4185 88.8232 37.5301 89.1144 37.6073C89.6401 37.7468 89.6435 37.7463 89.5765 37.5307C89.26 36.5118 86.7934 32.3146 85.8142 31.1286L85.5816 30.8467L85.4562 31.5075ZM27.7668 31.325C27.6471 31.36 27.3685 31.8251 26.9903 32.6217C26.4175 33.8282 26.3977 33.8977 26.3032 35.0384C26.1866 36.4459 26.1739 37.7933 26.2778 37.7468C26.319 37.7283 27.1407 37.3213 28.1037 36.8423C30.6393 35.5813 33.6744 34.4371 37.0028 33.4876L37.6476 33.3037L36.3525 32.7899C33.6319 31.7106 32.073 31.3661 29.6545 31.3099C28.719 31.2881 27.8696 31.295 27.7668 31.325ZM25.202 31.851C22.2996 32.7876 19.5962 35.0707 18.7933 37.2634C18.0483 39.2982 17.5066 41.8508 17.3072 44.2671C17.2595 44.8449 17.2298 45.3282 17.2411 45.3411C17.2525 45.354 17.4684 45.0839 17.7209 44.7408C18.8048 43.2684 20.8207 41.3926 22.9028 39.9189L23.8361 39.2583L24.2767 37.8356C24.5191 37.0532 24.977 35.7602 25.2944 34.9622C25.7304 33.8661 25.9021 33.2836 25.9968 32.5791C26.0658 32.0662 26.1064 31.6309 26.0872 31.6117C26.068 31.5925 25.6696 31.7002 25.202 31.851ZM50.9655 31.8263C50.7454 31.8439 49.9125 31.9064 49.1146 31.965C47.7276 32.0669 44.8112 32.4009 44.3371 32.5121C44.129 32.5608 44.1122 32.6193 44.1146 33.2883C44.117 33.9631 44.2245 35.3254 44.3704 36.5295C44.4326 37.0428 44.4398 37.0517 45.4981 37.9242C46.7534 38.9591 50.0426 42.2235 51.1564 43.5397C51.8338 44.3403 51.96 44.4468 52.1044 44.3401C52.196 44.2725 53.2604 43.4706 54.4697 42.5583C57.0945 40.5781 59.8303 38.645 62.2213 37.0811C63.1843 36.4512 64.0077 35.9042 64.0509 35.8657C64.0941 35.8271 64.0603 35.2681 63.9758 34.6234C63.8913 33.9787 63.8222 33.2094 63.8222 32.914C63.8222 32.4082 63.806 32.3735 63.547 32.3209C63.0997 32.2299 60.4827 31.9709 58.9196 31.8628C57.6131 31.7725 51.9609 31.7466 50.9655 31.8263ZM64.2663 33.0863C64.4103 34.503 64.5553 35.4625 64.6257 35.4625C64.7064 35.4625 67.3233 33.897 67.4518 33.7718C67.4945 33.7301 67.3522 33.4945 67.1353 33.2481C66.7442 32.8037 66.7327 32.7988 65.6932 32.6305C64.103 32.3732 64.1909 32.3451 64.2663 33.0863ZM41.8702 32.9117C40.7225 33.1306 40.6669 33.1531 40.3481 33.5253C40.1662 33.7378 40.0157 33.9385 40.0137 33.9712C40.0116 34.0041 40.3812 34.2584 40.8353 34.5364C41.2893 34.8145 42.1508 35.3857 42.7498 35.8057C43.3488 36.2257 43.8603 36.5479 43.8866 36.5217C43.9128 36.4954 43.8858 36.0325 43.8263 35.493C43.767 34.9534 43.6887 34.0956 43.6522 33.5865C43.5741 32.4962 43.733 32.5563 41.8702 32.9117ZM67.8337 33.2364C67.9074 33.3327 67.9766 33.4264 67.9874 33.4446C67.9983 33.4628 68.1072 33.4242 68.2293 33.3588C68.406 33.2642 68.4232 33.2218 68.313 33.1521C68.2367 33.1038 68.0675 33.0637 67.9371 33.0628C67.7266 33.0615 67.7149 33.0811 67.8337 33.2364ZM68.9063 33.4675C68.7035 33.5732 68.5098 33.7046 68.4759 33.7595C68.4419 33.8145 68.6546 34.1638 68.9487 34.5358C69.6918 35.4764 71.1846 37.5425 71.8783 38.5907C72.2877 39.2093 72.5056 39.454 72.6178 39.4208C73.7813 39.0772 77.5147 38.2696 79.5742 37.9159C80.3962 37.7747 81.0822 37.6459 81.0985 37.6295C81.1481 37.5799 78.6635 36.4059 77.2791 35.8248C75.678 35.1527 74.1506 34.6364 71.6762 33.9306C69.1803 33.2188 69.334 33.2445 68.9063 33.4675ZM39.4346 33.4395C39.1804 33.48 39.1377 33.6126 39.3522 33.695C39.4308 33.7251 39.5497 33.6838 39.6166 33.6031C39.7643 33.4252 39.7281 33.3925 39.4346 33.4395ZM36.5581 34.2083C33.5864 35.0751 30.9143 36.1048 28.5039 37.3119C26.1316 38.4998 26.204 38.4508 26.2037 38.8643C26.2033 39.6202 26.4155 42.0953 26.6108 43.6107C26.8128 45.1779 27.0473 46.437 27.5434 48.6193C27.9936 50.5995 27.951 50.5205 28.7847 50.9189L29.5156 51.2683L29.6682 50.8943C32.0633 45.0248 34.9938 39.7442 38.3427 35.2631L39.202 34.1131L38.8806 33.9416C38.4229 33.6973 38.2356 33.7188 36.5581 34.2083ZM66.1984 35.0831C65.0751 35.7835 64.7228 36.0521 64.7234 36.2081C64.7258 36.8771 66.0897 41.2351 66.2855 41.1995C66.4531 41.169 71.4769 39.7478 71.656 39.6803C71.8115 39.6217 71.7252 39.4503 71.0179 38.4129C69.7475 36.55 67.9395 34.1617 67.8 34.1624C67.7308 34.1627 67.01 34.577 66.1984 35.0831ZM38.8558 35.5201C35.6217 39.8474 32.6718 45.0721 30.601 50.1402L30.0204 51.561L30.4878 51.8311C31.2033 52.2445 32.3709 53.0836 33.2408 53.8097L34.0256 54.4646L35.9422 53.4732C38.2841 52.2619 41.9126 50.5356 44.8776 49.2223L47.0938 48.2407L46.8433 47.5796C45.5336 44.1238 44.466 40.2372 44.1529 37.7859C44.086 37.2617 44.0796 37.2537 43.2733 36.676C42.176 35.8898 41.0891 35.1707 40.3374 34.7334L39.7145 34.371L38.8558 35.5201ZM83.9427 35.1882C83.8108 35.4216 83.4404 36.0321 83.1197 36.5448L82.5365 37.4768L83.3096 37.4125C83.7347 37.3771 84.4546 37.3179 84.9093 37.2807L85.736 37.2134L85.0278 35.9878C84.6382 35.3136 84.2887 34.7624 84.2511 34.7629C84.2135 34.7633 84.0747 34.9546 83.9427 35.1882ZM25.115 37.2707C24.8775 37.9902 24.7004 38.5959 24.7215 38.6169C24.7425 38.6379 24.9493 38.5421 25.181 38.4038L25.6024 38.1526V37.0576C25.6024 36.4554 25.5899 35.9628 25.5745 35.9628C25.5592 35.9628 25.3524 36.5514 25.115 37.2707ZM61.4202 38.1422C58.4444 40.1401 57.0565 41.1284 54.1906 43.2901L52.2131 44.7819L52.5898 45.2706C52.7971 45.5394 53.0156 45.7612 53.0755 45.7635C53.1355 45.7659 53.991 45.458 54.9765 45.0793C57.2665 44.1994 62.0184 42.5355 64.0223 41.9119C64.8752 41.6465 65.6057 41.4027 65.6454 41.3701C65.6852 41.3375 65.5371 40.7978 65.3162 40.1708C65.0954 39.5438 64.7628 38.443 64.5773 37.7248C64.3917 37.0065 64.2018 36.4062 64.1554 36.3907C64.1089 36.3752 62.8781 37.1634 61.4202 38.1422ZM44.5749 37.983C45.1421 41.1091 46.0423 44.364 47.1633 47.3422L47.4358 48.0662L47.7128 47.8425C47.8651 47.7194 48.7719 46.9931 49.7278 46.2284C50.6837 45.4637 51.5042 44.8039 51.5511 44.7623C51.7804 44.559 47.4056 40.0431 45.2602 38.2685L44.5149 37.652L44.5749 37.983ZM83.8655 37.8549C83.471 37.8873 83.1145 37.9476 83.0734 37.9888C83.0324 38.03 83.0429 38.0638 83.0969 38.0638C83.3894 38.0638 86.2419 40.0422 87.2283 40.929C87.5067 41.1793 87.7345 41.3344 87.7345 41.2737C87.7345 41.2129 87.3515 40.3984 86.8835 39.4635L86.0325 37.7637L85.3077 37.7799C84.909 37.7888 84.2601 37.8225 83.8655 37.8549ZM86.834 37.8048C86.834 37.8204 87.2327 38.6619 87.72 39.6745C88.2072 40.6871 88.7107 41.7745 88.839 42.0909C88.9671 42.4074 89.1088 42.6662 89.1538 42.6662C89.3958 42.6662 90.6316 40.6634 90.6355 40.265C90.6363 40.1824 90.516 39.7827 90.3683 39.3767C90.1031 38.6482 90.0918 38.6349 89.5076 38.3586C88.9808 38.1095 88.4981 37.9976 87.2092 37.8262C87.0029 37.7987 86.834 37.7891 86.834 37.8048ZM79.5303 38.319C77.8514 38.612 75.7097 39.0568 73.9742 39.4727L72.6484 39.7903L73.4688 41.1532C73.9202 41.9028 74.6151 43.1114 75.0134 43.8387L75.7375 45.1614L76.3499 44.4891C77.8521 42.8399 81.4312 38.361 81.4312 38.1302C81.4312 38.0224 80.9624 38.0689 79.5303 38.319ZM81.3254 39.2395C80.6894 40.1287 78.6611 42.6117 77.3074 44.1581L75.9577 45.7L76.8315 47.5098C77.312 48.5052 77.8344 49.6455 77.9924 50.0438C78.1504 50.442 78.3128 50.7685 78.3535 50.7692C78.3941 50.7698 78.8325 50.5186 79.3277 50.2109C80.3488 49.5762 80.2574 49.7476 80.6803 47.6718C81.0599 45.8077 81.3123 44.2555 81.4782 42.7641C81.642 41.2914 81.7907 38.7642 81.7136 38.7642C81.687 38.7642 81.5123 38.978 81.3254 39.2395ZM24.9769 39.2445L24.4081 39.6146L24.1041 40.8898C23.5438 43.2404 23.0875 46.2458 22.9441 48.5298L22.8744 49.6407L24.0133 49.6965C25.0116 49.7453 26.5225 50.0386 27.2236 50.3197C27.3728 50.3795 27.358 50.2525 27.1052 49.3036C26.4878 46.9856 25.9186 43.414 25.6968 40.4651C25.6326 39.6121 25.5724 38.9053 25.5629 38.8943C25.5534 38.8832 25.2897 39.0408 24.9769 39.2445ZM83.4323 39.0354C84.902 41.1291 85.7173 42.3546 86.3338 43.3967C86.7465 44.0944 87.1304 44.6657 87.1869 44.6662C87.2434 44.6668 87.5969 44.3576 87.9724 43.9792C88.7773 43.1681 88.7759 43.1538 87.802 42.266C86.4281 41.0136 83.0868 38.5433 83.4323 39.0354ZM82.2987 39.8549C82.2618 40.0392 82.2313 40.4657 82.2307 40.8028C82.2287 42.1012 81.6976 45.9081 81.2195 48.0509C81.1051 48.5637 81.0353 49.0071 81.0646 49.0363C81.1245 49.0962 84.0558 47.1315 84.2431 46.9059C84.3391 46.7902 84.3169 46.537 84.1363 45.6885C83.8402 44.2968 83.2381 42.1132 82.7518 40.6678C82.395 39.607 82.3606 39.5452 82.2987 39.8549ZM83.1522 39.8734C83.5878 41.0122 84.8301 45.5079 84.8345 45.9611C84.8354 46.0474 84.8756 46.1804 84.924 46.2568C84.9927 46.3653 85.177 46.2683 85.7728 45.8096C86.1914 45.4875 86.5339 45.1744 86.5339 45.114C86.5339 45.0537 86.1678 44.3769 85.7205 43.6101C84.5799 41.6554 82.8977 39.2078 83.1522 39.8734ZM71.0259 40.282C69.5932 40.6778 66.4806 41.5846 66.4429 41.6171C66.4261 41.6316 66.6413 42.155 66.9212 42.7802C67.8378 44.8281 69.1421 47.0316 70.6081 49.0091L71.2678 49.8992L73.2979 47.8329C74.4145 46.6964 75.3281 45.6961 75.3281 45.6099C75.3281 45.5238 75.2091 45.2427 75.0639 44.9852C73.6247 42.4364 72.2354 40.0803 72.1404 40.0275C72.1052 40.0079 71.6037 40.1224 71.0259 40.282ZM22.4218 41.0169C20.9468 42.1635 18.9167 44.192 17.9684 45.4671L17.1981 46.5025V47.2752C17.1981 48.2174 17.3451 49.7694 17.5654 51.1519L17.7297 52.1838L18.2893 51.6411C19.2873 50.6731 20.2411 50.1429 21.5612 49.8223L22.2725 49.6496L22.3393 48.5842C22.4764 46.3959 22.8817 43.5444 23.3631 41.3811C23.502 40.7567 23.5958 40.2261 23.5715 40.2018C23.5471 40.1773 23.0298 40.5442 22.4218 41.0169ZM16.6582 42.2408C16.3707 43.4433 16.1463 44.9421 16.0479 46.3181L15.9833 47.2186L16.2254 46.8184C16.4396 46.4642 16.4806 46.2225 16.5824 44.7173C16.6456 43.7818 16.763 42.6131 16.8434 42.12C16.9238 41.6271 16.9736 41.2078 16.954 41.1882C16.9344 41.1687 16.8014 41.6423 16.6582 42.2408ZM90.6679 41.5524C90.5489 41.7592 90.2454 42.1814 89.9935 42.4906C89.7415 42.7999 89.5354 43.0837 89.5354 43.1214C89.5354 43.159 89.7737 43.447 90.0647 43.7615C90.3559 44.076 90.8961 44.7775 91.2653 45.3205C91.8703 46.2102 91.9367 46.2771 91.9367 45.9976C91.9367 45.264 91.2011 41.7424 90.9566 41.3055C90.907 41.2171 90.8162 41.2947 90.6679 41.5524ZM63.472 42.5579C60.5118 43.5097 54.0041 45.8445 53.4427 46.156C53.3556 46.2044 53.4712 46.433 53.8299 46.9218C56.3655 50.3783 59.1936 55.3547 60.5795 58.7992C60.6846 59.0604 60.807 59.2742 60.8514 59.2744C61.157 59.2758 70.8258 50.5449 70.8258 50.2675C70.8258 50.2197 70.5931 49.8744 70.3089 49.5001C68.886 47.626 67.4497 45.2254 66.4897 43.1165C66.1641 42.4011 65.8921 41.809 65.8854 41.8008C65.8787 41.7925 64.7927 42.1331 63.472 42.5579ZM88.0511 44.5613L87.3172 45.2368L87.8619 46.3277C88.8565 48.3197 89.9062 51.1296 90.4467 53.2467C90.5767 53.7557 90.7113 54.1722 90.7462 54.1722C90.7809 54.1722 90.9545 53.8476 91.1318 53.451C91.5105 52.6041 91.515 52.6516 90.7875 49.8199C90.3636 48.1699 89.0382 44.1254 88.8688 43.9651C88.8228 43.9215 88.4548 44.1898 88.0511 44.5613ZM90.3917 46.3431C90.7339 47.375 91.1862 48.8655 91.3968 49.6556C91.845 51.3366 91.9058 51.298 92.0041 49.2695L92.0647 48.0187L91.7368 47.3686C91.3213 46.5448 89.9595 44.4775 89.8276 44.4703C89.7957 44.4686 90.0495 45.3114 90.3917 46.3431ZM50.4653 46.1781C49.6949 46.789 49.0195 47.332 48.9645 47.3851C48.8434 47.5015 48.9377 47.4666 50.7408 46.7271C51.4977 46.4168 52.2311 46.1194 52.3705 46.0664L52.6242 45.9699L52.2951 45.5226C52.1141 45.2766 51.9435 45.0736 51.916 45.0715C51.8885 45.0694 51.2357 45.5673 50.4653 46.1781ZM85.962 46.2529C85.5649 46.5656 85.1963 46.8659 85.143 46.92C85.0802 46.9837 85.1312 47.5623 85.2871 48.5579C85.6374 50.7927 85.8377 53.2487 85.8729 55.7389C85.9083 58.2309 85.7969 58.0215 86.8966 57.6647C87.2336 57.5553 87.7739 57.3076 88.0972 57.1141C88.6671 56.773 89.9498 55.6042 90.1469 55.2465C90.3516 54.8752 89.1173 50.7423 88.0689 48.2875C87.4934 46.9402 86.8534 45.6654 86.7579 45.676C86.7172 45.6805 86.3591 45.9401 85.962 46.2529ZM73.5582 48.1617L71.5435 50.2348L72.1959 50.9778C73.3774 52.3238 74.1656 53.0783 74.3265 53.0175C74.4747 52.9614 77.737 51.1753 77.8232 51.1031C77.9136 51.0272 76.1959 47.126 75.7319 46.3533L75.5728 46.0884L73.5582 48.1617ZM50.7154 47.2102C49.5873 47.6692 48.429 48.1516 48.1413 48.282L47.6182 48.5192L48.0239 49.4697C49.0944 51.9783 50.7934 55.1848 52.3735 57.6791C53.1405 58.8897 55.0509 61.6231 55.1902 61.709C55.2636 61.7543 57.3054 60.9648 59.4449 60.0638C59.9815 59.8379 60.4204 59.5982 60.4204 59.5312C60.4204 59.1291 58.4023 54.9743 57.1137 52.7236C55.7172 50.2844 53.0779 46.3601 52.8417 46.3718C52.8003 46.3739 51.8435 46.7511 50.7154 47.2102ZM92.7386 47.527C92.7395 47.7426 92.7863 47.9865 92.8428 48.069C92.9157 48.1756 92.926 48.0741 92.8785 47.7188C92.7949 47.0943 92.7366 47.0145 92.7386 47.527ZM82.6625 48.5578C81.7164 49.1969 80.9155 49.7478 80.8829 49.782C80.8501 49.8161 80.7116 50.2664 80.5748 50.7825C80.4381 51.2986 80.1652 52.2407 79.9683 52.876L79.6104 54.031L80.1004 55.6274C80.6621 57.4574 80.5284 57.3156 82.0921 57.7389C82.8409 57.9416 83.3298 58.0091 84.0986 58.0156C84.6576 58.0203 85.1529 57.9862 85.1992 57.9398C85.3379 57.8007 85.2585 53.2404 85.0875 51.5208C85 50.6403 84.8394 49.3675 84.7306 48.6921C84.6218 48.0169 84.5328 47.4428 84.5328 47.4165C84.5328 47.309 84.3091 47.4455 82.6625 48.5578ZM15.168 48.119C15.1245 48.4492 15.0688 48.8544 15.0443 49.0195L14.9995 49.3197L15.153 48.9838C15.2491 48.7734 15.2953 48.4368 15.2768 48.0833L15.2471 47.5187L15.168 48.119ZM16.2723 48.1772C16.0342 48.6036 15.9976 48.7798 15.9985 49.4949C15.9995 50.3548 16.2168 52.5297 16.3947 53.4604C16.4514 53.7569 16.4978 54.027 16.498 54.0607C16.4981 54.0945 16.6557 53.861 16.8482 53.5418C17.0406 53.2227 17.1981 52.8782 17.1981 52.7763C17.1981 52.6745 17.112 52.0803 17.0068 51.4557C16.9015 50.8311 16.7617 49.7349 16.6961 49.0195C16.6305 48.3041 16.5701 47.7112 16.5619 47.7018C16.5538 47.6925 16.4235 47.9064 16.2723 48.1772ZM46.3631 49.5443C43.6819 51.8173 40.5664 54.6254 38.4324 56.6928L37.2052 57.8818L37.7901 58.6533C39.4101 60.7908 41.078 63.6533 41.9798 65.844L42.1922 66.3601L43.9775 65.7811C45.9074 65.1553 48.3052 64.335 50.078 63.6941C51.3251 63.2432 54.7541 61.9599 54.7921 61.9298C54.8056 61.9192 54.5384 61.5313 54.1982 61.0678C53.3073 59.8542 51.6593 57.3245 50.8138 55.873C49.9643 54.4145 48.299 51.1164 47.7577 49.8199C47.5507 49.3247 47.355 48.8883 47.3225 48.8502C47.2901 48.8121 46.8584 49.1245 46.3631 49.5443ZM43.9119 50.1056C40.1654 51.8074 34.695 54.4737 34.4144 54.7347C34.391 54.7565 34.7755 55.1903 35.269 55.6989C35.7626 56.2073 36.3342 56.824 36.5394 57.0692L36.9126 57.5149L37.6859 56.7563C38.9596 55.5067 41.5427 53.1431 43.5069 51.4301C45.69 49.5261 46.0798 49.1752 46.013 49.1744C45.9854 49.1741 45.04 49.5931 43.9119 50.1056ZM92.5965 50.3396C92.5584 50.7141 92.4345 51.3982 92.3212 51.8598C92.1231 52.6665 92.1212 52.7363 92.2737 53.6607C92.361 54.1897 92.4825 55.0726 92.5437 55.6229C92.6049 56.1732 92.6873 56.8711 92.7267 57.1737L92.7983 57.724L93.0217 56.7946C93.3022 55.6277 93.4055 54.2537 93.3245 52.7689C93.2669 51.7131 92.9246 49.9347 92.7414 49.7393C92.6999 49.6949 92.6346 49.965 92.5965 50.3396ZM23.0261 50.0342C22.8043 50.0833 22.801 50.1073 22.801 51.6546C22.801 52.5183 22.8469 53.9447 22.9029 54.8242C22.9965 56.291 23.4055 59.6892 23.5788 60.4398L23.6514 60.7545L25.4512 59.5571C26.4411 58.8986 27.2607 58.3502 27.2725 58.3384C27.2843 58.3266 27.548 57.4407 27.8585 56.3696C28.1689 55.2986 28.4458 54.3461 28.4736 54.2529C28.5015 54.1598 28.3653 53.597 28.1712 53.0023C27.977 52.4076 27.7471 51.6657 27.6603 51.3537L27.5025 50.7864L26.8776 50.5806C25.5562 50.1455 23.7085 49.8834 23.0261 50.0342ZM21.3974 50.3579C20.475 50.6532 19.5878 51.1854 18.8451 51.8892C17.7961 52.8833 17.8169 52.7969 18.2333 54.4333C18.825 56.7587 19.9395 59.7694 20.9551 61.7863L21.3011 62.4733L22.1761 61.806C22.6574 61.439 23.061 61.1335 23.0731 61.127C23.0852 61.1205 23.0098 60.6223 22.9054 60.0199C22.4977 57.6643 22.2068 54.095 22.2026 51.3957C22.2012 50.4801 22.169 50.1715 22.0756 50.1755C22.0069 50.1784 21.7016 50.2605 21.3974 50.3579ZM79.216 50.7279L78.4574 51.1748L78.8188 52.0716C79.0175 52.5647 79.2076 52.969 79.2413 52.9699C79.3119 52.9718 80.0662 50.3726 80.0111 50.3175C79.991 50.2973 79.6332 50.482 79.216 50.7279ZM15.1709 50.9541C14.8387 52.0081 14.7538 52.7215 14.7643 54.3723C14.7745 55.962 14.9625 57.3518 15.2785 58.1742C15.3701 58.4129 15.3775 58.406 15.4395 58.0242C15.6059 56.9971 15.822 55.9215 15.906 55.7004C15.9693 55.5337 15.9381 55.1045 15.8069 54.3393C15.6447 53.3937 15.5354 52.4934 15.3676 50.7204C15.3422 50.4513 15.3218 50.4757 15.1709 50.9541ZM69.325 52.337C67.1828 54.3692 65.5759 55.8223 63.4854 57.6179C62.6673 58.3205 62.0982 58.8637 62.2206 58.8248C62.5431 58.7224 65.8204 57.2261 68.054 56.1614C69.4943 55.4749 73.4871 53.4676 73.7023 53.322C73.7161 53.3127 73.4437 53.0162 73.097 52.6631C72.7505 52.3099 72.1765 51.6971 71.8214 51.3012L71.1759 50.5812L69.325 52.337ZM28.2291 51.3457C28.4446 52.1217 28.7643 53.0699 28.8108 53.0707C28.842 53.0712 28.9491 52.8128 29.0488 52.4963C29.1484 52.1798 29.2505 51.8674 29.2756 51.8018C29.301 51.7354 29.098 51.5697 28.8158 51.4266C28.217 51.1233 28.1652 51.1161 28.2291 51.3457ZM76.3286 52.4234C75.4206 52.9317 74.6804 53.3869 74.6835 53.4347C74.6979 53.6535 77.9227 56.0732 78.2 56.0732C78.2963 56.0732 78.9336 54.3136 78.9314 54.0537C78.93 53.8895 78.1059 51.6081 78.0218 51.5356C77.9985 51.5156 77.2366 51.9151 76.3286 52.4234ZM14.0395 53.922C14.0396 55.2427 14.0538 55.7692 14.0712 55.0919C14.0886 54.4147 14.0885 53.3341 14.0711 52.6907C14.0536 52.0473 14.0395 52.6014 14.0395 53.922ZM29.4641 52.9852L29.1015 53.9946L29.5668 55.2589C29.8227 55.9544 30.0444 56.5381 30.0594 56.5561C30.0938 56.5972 33.3954 54.7712 33.452 54.6797C33.505 54.5939 32.0979 53.4586 31.0552 52.7461C29.7324 51.8422 29.8827 51.8196 29.4641 52.9852ZM72.4766 54.4758C70.532 55.5022 66.6169 57.3631 63.522 58.7322C62.1738 59.3287 61.0577 59.8242 61.0417 59.8332C61.0258 59.8423 61.1489 60.1927 61.3154 60.6117C62.2794 63.0383 63.3814 66.9585 63.8284 69.5502L64.0494 70.8323L64.8113 71.3924C66.3639 72.5339 68.3602 73.7869 68.4552 73.6794C68.7266 73.3728 70.4169 70.9993 71.1965 69.8303C73.1655 66.8778 74.8861 63.8142 76.3178 60.7117C77.1123 58.99 78.0333 56.7796 78.0248 56.6148C78.0222 56.5645 77.5156 56.1953 76.8992 55.7944C76.2827 55.3935 75.4074 54.7519 74.9542 54.3687C74.5009 53.9855 74.0957 53.6746 74.0537 53.6779C74.0117 53.6811 73.302 54.0402 72.4766 54.4758ZM17.2223 54.0385C16.831 54.8193 16.6759 55.4016 16.7368 55.861C16.909 57.159 18.2945 61.9031 19.0277 63.7054L19.2516 64.2557L19.997 63.5793L20.7423 62.903L20.1738 61.7014C19.0782 59.3854 18.1897 56.9964 17.6468 54.9072C17.5078 54.3724 17.3762 53.9167 17.3543 53.8948C17.3323 53.8728 17.2729 53.9375 17.2223 54.0385ZM91.2586 54.6508L90.9308 55.2106L91.1287 56.3763C91.3005 57.3879 91.4784 58.9039 91.5629 60.0752L91.5881 60.4254L91.8763 59.8759C92.1628 59.3301 92.1643 59.318 92.099 58.075C92.0234 56.6352 91.7527 54.2533 91.6536 54.1567C91.6167 54.1206 91.4389 54.343 91.2586 54.6508ZM28.5718 55.7899C28.2476 56.8745 28.0037 57.741 28.0037 57.8085C28.0037 57.8382 28.3255 57.6639 28.719 57.4213C29.1124 57.1787 29.4749 56.9668 29.5245 56.9502C29.5958 56.9265 28.977 55.121 28.8525 54.9895C28.8353 54.9712 28.709 55.3314 28.5718 55.7899ZM79.0411 55.5867C78.925 55.9307 78.8299 56.273 78.8299 56.3473C78.8299 56.4611 79.8233 57.014 79.8965 56.941C79.9263 56.9111 79.3496 55.0587 79.2927 55.0019C79.2705 54.9796 79.1573 55.2428 79.0411 55.5867ZM32.4059 55.8765C31.608 56.3178 30.8064 56.7546 30.6245 56.8474C30.3545 56.985 30.3045 57.0588 30.3523 57.2492C30.4738 57.7334 32.4391 61.9762 32.542 61.9762C32.5752 61.9762 33.9206 60.6031 35.6512 58.803L36.5377 57.8808L36.1477 57.4048C35.6449 56.7913 34.0024 55.0723 33.9199 55.0735C33.8851 55.0739 33.2038 55.4353 32.4059 55.8765ZM89.7118 56.5257C88.8022 57.3765 87.3843 58.1018 86.2155 58.314C85.794 58.3905 85.8706 58.0441 85.5931 61.1258C85.4314 62.9209 85.084 65.1459 84.6988 66.8537C84.5716 67.4178 84.4894 67.8792 84.5162 67.8792C84.7729 67.8792 87.8366 65.2759 88.8231 64.2195C89.6173 63.369 90.7166 61.9497 90.8272 61.6319C90.9873 61.1721 90.5694 56.2828 90.3507 56.0559C90.315 56.019 90.0275 56.2303 89.7118 56.5257ZM78.3665 57.2488C75.9533 63.1618 73.102 68.2909 69.6575 72.9148C69.2545 73.4557 68.9248 73.933 68.9248 73.9752C68.9248 74.0175 69.099 74.1306 69.3119 74.2266C69.6898 74.397 69.721 74.3951 70.6426 74.144C74.324 73.1412 79.0724 71.2322 81.3099 69.8556L81.8389 69.5301L81.7804 68.6797C81.5127 64.7844 81.3795 63.635 80.9238 61.2829C80.665 59.9474 80.0939 57.5989 80.009 57.5215C79.9644 57.4809 78.6071 56.8736 78.5609 56.8736C78.5381 56.8736 78.4506 57.0425 78.3665 57.2488ZM16.2607 57.2798C16.2222 57.414 16.163 58.1161 16.1294 58.8399L16.0684 60.156L16.4382 60.884C16.793 61.5822 18.0053 63.4075 18.1902 63.5218C18.2391 63.552 18.0328 62.8451 17.7316 61.9511C17.4306 61.0569 16.9923 59.5852 16.7575 58.6805C16.4347 57.4358 16.3138 57.0951 16.2607 57.2798ZM28.7407 57.9415L27.8269 58.504L27.5124 60.015C26.8478 63.209 26.5552 65.285 26.4183 67.7792C26.3715 68.6321 26.342 69.3418 26.3526 69.3563C26.3633 69.3707 26.7569 68.8755 27.2275 68.2557C28.2273 66.9386 29.9717 64.8365 31.2149 63.4506L32.0914 62.4736L31.4828 61.1994C31.1482 60.4985 30.639 59.3642 30.3513 58.6784C30.0635 57.9927 29.7891 57.4198 29.7412 57.4053C29.6935 57.3908 29.2433 57.6321 28.7407 57.9415ZM80.7309 57.9094C80.7309 57.9288 80.8642 58.4579 81.027 59.085C81.7232 61.7657 82.2608 65.1882 82.3887 67.7542C82.4279 68.5383 82.4991 69.1799 82.547 69.1799C82.5949 69.1799 82.8589 69.0336 83.1335 68.8547C83.6859 68.4951 83.6742 68.5215 84.0923 66.6786C84.6045 64.4208 85.1332 60.5599 85.1332 59.0775V58.4744H84.3437C83.5438 58.4744 82.2875 58.2804 81.388 58.0181C80.8867 57.8718 80.7309 57.846 80.7309 57.9094ZM34.8524 60.3136C33.7545 61.4496 32.8443 62.4143 32.8296 62.4573C32.7902 62.5735 33.744 64.3186 34.9621 66.359L36.0365 68.1587L36.7476 67.966C39.0681 67.337 41.7107 66.5351 41.7107 66.4598C41.7107 66.2591 40.5959 63.9407 39.9635 62.8266C39.2352 61.5432 37.7294 59.2752 37.1816 58.6365L36.8487 58.2483L34.8524 60.3136ZM25.3678 60.0709C24.4513 60.6752 23.7014 61.1943 23.7014 61.2244C23.7014 61.2545 23.8153 61.8075 23.9545 62.4531C24.2964 64.0399 24.716 65.55 25.281 67.2289L25.7525 68.6296L25.7771 68.0293C25.866 65.8633 26.2499 62.9757 26.7599 60.6356C26.9506 59.7607 27.0903 59.0285 27.0704 59.0086C27.0505 58.9886 26.2843 59.4667 25.3678 60.0709ZM92.9095 59.2748C92.8712 59.4124 92.8445 59.7275 92.8502 59.9752L92.8606 60.4254L92.9516 59.8759C93.0515 59.2723 93.0231 58.8666 92.9095 59.2748ZM15.2139 60.3926C15.3431 61.1369 15.4058 61.2311 15.3356 60.5755C15.3032 60.2728 15.2418 59.988 15.1991 59.9423C15.1564 59.8968 15.1631 60.0994 15.2139 60.3926ZM60.3104 60.3039C60.0974 60.4853 56.6593 63.2489 56.5299 63.3427C56.455 63.3969 57.9861 65.1372 59.3198 66.5138C60.5548 67.7885 63.0462 70.0727 63.4318 70.2838C63.5708 70.3599 63.56 70.2053 63.3493 69.1003C62.8813 66.6446 61.9589 63.4012 61.046 61.0007C60.8525 60.4917 60.6663 60.0768 60.6323 60.0788C60.5983 60.0808 60.4534 60.1821 60.3104 60.3039ZM57.28 61.3817C56.3507 61.7605 55.5696 62.0913 55.5441 62.1168C55.4873 62.1734 56.1228 62.9767 56.2243 62.9767C56.2926 62.9767 58.6982 61.1127 59.0161 60.8134C59.2499 60.5934 59.0677 60.653 57.28 61.3817ZM91.8109 61.33C91.5699 61.729 91.5365 61.886 91.5365 62.62C91.5365 63.6015 91.388 65.1844 91.1844 66.372C91.1048 66.8361 91.0567 67.2328 91.0774 67.2535C91.1527 67.3287 91.7324 64.6999 91.8771 63.6271C92.0338 62.4661 92.173 60.8756 92.1179 60.8756C92.1 60.8756 91.9618 61.08 91.8109 61.33ZM22.5987 62.0576C22.3498 62.2604 21.9982 62.5422 21.8174 62.6837L21.4885 62.941L22.1078 64.0344C22.6797 65.0441 24.3343 67.5965 24.7948 68.1794C24.9462 68.371 24.8876 68.102 24.5444 67.0288C24.0937 65.6196 23.2012 62.1796 23.2012 61.852C23.2012 61.6069 23.1162 61.6358 22.5987 62.0576ZM16.0981 61.9345C16.1003 62.6675 16.856 66.3355 17.0931 66.7646C17.1477 66.8635 17.2278 66.8043 17.3868 66.547C17.507 66.3525 17.8064 65.9344 18.052 65.6181C18.2977 65.3017 18.4987 65.0103 18.4987 64.9704C18.4987 64.9307 18.2032 64.5446 17.842 64.1125C17.4808 63.6804 16.9585 62.9892 16.6814 62.5765C16.0737 61.6713 16.0974 61.6974 16.0981 61.9345ZM52.7664 63.1701C50.2853 64.1109 46.3744 65.4745 43.9619 66.2401C43.1365 66.502 42.4486 66.7241 42.4333 66.7337C42.418 66.7432 42.6513 67.4888 42.9519 68.3907C43.2524 69.2925 43.579 70.4244 43.6776 70.9058C43.7762 71.3874 43.8844 71.7813 43.918 71.7813C44.0133 71.7813 48.1124 69.0616 49.6148 68.0015C50.3577 67.4773 52.0786 66.2171 53.4391 65.2011C56.156 63.1719 56.0181 63.3507 55.3967 62.6622L55.0676 62.2977L52.7664 63.1701ZM31.1433 64.2559C29.1749 66.5052 26.5404 69.8511 26.6508 69.9614C26.7972 70.1079 35.1686 68.4516 35.3873 68.233C35.4079 68.2124 35.0199 67.5263 34.525 66.7083C34.0302 65.8904 33.337 64.6952 32.9846 64.0524L32.3441 62.8837L31.1433 64.2559ZM90.3607 63.5049C89.274 64.8877 86.9586 66.9948 85.0976 68.2946L84.3117 68.8435L83.6889 70.7376C83.3464 71.7794 82.8833 73.1044 82.6597 73.6822C82.3106 74.5845 81.8825 76.3585 81.9868 76.4701C82.0056 76.49 82.3497 76.407 82.7516 76.2854C84.9217 75.629 87.0245 74.1888 88.5684 72.3016C88.9995 71.7749 89.2137 71.3884 89.4756 70.6649C89.9157 69.449 90.4889 67.1224 90.6796 65.7782C90.8564 64.532 90.9876 62.8767 90.9096 62.8767C90.8792 62.8767 90.6322 63.1594 90.3607 63.5049ZM20.1618 64.165C19.588 64.7432 19.4952 64.883 19.5797 65.0405C19.7187 65.2992 20.906 66.4237 21.7504 67.0964C22.5151 67.7057 24.7019 69.2238 24.7019 69.1455C24.7019 69.1188 24.3379 68.5865 23.8928 67.9628C23.0473 66.7776 21.6834 64.6314 21.3124 63.9022C21.1934 63.6684 21.0395 63.477 20.9703 63.477C20.9012 63.477 20.5373 63.7866 20.1618 64.165ZM54.3673 64.9909C52.0833 66.7363 48.6268 69.1931 46.0532 70.9004L43.9423 72.3008L44.0202 72.7163C44.0631 72.945 44.1524 73.7234 44.2186 74.4462L44.339 75.7606L45.2175 75.8733C47.725 76.1948 49.8905 76.3141 53.3167 76.3195C57.2675 76.3257 59.8884 76.1549 63.2384 75.673L64.0052 75.5627L63.961 74.7975C63.89 73.569 63.7133 71.6573 63.6398 71.3222C63.5891 71.0912 63.3322 70.8154 62.6215 70.229C61.3327 69.1653 58.4288 66.2906 57.1906 64.8527C56.6339 64.2062 56.1536 63.6802 56.1233 63.6841C56.093 63.6879 55.3028 64.2759 54.3673 64.9909ZM18.4435 65.9917C17.9137 66.7062 17.5006 67.5185 17.4992 67.8485C17.4986 67.9692 17.6157 68.3847 17.7592 68.7718C18.0067 69.4397 18.0465 69.4883 18.5346 69.719C19.0904 69.9817 20.3735 70.2805 20.9465 70.2805H21.3015L20.6139 68.9048C20.2358 68.1482 19.7323 67.0788 19.4951 66.5285C19.2577 65.9783 19.0303 65.489 18.9897 65.4414C18.949 65.3937 18.7031 65.6413 18.4435 65.9917ZM20.4651 67.0527C20.5509 67.2597 20.9585 68.0962 21.3708 68.9115L22.1205 70.394L23.036 70.3343C23.5395 70.3014 24.2361 70.2495 24.5838 70.2188L25.216 70.163L24.2499 69.574C22.9887 68.805 22.1374 68.2012 21.1297 67.3609L20.309 66.6764L20.4651 67.0527ZM41.4106 67.0405C41.02 67.1595 38.4172 67.902 36.8334 68.3463C36.3924 68.4701 36.3228 68.5205 36.3984 68.6617C36.7532 69.3242 40.1675 73.9824 40.2984 73.9824C40.3627 73.9824 43.2581 72.2418 43.4061 72.1141C43.5454 71.994 42.3494 67.8074 41.981 67.1258C41.8658 66.9126 41.842 66.9091 41.4106 67.0405ZM34.6571 68.8857C33.525 69.1895 30.2917 69.8704 28.5587 70.1698L26.9531 70.4472L27.9607 70.9561C29.5685 71.7681 31.4963 72.5463 33.7566 73.2959C34.9122 73.6792 35.9252 74.0284 36.0078 74.0719C36.0903 74.1155 36.7738 74.3021 37.5266 74.4865L38.8953 74.8219L39.2608 74.6272C39.4618 74.5202 39.6468 74.4003 39.6719 74.3608C39.697 74.3213 39.316 73.7585 38.8252 73.1101C37.9387 71.9389 35.9279 69.044 35.8349 68.8047C35.7709 68.6399 35.5043 68.6584 34.6571 68.8857ZM82.9776 69.6262L82.5818 69.8647L82.5318 70.9684C82.5043 71.5756 82.5098 72.0406 82.544 72.0019C82.6238 71.9114 83.4389 69.4534 83.4015 69.4159C83.3861 69.4004 83.1953 69.4951 82.9776 69.6262ZM80.3307 71.061C77.8462 72.3573 73.8653 73.8984 71.351 74.5371C70.9521 74.6384 70.6257 74.7514 70.6257 74.7882C70.6257 74.8893 72.032 75.4605 73.3271 75.8855C75.4551 76.5839 77.9297 76.947 79.6547 76.8141L80.4532 76.7524L81.0519 75.5307C81.5477 74.5188 81.6652 74.1779 81.7361 73.5451C81.8853 72.215 81.9656 70.2799 81.8711 70.2923C81.8217 70.2988 81.1286 70.6447 80.3307 71.061ZM18.4987 70.4096C18.4987 70.4384 18.6313 70.7575 18.7934 71.1187C19.7036 73.1472 22.421 77.4663 22.5385 77.0713C22.561 76.9958 22.6333 76.6638 22.6991 76.3336C22.7649 76.0034 22.9746 75.3662 23.165 74.9175L23.511 74.1018L23.1241 73.4667C22.9113 73.1176 22.4767 72.3704 22.1582 71.8063L21.5792 70.7807H20.9982C20.4807 70.7807 19.3419 70.6014 18.7239 70.4224C18.6001 70.3865 18.4987 70.3807 18.4987 70.4096ZM24.7019 70.6843C24.3443 70.7244 23.6801 70.7626 23.2262 70.769C22.7722 70.7754 22.4008 70.807 22.4008 70.839C22.4008 70.9021 23.549 72.9179 23.7516 73.2105C23.8608 73.3682 23.9705 73.2314 24.6888 72.0411C25.5041 70.6901 25.5668 70.5675 25.4273 70.5958C25.3861 70.6043 25.0596 70.6441 24.7019 70.6843ZM25.4661 71.6784C25.32 71.8991 24.9746 72.5024 24.6986 73.019L24.1968 73.9582L25.1994 75.4461C26.3106 77.0951 26.6635 77.5605 26.5552 77.2341C26.3969 76.7563 25.9938 74.0161 25.893 72.7318C25.8325 71.9614 25.7715 71.3188 25.7574 71.304C25.7433 71.2891 25.6122 71.4576 25.4661 71.6784ZM28.0818 72.1565C29.718 73.9697 33.4328 77.3842 33.7691 77.3842C33.9472 77.3842 38.136 75.2769 38.0764 75.2172C38.0555 75.1964 37.3689 74.9985 36.5506 74.7774C33.4677 73.9448 30.4158 72.8396 28.3808 71.8191C27.9004 71.5782 27.4792 71.3811 27.4448 71.3811C27.4103 71.3811 27.697 71.7299 28.0818 72.1565ZM64.2902 72.6567C64.3574 73.3032 64.4147 74.2073 64.4175 74.6656L64.4225 75.4991L64.6976 75.4445C64.8489 75.4143 65.513 75.2968 66.1734 75.183C67.3616 74.9783 67.3779 74.9718 67.7518 74.5543C68.1926 74.062 68.3113 74.2149 66.6736 73.1652C66.0683 72.7773 65.2749 72.2396 64.9105 71.9705C64.546 71.7013 64.2299 71.4811 64.208 71.4811C64.1859 71.4811 64.223 72.0102 64.2902 72.6567ZM26.4053 72.0314C26.4031 72.3531 26.7372 74.9077 26.9092 75.8834C27.1843 77.4444 27.6378 78.8883 27.9427 79.1749L28.185 79.4025L28.9197 79.2008C29.3238 79.0899 29.7781 78.9522 29.9291 78.8947L30.2038 78.7902L29.6705 77.9622C28.7952 76.6026 27.9124 75.0243 27.137 73.4321C26.735 72.6067 26.4057 71.9764 26.4053 72.0314ZM28.0381 73.844C28.8325 75.4151 30.4398 78.1559 30.7532 78.4737C30.87 78.5923 31.0464 78.55 31.9483 78.1876C32.5302 77.9537 33.0062 77.7312 33.0062 77.6933C33.0062 77.6553 32.4773 77.1772 31.8306 76.6306C31.184 76.0841 29.874 74.8534 28.9195 73.896L27.1839 72.155L28.0381 73.844ZM42.0609 73.4498C41.2905 73.9159 40.6477 74.3511 40.6323 74.4168C40.617 74.4827 40.7787 74.7066 40.9916 74.9145C41.3496 75.2642 41.4599 75.3072 42.4621 75.4879C43.058 75.5953 43.6055 75.6833 43.6787 75.6833C43.8452 75.6833 43.8529 75.0724 43.7018 73.8396C43.5312 72.4488 43.6634 72.4802 42.0609 73.4498ZM87.2825 74.5952C85.983 75.6713 84.4356 76.4872 82.832 76.9419C82.3092 77.0902 81.8678 77.2228 81.8511 77.2366C81.8343 77.2504 81.7181 77.6606 81.5929 78.1483C81.3392 79.1363 80.3715 81.6519 79.9336 82.4618C79.7774 82.7507 79.6712 82.987 79.6978 82.987C79.7243 82.987 80.2489 82.6123 80.8638 82.1542C82.635 80.8345 83.9674 79.574 85.3305 77.9282C86.0264 77.088 87.9507 74.1825 87.8112 74.1825C87.7945 74.1825 87.5566 74.3682 87.2825 74.5952ZM68.4245 74.5327C68.323 74.655 68.3285 74.6828 68.4541 74.6828C68.7038 74.6828 68.928 74.5688 68.8683 74.4722C68.7837 74.3353 68.5634 74.3653 68.4245 74.5327ZM23.5993 75.2581C23.2874 76.0863 23.077 77.1665 23.1308 77.663C23.1689 78.013 23.2874 78.2156 23.7744 78.7636C24.1329 79.1669 24.5073 79.4829 24.7118 79.5547C25.08 79.6838 26.3832 79.7243 26.8932 79.6223C27.3192 79.5371 27.2807 79.4483 26.173 77.9637C25.6665 77.2848 24.9459 76.2689 24.5715 75.7061C24.1971 75.1433 23.8738 74.6828 23.8533 74.6828C23.8327 74.6828 23.7183 74.9416 23.5993 75.2581ZM39.8127 74.7789C39.6269 74.8964 39.6773 74.9419 40.0916 75.0306C40.4095 75.0988 40.418 75.0929 40.2927 74.8923C40.1496 74.6632 40.0375 74.6367 39.8127 74.7789ZM68.5992 75.2195L67.7234 75.4331L66.8983 76.3964C66.4446 76.9262 65.6844 77.7817 65.2091 78.2974L64.3448 79.2351L64.1788 80.3857C63.8302 82.8027 63.2766 84.6357 62.3083 86.5793L61.6402 87.9205L63.4065 87.855C66.7526 87.7308 69.5763 87.2695 72.4442 86.3785C73.5961 86.0206 73.922 85.7799 75.2996 84.2689C76.9203 82.4914 78.6926 80.0335 79.7793 78.0566L80.149 77.3842L79.0642 77.3822C76.4756 77.3775 73.6819 76.7258 70.8863 75.4743C70.2826 75.204 69.7182 74.9881 69.6319 74.9944C69.5456 75.0007 69.081 75.1021 68.5992 75.2195ZM36.4853 76.5666C35.2347 77.2089 34.212 77.7568 34.2127 77.7844C34.2145 77.8582 36.0011 79.1558 37.2084 79.9601C39.3642 81.3963 42.0533 82.9344 42.2242 82.8289C42.4395 82.6957 43.1939 80.9312 43.397 80.0856C43.7316 78.6923 43.7791 78.8487 42.65 77.626C42.0953 77.0253 41.4882 76.3648 41.3009 76.1585C40.99 75.8158 40.8747 75.7659 39.9738 75.5832C39.4313 75.4732 38.936 75.3867 38.8733 75.391C38.8105 75.3953 37.736 75.9244 36.4853 76.5666ZM65.3837 75.8733L64.4938 76.0367L64.4501 77.1775L64.4065 78.3183L65.15 77.526C65.9919 76.6292 66.7237 75.7926 66.7237 75.7272C66.7237 75.6563 66.3328 75.6989 65.3837 75.8733ZM42.2647 76.4087C43.2639 77.4856 43.6608 77.8844 43.7334 77.8844C43.7765 77.8844 43.8118 77.5242 43.8118 77.084C43.8118 76.6438 43.8005 76.2835 43.7868 76.2835C43.7731 76.2834 43.3791 76.2159 42.9114 76.1335C42.4436 76.0512 42.018 75.9836 41.9656 75.9835C41.9131 75.9835 42.0478 76.1748 42.2647 76.4087ZM63.0718 76.2918C61.8533 76.4983 58.457 76.7856 56.0681 76.8845C53.0454 77.0096 49.3958 76.8955 46.3277 76.5801C45.2578 76.4701 44.3728 76.3921 44.3611 76.4068C44.3494 76.4217 44.3113 76.8882 44.2765 77.4439L44.213 78.454L45.2881 79.4949C46.6748 80.8375 48.0522 82.0194 49.6148 83.2076C50.942 84.2167 53.259 85.778 54.0296 86.1823L54.4922 86.4251L55.2802 85.937C57.3564 84.6505 60.1535 82.4638 62.4947 80.2965C64.0842 78.825 64.0223 78.9539 64.0223 77.12C64.0223 76.0587 64.0915 76.1191 63.0718 76.2918ZM80.3535 78.3597C79.1643 80.4829 77.8172 82.3915 76.1561 84.3071L75.2282 85.3772L75.8034 85.1244C76.1198 84.9854 76.8227 84.6402 77.3652 84.3574C78.2448 83.8989 78.3903 83.7831 78.7052 83.2907C79.2298 82.4707 79.9903 81.0114 80.2192 80.3857C80.4581 79.7324 81.1311 77.5132 81.1311 77.3784C81.1311 77.0963 80.8923 77.3978 80.3535 78.3597ZM32.2809 78.5578C31.6894 78.8087 31.2059 79.0412 31.2066 79.0745C31.2092 79.2039 32.6057 81.0194 33.5845 82.1661C34.1502 82.8289 35.2267 83.9638 35.9767 84.688C37.2983 85.9643 37.351 86.0029 37.6852 85.9402C38.41 85.8042 39.2839 85.4793 39.9023 85.1157C40.5425 84.7395 41.8112 83.6222 41.8104 83.4354C41.8101 83.3815 41.4714 83.1634 41.0578 82.9511C39.2216 82.0084 36.4486 80.2462 34.4894 78.777C33.9815 78.3962 33.5189 78.0883 33.4613 78.093C33.4035 78.0977 32.8724 78.3068 32.2809 78.5578ZM43.9805 79.5103C43.8947 80.1324 43.4503 81.4247 43.0199 82.3039L42.6441 83.0714L43.7057 83.5756C46.0791 84.7025 49.5285 85.9343 52.1349 86.5856C53.1667 86.8433 53.445 86.8811 53.6214 86.7866C53.8268 86.6767 53.8072 86.6517 53.2524 86.3178C50.481 84.6495 47.4861 82.3401 44.8624 79.8478C44.4221 79.4297 44.0568 79.0869 44.0505 79.0862C44.0442 79.0856 44.0127 79.2764 43.9805 79.5103ZM29.5044 79.5475C29.0917 79.6808 28.6945 79.8113 28.6217 79.8374C28.3643 79.9295 31.5832 83.3979 33.5178 85.1131C34.3415 85.8435 34.7286 85.9886 35.853 85.9886H36.3712L34.9124 84.5128C33.5306 83.1151 31.9659 81.2708 31.0014 79.9032C30.7617 79.5633 30.4956 79.2895 30.4102 79.295C30.3248 79.3004 29.9171 79.414 29.5044 79.5475ZM62.7029 80.8316C60.8956 82.5826 58.842 84.2059 56.4708 85.7576C55.7301 86.2423 55.1226 86.6636 55.1209 86.694C55.1191 86.7242 55.4666 86.9136 55.8931 87.1148C56.7853 87.5359 57.9595 87.7155 59.9176 87.7306L61.0657 87.7395L61.5249 86.9391C62.4653 85.2995 63.2194 83.1863 63.5753 81.1935C63.6596 80.7217 63.7504 80.2343 63.7772 80.1106C63.804 79.9868 63.7913 79.887 63.749 79.8891C63.7067 79.891 63.236 80.3152 62.7029 80.8316ZM26.0119 80.2771L25.1708 80.3357L26.0214 81.1402C26.8047 81.8809 28.6855 83.3873 28.8271 83.3873C28.8605 83.3873 28.6711 82.9616 28.4062 82.4414C28.1413 81.9211 27.8167 81.212 27.6847 80.8656C27.4112 80.1475 27.4877 80.1743 26.0119 80.2771ZM28.5067 81.1361C28.678 81.615 29.1823 82.5697 29.7393 83.4697C30.2454 84.2872 30.2702 84.3098 31.093 84.7042C32.9293 85.5845 32.9306 85.574 31.1999 83.8168C30.3441 82.9477 29.3638 81.9215 29.0216 81.5363C28.5324 80.9856 28.4224 80.9001 28.5067 81.1361ZM41.959 84.0134C41.2904 84.917 39.8708 85.8787 38.545 86.326L37.8878 86.5477L38.6737 87.1486C40.1183 88.2533 41.9161 89.4319 42.9993 89.9845C43.4155 90.1969 43.4795 90.202 44.2998 90.0885C46.1298 89.8356 47.7468 89.4232 49.5648 88.7457C50.4889 88.4014 52.5163 87.4753 52.5163 87.3974C52.5163 87.3638 52.0998 87.2315 51.5908 87.1036C49.2817 86.5231 45.7781 85.2307 42.8094 83.8644L42.2571 83.6103L41.959 84.0134ZM79.2716 84.0373C78.9918 84.2217 78.6821 84.4957 78.5836 84.6461L78.4043 84.9197L78.6921 84.7093C79.0502 84.4476 79.8983 83.6949 79.8304 83.6989C79.8029 83.7006 79.5515 83.8529 79.2716 84.0373ZM29.0456 84.3739C29.0709 84.4149 29.3756 84.6712 29.7224 84.9434C30.2864 85.3859 30.3294 85.4047 30.1277 85.121C29.9408 84.8579 28.9011 84.14 29.0456 84.3739ZM76.6846 85.4597C76.4127 85.5984 75.6972 85.91 75.0948 86.1521C74.1579 86.5286 73.8646 86.7064 73.0688 87.3808C72.557 87.8144 71.7517 88.4503 71.279 88.7936C70.8065 89.137 70.4355 89.4336 70.4547 89.4528C70.4738 89.472 70.8466 89.3713 71.283 89.2292C72.4191 88.8592 74.2388 87.9001 75.228 87.1501C76.0717 86.5105 77.3084 85.333 77.2234 85.2505C77.199 85.2269 76.9565 85.321 76.6846 85.4597ZM32.1607 86.3681C33.0626 87.2322 34.4046 88.1876 35.4575 88.7149C36.0391 89.0062 38.2385 89.7906 38.4736 89.7906C38.5112 89.7906 38.0731 89.4686 37.5 89.0751C36.3994 88.3194 35.2788 87.4822 34.4699 86.8113C34.1224 86.5231 33.7956 86.3601 33.3318 86.2436C32.974 86.1537 32.4089 85.9695 32.0762 85.8343C31.7433 85.6991 31.4449 85.5902 31.4132 85.5923C31.3814 85.5945 31.7178 85.9436 32.1607 86.3681ZM35.7076 86.992C36.2615 87.4629 38.3131 88.881 39.4305 89.5654L40.4513 90.1908L41.2561 90.1891L42.0609 90.1874L41.7107 89.9733C40.5902 89.2879 39.027 88.2072 38.134 87.5005L37.1087 86.689L36.233 86.6917L35.3575 86.6944L35.7076 86.992ZM71.6262 87.2993C70.7197 87.5707 68.3055 88.0497 66.8737 88.242C66.2134 88.3306 64.6826 88.4285 63.472 88.4593C61.2777 88.5151 61.1055 88.5448 60.9155 88.8998C60.8343 89.0515 60.8946 89.0973 61.3461 89.2271C62.9749 89.6953 64.1242 89.8365 66.3249 89.8386L68.4777 89.8406L69.1958 89.4143C69.9813 88.9479 72.5081 87.0794 72.3265 87.0991C72.299 87.102 71.9839 87.1921 71.6262 87.2993ZM52.5163 88.095C50.6961 89.0448 47.9934 89.9977 45.8755 90.4364C45.222 90.5718 44.6734 90.6966 44.6563 90.7137C44.6033 90.7667 46.4092 91.5054 47.4637 91.8624C48.8024 92.3155 50.46 92.7485 51.5945 92.9416C52.6668 93.1241 53.165 93.0681 54.7175 92.5907C56.3589 92.0858 57.8758 91.2105 59.0593 90.0849L59.7492 89.4287L59.2594 89.2488C58.99 89.1498 58.2518 88.8521 57.619 88.587C56.7374 88.2179 56.1352 88.0449 55.0433 87.8473C54.2595 87.7055 53.5842 87.5916 53.5425 87.5942C53.5009 87.5969 53.0391 87.8222 52.5163 88.095ZM58.7994 88.4022C58.838 88.4369 59.1765 88.5654 59.5513 88.6879C60.212 88.9038 60.2374 88.9049 60.3687 88.7255C60.4431 88.6236 60.484 88.5202 60.4596 88.4958C60.4352 88.4713 60.0358 88.4261 59.5721 88.3953C59.1084 88.3645 58.7606 88.3676 58.7994 88.4022ZM59.8988 90.1672C58.7746 91.3158 57.0453 92.4445 55.4963 93.0406L54.8675 93.2826L55.9825 93.2875C59.4837 93.3029 63.2614 92.4526 66.4735 90.9263L67.0738 90.641L65.7732 90.5781C64.3005 90.5069 63.0243 90.3061 61.4849 89.9033L60.4278 89.6267L59.8988 90.1672ZM68.5246 90.591C68.442 90.6443 68.4195 90.6879 68.4746 90.6879C68.5296 90.6879 68.6421 90.6443 68.7247 90.591C68.8072 90.5376 68.8297 90.494 68.7747 90.494C68.7197 90.494 68.6071 90.5376 68.5246 90.591ZM40.21 90.8911C40.2925 90.9445 40.4051 90.9881 40.4601 90.9881C40.5151 90.9881 40.4926 90.9445 40.4101 90.8911C40.3275 90.8378 40.215 90.7942 40.1599 90.7942C40.1049 90.7942 40.1274 90.8378 40.21 90.8911ZM42.1659 90.8608C41.895 90.9043 41.9324 90.9356 42.6161 91.2367C44.535 92.082 46.8529 92.7914 48.1641 92.9348C48.7219 92.9957 48.6702 92.9684 47.4354 92.5487C46.7045 92.3002 45.5114 91.8184 44.784 91.478C43.4522 90.8547 42.9457 90.7354 42.1659 90.8608Z" fill="black"/>
</svg>
