<svg width="274" height="108" viewBox="0 0 274 108" fill="none" xmlns="http://www.w3.org/2000/svg">
<rect x="56" y="13" width="216" height="82" rx="41" fill="black" stroke="white" stroke-width="4"/>
<path d="M126.345 60.1406L130.658 42.25H135.595L129.002 65H125.673L126.345 60.1406ZM122.658 42.25L126.955 60.1406L127.658 65H124.314L117.767 42.25H122.658ZM142.142 48.0938V65H137.752V48.0938H142.142ZM137.548 43.7188C137.548 43.0417 137.762 42.4844 138.189 42.0469C138.627 41.599 139.21 41.375 139.939 41.375C140.679 41.375 141.262 41.599 141.689 42.0469C142.116 42.4844 142.33 43.0417 142.33 43.7188C142.33 44.3854 142.111 44.9427 141.673 45.3906C141.246 45.8281 140.673 46.0469 139.955 46.0469C139.215 46.0469 138.627 45.8281 138.189 45.3906C137.762 44.9427 137.548 44.3854 137.548 43.7188ZM152.423 65.3125C151.267 65.3125 150.241 65.1354 149.345 64.7812C148.46 64.4271 147.71 63.9167 147.095 63.25C146.481 62.5729 146.012 61.7552 145.689 60.7969C145.366 59.8385 145.205 58.7448 145.205 57.5156V56.125C145.205 54.75 145.361 53.5469 145.673 52.5156C145.986 51.474 146.429 50.599 147.002 49.8906C147.575 49.1823 148.278 48.6562 149.111 48.3125C149.955 47.9583 150.908 47.7812 151.97 47.7812C153.033 47.7812 153.965 47.9583 154.767 48.3125C155.58 48.6562 156.252 49.1771 156.783 49.875C157.314 50.5625 157.715 51.4167 157.986 52.4375C158.257 53.4583 158.392 54.6458 158.392 56V58H147.064V54.9219H154.095V54.5312C154.095 53.8438 154.022 53.2708 153.877 52.8125C153.731 52.3438 153.502 51.9948 153.189 51.7656C152.877 51.5365 152.46 51.4219 151.939 51.4219C151.502 51.4219 151.132 51.5104 150.83 51.6875C150.528 51.8646 150.288 52.1406 150.111 52.5156C149.934 52.8906 149.804 53.3802 149.72 53.9844C149.637 54.5781 149.595 55.2917 149.595 56.125V57.5156C149.595 58.2969 149.663 58.9531 149.798 59.4844C149.934 60.0052 150.132 60.4323 150.392 60.7656C150.663 61.0885 150.991 61.3229 151.377 61.4688C151.762 61.6042 152.21 61.6719 152.72 61.6719C153.491 61.6719 154.184 61.5365 154.798 61.2656C155.423 60.9844 155.955 60.6042 156.392 60.125L158.142 62.7812C157.84 63.1771 157.423 63.5729 156.892 63.9688C156.361 64.3646 155.726 64.6875 154.986 64.9375C154.246 65.1875 153.392 65.3125 152.423 65.3125ZM164.892 60.5469L167.845 48.0938H170.595L169.923 53.1562L167.017 65H164.72L164.892 60.5469ZM164.048 48.0938L166.064 60.5156L166.048 65H163.361L159.845 48.0938H164.048ZM172.814 60.3125L174.767 48.0938H179.002L175.47 65H172.783L172.814 60.3125ZM170.97 48.0938L173.923 60.4531L174.127 65H171.83L168.923 53.1875L168.267 48.0938H170.97ZM201.423 61.2188V65H191.97V61.2188H201.423ZM193.377 42.25V65H188.798V42.25H193.377ZM208.486 48.0938V65H204.095V48.0938H208.486ZM203.892 43.7188C203.892 43.0417 204.106 42.4844 204.533 42.0469C204.97 41.599 205.554 41.375 206.283 41.375C207.022 41.375 207.606 41.599 208.033 42.0469C208.46 42.4844 208.673 43.0417 208.673 43.7188C208.673 44.3854 208.455 44.9427 208.017 45.3906C207.59 45.8281 207.017 46.0469 206.298 46.0469C205.559 46.0469 204.97 45.8281 204.533 45.3906C204.106 44.9427 203.892 44.3854 203.892 43.7188ZM216.939 61.625L219.658 48.0938H224.22L219.58 65H216.845L216.939 61.625ZM215.33 48.0938L218.095 61.6406L218.142 65H215.392L210.752 48.0938H215.33ZM232.923 65.3125C231.767 65.3125 230.741 65.1354 229.845 64.7812C228.96 64.4271 228.21 63.9167 227.595 63.25C226.981 62.5729 226.512 61.7552 226.189 60.7969C225.866 59.8385 225.705 58.7448 225.705 57.5156V56.125C225.705 54.75 225.861 53.5469 226.173 52.5156C226.486 51.474 226.929 50.599 227.502 49.8906C228.075 49.1823 228.778 48.6562 229.611 48.3125C230.455 47.9583 231.408 47.7812 232.47 47.7812C233.533 47.7812 234.465 47.9583 235.267 48.3125C236.08 48.6562 236.752 49.1771 237.283 49.875C237.814 50.5625 238.215 51.4167 238.486 52.4375C238.757 53.4583 238.892 54.6458 238.892 56V58H227.564V54.9219H234.595V54.5312C234.595 53.8438 234.522 53.2708 234.377 52.8125C234.231 52.3438 234.002 51.9948 233.689 51.7656C233.377 51.5365 232.96 51.4219 232.439 51.4219C232.002 51.4219 231.632 51.5104 231.33 51.6875C231.028 51.8646 230.788 52.1406 230.611 52.5156C230.434 52.8906 230.304 53.3802 230.22 53.9844C230.137 54.5781 230.095 55.2917 230.095 56.125V57.5156C230.095 58.2969 230.163 58.9531 230.298 59.4844C230.434 60.0052 230.632 60.4323 230.892 60.7656C231.163 61.0885 231.491 61.3229 231.877 61.4688C232.262 61.6042 232.71 61.6719 233.22 61.6719C233.991 61.6719 234.684 61.5365 235.298 61.2656C235.923 60.9844 236.455 60.6042 236.892 60.125L238.642 62.7812C238.34 63.1771 237.923 63.5729 237.392 63.9688C236.861 64.3646 236.226 64.6875 235.486 64.9375C234.746 65.1875 233.892 65.3125 232.923 65.3125Z" fill="white"/>
<rect x="1.81667" y="1.81667" width="104.367" height="104.367" rx="52.1833" fill="black"/>
<rect x="1.81667" y="1.81667" width="104.367" height="104.367" rx="52.1833" stroke="white" stroke-width="3.63333"/>
<path fill-rule="evenodd" clip-rule="evenodd" d="M46.3747 21.9226C42.2907 22.9695 39.5576 24.171 35.9795 26.4935C33.4617 28.1277 28.112 33.211 27.0668 34.9626C26.8009 35.4074 25.3841 35.8128 22.8425 36.171C16.9159 37.0061 13.339 38.7352 11.94 41.4406C10.1278 44.9451 12.7491 49.8399 18.7788 54.2094C21.0519 55.8571 21.1693 56.0385 21.4361 58.3073C22.528 67.5985 28.7786 77.1253 37.0597 82.1211C42.4258 85.3584 50.3639 87.2555 56.3369 86.7284C61.0793 86.3095 64.2693 85.3943 68.8796 83.1294C72.1775 81.5091 73.6649 80.4371 76.5093 77.6291C78.4528 75.7111 80.3426 73.6862 80.709 73.1301C81.2608 72.2924 81.9516 72.0472 84.7358 71.7016C90.5559 70.9791 94.6564 69.0993 95.9753 66.549C97.8651 62.8942 95.5915 58.3601 89.6563 53.9465C87.0341 51.9965 86.6564 51.5413 86.6564 50.3285C86.6564 48.0212 85.0754 42.5858 83.4871 39.4317C79.2844 31.086 72.3534 25.1767 63.4836 22.3761C59.1055 20.9939 50.8516 20.7752 46.3747 21.9226ZM49.304 24.5617C43.3839 25.5583 37.7757 28.4123 33.6167 32.5439L30.5653 35.5759L32.5144 35.6911C35.2808 35.8548 42.9586 36.6917 44.009 36.9442C44.6968 37.1092 45.0636 36.7969 45.6674 35.53C46.9261 32.8909 49.4245 29.3422 51.9267 26.6394L54.2643 24.1143L52.8103 24.1654C52.0103 24.1931 50.4328 24.3715 49.304 24.5617ZM58.9357 25.4466C55.8284 26.72 52.4256 30.2553 49.4509 35.3013C48.53 36.8627 48.2805 37.6233 48.6513 37.7398C48.9476 37.8325 50.7494 38.2371 52.6552 38.6386C55.7222 39.2844 64.2533 41.7078 66.4657 42.5615C67.2424 42.8612 67.2722 42.6455 67.076 38.1518C66.8343 32.6158 65.8381 29.0433 63.9362 26.8941C62.4922 25.2625 60.6708 24.7354 58.9357 25.4466ZM69.4358 31.1774C69.8832 32.9095 70.3181 36.4058 70.4151 39.0522L70.5892 43.8115L72.0172 44.4413C72.803 44.7874 75.6387 46.0916 78.3185 47.3399C83.8791 49.9292 83.7868 49.9824 82.2869 45.0585C80.8563 40.3629 78.6542 36.8225 74.7833 32.9935C72.8567 31.0877 70.6841 29.1984 69.9555 28.7952L68.6306 28.0614L69.4358 31.1774ZM27.2202 41.2729C25.7484 44.5812 24.8236 47.9341 24.4685 51.2455L24.1839 53.9049L26.2344 55.1069C28.031 56.1594 37.3776 60.4977 37.8498 60.4977C37.9464 60.4977 38.1504 59.4378 38.3028 58.1423C38.6836 54.9003 40.9168 46.3952 42.2448 43.1268C42.8477 41.642 43.2709 40.3569 43.1847 40.2707C42.8386 39.925 37.7744 39.287 33.2005 39.0137L28.3537 38.7239L27.2202 41.2729ZM20.2714 39.7453C18.013 40.2776 15.3497 41.6961 15.0257 42.5394C14.1325 44.8675 15.5212 47.5456 19.0837 50.3649L21.0055 51.8856L21.5522 48.6484C21.8532 46.8677 22.5908 44.1043 23.192 42.5074C23.7932 40.9104 24.2848 39.5296 24.2848 39.439C24.2848 39.1636 22.0022 39.3377 20.2714 39.7453ZM45.9676 42.4619C44.0635 46.9041 41.1771 57.9963 41.1771 60.8719C41.1771 61.8335 43.4632 62.6997 52.0055 64.9741C58.9266 66.8167 61.1564 67.171 61.5843 66.4957C63.0288 64.2144 66.704 50.6035 66.7226 47.4642L66.7321 45.9084L62.2925 44.5518C59.8505 43.8055 55.7088 42.6906 53.0883 42.0742C50.4679 41.4574 47.9817 40.8541 47.5633 40.7332C46.9876 40.5669 46.6 40.9871 45.9676 42.4619ZM70.0092 48.045C69.9209 48.343 69.5137 50.4381 69.1053 52.7012C68.4816 56.1542 65.9867 64.5436 64.8402 67.0428C64.4343 67.9277 66.0833 68.2053 73.9798 68.5826L79.7115 68.8563L81.026 66.0466C82.4571 62.9882 83.6049 58.2939 83.6171 55.4495C83.624 53.7143 83.5382 53.6017 81.2032 52.2837C78.5312 50.7759 71.271 47.5036 70.5974 47.5036C70.3622 47.5036 70.0976 47.7474 70.0092 48.045ZM86.4965 58.5412C86.2549 60.5982 84.8667 65.5363 83.8375 67.9996C83.5417 68.7078 83.6799 68.7593 85.1906 68.5059C89.1473 67.8415 91.3594 66.9765 92.466 65.6611C93.885 63.9749 93.8733 63.2152 92.3954 61.0413C91.2476 59.352 87.7921 56.1663 87.1081 56.1663C86.9254 56.1663 86.6499 57.2349 86.4965 58.5412ZM24.718 58.5945C24.718 59.6777 26.3184 64.6177 27.3293 66.656C29.1883 70.4026 30.8408 72.6094 34.0018 75.566C36.4533 77.8595 39.4446 79.9689 39.4446 79.4045C39.4446 79.3092 39.1314 78.3784 38.749 77.3363C38.3188 76.1655 37.9464 73.2353 37.7744 69.6728L37.4955 63.9047L33.5972 62.2688C31.4532 61.3691 28.682 60.1152 27.4393 59.4824C25.0757 58.2787 24.718 58.1622 24.718 58.5945ZM40.7591 67.9693C40.7799 71.6903 41.7605 76.8698 42.8473 79.0004C45.2806 83.7701 49.1044 83.7116 53.8048 78.8327C55.6941 76.8711 60.0636 70.5577 59.7348 70.264C59.6525 70.1904 57.6363 69.6927 55.254 69.1573C52.8718 68.622 48.7457 67.5266 46.085 66.7231C43.4242 65.9197 41.1342 65.2622 40.9956 65.2622C40.8575 65.2622 40.7509 66.4806 40.7591 67.9693ZM61.797 73.2583C60.2658 76.2322 56.9025 80.7351 55.0444 82.2987L53.6718 83.4539L55.5455 83.4465C60.4971 83.4266 66.7196 81.186 71.7067 77.6273C74.1617 75.8757 77.3743 72.7277 77.0438 72.3976C76.9684 72.3223 74.6399 72.0498 71.8695 71.7921C69.0988 71.534 65.9811 71.2104 64.9411 71.0731L63.0505 70.8228L61.797 73.2583Z" fill="white"/>
</svg>
