<svg width="67" height="67" viewBox="0 0 67 67" fill="none" xmlns="http://www.w3.org/2000/svg">
<g clip-path="url(#clip0_852451_178)">
<path d="M11.6542 19.7958L30.1587 9.00149L27.908 5.14328L9.40358 15.9376L11.6542 19.7958ZM8.93333 42.4333V24.5667H4.46667V42.4333H8.93333ZM36.8413 9.00149L55.346 19.7958L57.5963 15.9376L39.092 5.14328L36.8413 9.00149ZM58.0667 24.5667V42.4333H62.5333V24.5667H58.0667ZM56.9415 46.2738L36.8413 57.9988L39.092 61.8571L59.1918 50.1321L56.9415 46.2738ZM30.1587 57.9988L11.6542 47.2046L9.40358 51.0629L27.908 61.8571L30.1587 57.9988ZM29.4084 8.81117L7.07507 42.3112L10.7916 44.7891L33.1249 11.2888L29.4084 8.81117ZM59.9248 42.3112L37.5916 8.81117L33.8751 11.2888L56.2085 44.7891L59.9248 42.3112ZM11.1667 49.1333H55.8333V44.6667H11.1667V49.1333ZM33.5 8.93333C32.2666 8.93333 31.2667 7.93343 31.2667 6.7H26.8C26.8 10.4003 29.7997 13.4 33.5 13.4V8.93333ZM35.7333 6.7C35.7333 7.93343 34.7334 8.93333 33.5 8.93333V13.4C37.2003 13.4 40.2 10.4003 40.2 6.7H35.7333ZM33.5 4.46667C34.7334 4.46667 35.7333 5.46657 35.7333 6.7H40.2C40.2 2.99969 37.2003 0 33.5 0V4.46667ZM33.5 0C29.7997 0 26.8 2.99969 26.8 6.7H31.2667C31.2667 5.46657 32.2666 4.46667 33.5 4.46667V0ZM60.3 22.3333C59.0668 22.3333 58.0667 21.3334 58.0667 20.1H53.6C53.6 23.8003 56.5998 26.8 60.3 26.8V22.3333ZM62.5333 20.1C62.5333 21.3334 61.5332 22.3333 60.3 22.3333V26.8C64.0002 26.8 67 23.8003 67 20.1H62.5333ZM60.3 17.8667C61.5332 17.8667 62.5333 18.8666 62.5333 20.1H67C67 16.3997 64.0002 13.4 60.3 13.4V17.8667ZM60.3 13.4C56.5998 13.4 53.6 16.3997 53.6 20.1H58.0667C58.0667 18.8666 59.0668 17.8667 60.3 17.8667V13.4ZM60.3 49.1333C59.0668 49.1333 58.0667 48.1332 58.0667 46.9H53.6C53.6 50.6002 56.5998 53.6 60.3 53.6V49.1333ZM62.5333 46.9C62.5333 48.1332 61.5332 49.1333 60.3 49.1333V53.6C64.0002 53.6 67 50.6002 67 46.9H62.5333ZM60.3 44.6667C61.5332 44.6667 62.5333 45.6668 62.5333 46.9H67C67 43.1997 64.0002 40.2 60.3 40.2V44.6667ZM60.3 40.2C56.5998 40.2 53.6 43.1997 53.6 46.9H58.0667C58.0667 45.6668 59.0668 44.6667 60.3 44.6667V40.2ZM33.5 62.5333C32.2666 62.5333 31.2667 61.5332 31.2667 60.3H26.8C26.8 64.0002 29.7997 67 33.5 67V62.5333ZM35.7333 60.3C35.7333 61.5332 34.7334 62.5333 33.5 62.5333V67C37.2003 67 40.2 64.0002 40.2 60.3H35.7333ZM33.5 58.0667C34.7334 58.0667 35.7333 59.0668 35.7333 60.3H40.2C40.2 56.5998 37.2003 53.6 33.5 53.6V58.0667ZM33.5 53.6C29.7997 53.6 26.8 56.5998 26.8 60.3H31.2667C31.2667 59.0668 32.2666 58.0667 33.5 58.0667V53.6ZM6.7 49.1333C5.46657 49.1333 4.46667 48.1332 4.46667 46.9H0C0 50.6002 2.99969 53.6 6.7 53.6V49.1333ZM8.93333 46.9C8.93333 48.1332 7.93343 49.1333 6.7 49.1333V53.6C10.4003 53.6 13.4 50.6002 13.4 46.9H8.93333ZM6.7 44.6667C7.93343 44.6667 8.93333 45.6668 8.93333 46.9H13.4C13.4 43.1997 10.4003 40.2 6.7 40.2V44.6667ZM6.7 40.2C2.99969 40.2 0 43.1997 0 46.9H4.46667C4.46667 45.6668 5.46657 44.6667 6.7 44.6667V40.2ZM6.7 22.3333C5.46657 22.3333 4.46667 21.3334 4.46667 20.1H0C0 23.8003 2.99969 26.8 6.7 26.8V22.3333ZM8.93333 20.1C8.93333 21.3334 7.93343 22.3333 6.7 22.3333V26.8C10.4003 26.8 13.4 23.8003 13.4 20.1H8.93333ZM6.7 17.8667C7.93343 17.8667 8.93333 18.8666 8.93333 20.1H13.4C13.4 16.3997 10.4003 13.4 6.7 13.4V17.8667ZM6.7 13.4C2.99969 13.4 0 16.3997 0 20.1H4.46667C4.46667 18.8666 5.46657 17.8667 6.7 17.8667V13.4Z" fill="#4760FF"/>
</g>
<defs>
<clipPath id="clip0_852451_178">
<rect width="67" height="67" fill="white"/>
</clipPath>
</defs>
</svg>
