<svg width="51" height="56" viewBox="0 0 51 56" fill="none" xmlns="http://www.w3.org/2000/svg">
<mask id="mask0_852421_53" style="mask-type:luminance" maskUnits="userSpaceOnUse" x="0" y="0" width="51" height="56">
<path d="M50.5 0.337402H0.5V55.6624H50.5V0.337402Z" fill="white"/>
</mask>
<g mask="url(#mask0_852421_53)">
<path fill-rule="evenodd" clip-rule="evenodd" d="M42.8635 42.7348C44.8288 41.5965 46.1725 39.696 46.5503 37.5203C46.8363 35.8728 46.5683 34.2188 45.8502 32.7489C44.8159 33.4695 43.5603 33.8937 42.2068 33.8937C38.9696 33.8937 36.2887 31.4734 35.8742 28.3476C34.5415 28.2991 33.134 28.2995 31.809 28.3481C31.3942 31.4737 28.7135 33.8937 25.4764 33.8937C25.1514 33.8937 24.8322 33.869 24.5201 33.822C23.4792 35.4649 22.2126 37.0024 20.7395 38.3921C18.4606 40.5423 15.8913 42.1357 13.103 43.1288L12.5917 43.3108L12.109 43.0628C8.58192 41.2508 6.90153 37.4164 7.97007 33.8899C7.39322 33.8255 6.83982 33.6836 6.31954 33.4758C6.14657 33.8385 5.96884 34.2044 5.78746 34.5772L5.78696 34.5782C4.73739 36.7342 3.6522 38.9634 3.25076 41.3839C2.81753 43.997 2.64581 48.7655 6.36444 51.3428C11.4411 54.8611 16.8251 52.1872 23.0594 49.0906L23.0599 49.0903C26.1749 47.5431 29.396 45.9431 32.7216 45.1231C33.9794 44.8129 35.267 44.6272 36.5121 44.4477C38.8364 44.1125 41.0316 43.7958 42.8635 42.7348ZM12.5641 27.5405C12.5641 25.4003 10.823 23.6591 8.68264 23.6591C6.54243 23.6591 4.8012 25.4003 4.8012 27.5405C4.8012 28.2389 4.98759 28.8943 5.31183 29.4611C5.75974 30.2441 6.47181 30.8572 7.32637 31.177C7.74882 31.3349 8.20576 31.422 8.68264 31.422C8.77233 31.422 8.86113 31.4178 8.94931 31.4118C10.2095 31.3258 11.3059 30.636 11.9513 29.6298C12.3386 29.0261 12.5641 28.3093 12.5641 27.5405ZM24.9003 23.6652C23.0324 23.9445 21.595 25.5591 21.595 27.5037C21.595 28.8688 22.3041 30.0708 23.3728 30.7631C23.9795 31.1559 24.7015 31.3851 25.4764 31.3851C25.6086 31.3851 25.7393 31.3783 25.868 31.3654C27.5225 31.1988 28.8728 29.9886 29.2511 28.405C29.3202 28.1156 29.3578 27.814 29.3578 27.5037C29.3578 26.9168 29.2263 26.3604 28.9921 25.8612C28.8688 25.5983 28.7156 25.352 28.539 25.1251C27.8285 24.2117 26.7207 23.6222 25.4764 23.6222C25.2807 23.6222 25.0883 23.637 24.9003 23.6652ZM36.0369 25.8433C36.3448 24.7003 36.9632 23.6838 37.7947 22.8882L33.7379 14.6126L29.7216 22.7338C30.6374 23.5502 31.3182 24.625 31.6464 25.8433C33.0755 25.7894 34.5996 25.7894 36.0369 25.8433ZM46.9711 2.84619H20.4939L26.7264 21.2377C27.0089 21.294 27.2849 21.3682 27.5526 21.4604L33.7478 8.93344L39.9255 21.5357C40.1821 21.4372 40.4465 21.3553 40.7176 21.2902L46.9711 2.84619ZM45.923 28.6233C46.03 28.2685 46.0882 27.8929 46.0882 27.5037C46.0882 25.4859 44.5405 23.8234 42.5699 23.6398C42.4502 23.6286 42.3293 23.6222 42.2068 23.6222C40.8705 23.6222 39.6917 24.3023 38.9931 25.3332C38.8503 25.5442 38.7258 25.7687 38.6261 26.0063C38.4326 26.4672 38.3253 26.9731 38.3253 27.5037C38.3253 27.8516 38.3721 28.1888 38.4584 28.5099C38.9028 30.1638 40.4146 31.3851 42.2068 31.3851C43.032 31.3851 43.7974 31.1255 44.427 30.6847C45.1333 30.1903 45.6682 29.4672 45.923 28.6233Z" fill="#4760FF"/>
</g>
</svg>
