<svg width="67" height="67" viewBox="0 0 67 67" fill="none" xmlns="http://www.w3.org/2000/svg">
<path d="M29.3414 44.2009L25.7409 40.5089C25.7409 40.5089 15.4948 44.4785 5.15705 34.2324C-3.61229 25.4631 0.265834 11.7109 5.98702 6.08131C12.0804 -0.0120313 25.0941 -3.70407 34.6018 5.80367C44.1096 15.3114 40.0483 26.5707 40.0483 26.5707L66.1703 52.601L65.4318 66.17L52.1405 67L51.4021 60.3543L44.4788 59.5244L43.8319 52.601L37.0002 51.6766L35.9841 45.0309L29.3414 44.2009ZM9.5875 9.77335C5.52626 13.8346 4.41864 19.2811 7.09463 21.8655C9.77063 24.5415 15.1256 23.4339 19.1868 19.3727C23.2481 15.3114 24.4472 9.86492 21.7712 7.28049C19.1868 4.6045 13.6487 5.71211 9.5875 9.77335ZM63.0305 57.7699L63.2166 53.8918L38.3884 29.0635L36.3563 31.0956L63.0305 57.7699Z" fill="#5541D5"/>
</svg>
