<svg width="69" height="69" viewBox="0 0 69 69" fill="none" xmlns="http://www.w3.org/2000/svg">
<path d="M59.9719 16.3518L36.5453 2.5491C35.0679 1.69522 33.1443 1.69522 31.6552 2.5491L7.97841 16.3518C6.45372 17.2418 5.37476 18.9146 5.37476 20.7037V48.2725C5.37476 50.0617 6.48188 51.735 8.00657 52.6298L14.262 56.2351C17.2519 57.7293 18.3086 57.7293 19.6691 57.7293C24.096 57.7293 26.6248 55.013 26.6248 50.2752V23.0578C26.6248 22.6734 26.4277 22.1015 26.0558 22.1015H23.0686C22.6903 22.1015 21.8435 22.6734 21.8435 23.0573V50.2746C21.8435 52.3748 19.9714 54.4648 16.4726 52.6896L10.0088 48.9092C9.7836 48.7852 9.62476 48.5356 9.62476 48.2725V20.7037C9.62476 20.4439 9.9196 20.183 10.1464 20.0498L33.7467 6.2708C33.9672 6.14412 34.2912 6.14412 34.5112 6.2708L57.8235 20.0466C58.0466 20.183 57.968 20.4358 57.968 20.7037V48.2725C57.968 48.5356 58.0652 48.7917 57.8447 48.9183L34.424 62.7054C34.2232 62.8278 33.9741 62.8278 33.7541 62.7054L27.7473 59.0673C27.5661 58.9606 27.351 58.9223 27.1773 59.0209C25.5059 59.9821 25.1978 60.1099 23.6301 60.6613C23.2444 60.7977 22.6754 61.0343 23.8479 61.7012L31.7093 66.4201C32.4599 66.86 33.3113 67.0917 34.1781 67.0918C35.0504 67.0918 35.9046 66.8622 36.6574 66.4201L59.9713 52.6298C61.496 51.7285 62.2185 50.0617 62.2185 48.2725V20.7037C62.2185 18.9146 61.496 17.2462 59.9719 16.3518ZM41.4519 43.904C35.2225 43.904 33.8503 42.1601 33.3929 39.0168C33.3398 38.6783 33.0566 38.2734 32.7171 38.2734H29.6725C29.2959 38.2734 28.9931 38.737 28.9931 39.1176C28.9931 43.1423 31.1494 48.0186 41.4525 48.0186C48.9107 48.0186 53.1867 45.078 53.1867 39.8739C53.1867 34.714 49.7511 33.3599 42.5182 32.3885C35.2071 31.4079 34.4644 30.9125 34.4644 29.1746C34.4644 27.7417 35.0934 25.8307 40.5068 25.8307C45.3439 25.8307 47.1268 26.8841 47.8604 30.1923C47.9231 30.5034 48.2031 30.7265 48.5192 30.7265H51.576C51.764 30.7265 51.9436 30.6494 52.0753 30.5131C52.2028 30.3664 52.2703 30.1826 52.2533 29.9853C51.78 24.2885 48.0501 21.6336 40.5063 21.6336C33.7961 21.6336 29.7931 24.509 29.7931 29.3287C29.7931 34.5566 33.7759 36.0013 40.2173 36.6476C47.9231 37.4142 48.5224 38.557 48.5224 40.0949C48.5224 42.766 46.409 43.904 41.4519 43.904Z" fill="#4760FF"/>
</svg>
