<svg width="158" height="117" viewBox="0 0 158 117" fill="none" xmlns="http://www.w3.org/2000/svg">
<path d="M129.479 112.836L129.631 112.529C129.782 112.299 129.885 112.045 129.987 111.766V111.742C130.471 110.471 130.574 109.122 130.344 107.769V107.818C130.09 106.391 129.582 105.017 128.814 103.771L128.863 103.82L94.1964 42.8623L88.904 33.6214L49.0473 103.82C48.3582 105.042 47.9282 106.366 47.6985 107.739V107.818C47.42 109.396 47.5959 110.999 48.2312 112.475L48.2067 112.426C48.2849 112.656 48.412 112.861 48.539 113.086L48.5146 113.061C49.5604 114.845 51.7741 116.98 56.6609 116.98H121.157C122.173 116.98 127.187 116.775 129.503 112.831L129.479 112.836ZM88.9089 52.1326L120.57 107.823H57.2717L88.9089 52.1326ZM155.692 103.83L109.981 23.3005C109.497 22.4355 106.878 18.1596 102.269 18.1596C100.207 18.1596 97.2555 19.049 94.8365 23.2761L88.9333 33.6361L94.1768 42.9014L102.323 28.4707L147.55 107.857H130.344C130.574 109.181 130.447 110.53 129.987 111.8V111.751C129.885 112.03 129.782 112.313 129.631 112.568V112.543L129.479 112.851C127.163 116.795 122.173 117 121.206 117H148.107C149.1 117 154.065 116.795 156.381 112.851C157.427 111.043 158.135 108.042 155.692 103.84V103.83ZM48.5684 113.066C48.4657 112.861 48.3631 112.66 48.2605 112.455V112.431C47.6252 110.955 47.42 109.352 47.6985 107.774V107.818L10.7397 107.823L65.6673 11.1813L83.6849 42.8672L88.9284 33.6263L73.1978 5.93284C72.7629 5.14606 70.1191 0.870117 65.5353 0.870117C63.4731 0.870117 60.497 1.75951 58.1025 6.01103L2.46633 103.825C1.98254 104.666 -0.309368 109.093 1.98254 113.037C3.02831 114.845 5.24203 116.956 10.1288 116.956H56.7049C51.8669 116.956 49.6044 114.869 48.5586 113.037L48.5684 113.066Z" fill="#4760FF"/>
</svg>
