<svg width="179" height="67" viewBox="0 0 179 67" fill="none" xmlns="http://www.w3.org/2000/svg">
<g clip-path="url(#clip0_852451_236)">
<path d="M115.401 67.0001L142.522 0.00012207H124.544L105.993 43.2954L92.7988 0.00012207H78.9765L64.8158 43.2954L54.8251 23.5688L45.7871 51.297L54.9647 67.0001H72.6569L85.4567 28.1715L97.6702 67.0001H115.401Z" fill="#4760FF"/>
<path d="M17.0257 44.0002H28.0702C31.0878 44.0425 34.0967 43.6655 37.0105 42.88L39.865 34.0897L47.8492 9.52656C47.2332 8.55691 46.5325 7.64372 45.7554 6.79771C41.6656 2.2659 35.6717 0 27.7736 0H0V67H17.0257V44.0002ZM31.647 15.4135C33.2499 17.0234 34.0502 19.1776 34.0479 21.8762C34.0455 24.5748 33.3476 26.7302 31.9541 28.3424C30.4094 30.1151 27.5665 31.0003 23.4256 30.998H17.0257V12.9987H23.4535C27.313 12.9987 30.0442 13.8036 31.647 15.4135ZM131.505 54.9993L136.666 42.0006H151.563L144.493 22.281L153.336 0L178.667 67H159.987L155.66 54.9993H131.505Z" fill="#4760FF"/>
</g>
<defs>
<clipPath id="clip0_852451_236">
<rect width="178.667" height="67" fill="white"/>
</clipPath>
</defs>
</svg>
