<svg width="68" height="67" viewBox="0 0 68 67" fill="none" xmlns="http://www.w3.org/2000/svg">
<g clip-path="url(#clip0_852451_182)">
<path d="M56.1453 44.9162C51.2793 44.9162 47.162 47.9106 45.6648 52.4022H29.9441C29.9441 49.7821 29.1955 47.5363 28.0726 45.6648L54.6481 18.3408C55.771 18.3408 56.8939 18.7151 58.0168 18.7151C63.257 18.7151 67.3743 14.5978 67.3743 9.35754C67.3743 4.11732 63.257 0 58.0168 0C52.7765 0 48.6592 4.11732 48.6592 9.35754C48.6592 10.4804 49.0335 11.9777 49.4078 13.1006L23.2067 40.0503C20.9609 38.1788 17.9665 37.4302 14.9721 37.4302V21.7095C19.4637 20.2123 22.4581 16.095 22.4581 11.2291C22.4581 4.86592 17.5922 0 11.2291 0C4.86592 0 0 4.86592 0 11.2291C0 16.095 2.99441 20.2123 7.48603 21.7095V39.3017C2.99441 41.9218 0 46.7877 0 52.0279C0 60.2626 6.73743 67 14.9721 67C20.5866 67 25.4525 64.0056 27.6983 59.514H45.2905C46.7877 63.6313 50.905 67 55.771 67C61.7598 67 67 62.1341 67 55.771C67.3743 49.7821 62.1341 44.9162 56.1453 44.9162Z" fill="#4760FF"/>
</g>
<defs>
<clipPath id="clip0_852451_182">
<rect width="67.3743" height="67" fill="white"/>
</clipPath>
</defs>
</svg>
