<svg width="180" height="192" viewBox="0 0 180 192" fill="none" xmlns="http://www.w3.org/2000/svg">
<path d="M41.9707 10.4458H162.759V147.095H90.2858C63.6021 147.095 41.9707 125.463 41.9707 98.7796V10.4458Z" fill="black"/>
<rect x="134.941" y="18.2544" width="40.0186" height="131.769" fill="black"/>
<rect x="72.4729" y="136.602" width="67.3484" height="13.4209" fill="black"/>
<rect x="41.9707" y="101.464" width="67.3484" height="17.8132" fill="black"/>
<rect x="6.83252" y="121.473" width="62.4681" height="62.4681" rx="31.2341" fill="black"/>
<path d="M32.6531 116.82V5.68813C32.6531 3.05965 34.7835 0.929199 37.412 0.929199H143.187C163.445 0.929199 180 17.484 180 37.7417V153.932C180 156.563 177.87 158.693 175.241 158.693H74.5266C72.1609 177.335 56.2356 191.346 37.412 191.346C16.7508 191.346 0 174.595 0 153.932C0 135.111 14.0139 119.185 32.6531 116.82ZM19.0219 161.605C14.595 157.178 21.3276 150.448 25.7545 154.875L32.2311 161.352L48.4585 136.423C51.8525 131.196 59.8117 136.365 56.4177 141.592L37.193 171.121C35.692 173.899 31.906 174.489 29.6395 172.223L19.0219 161.605ZM74.5266 149.173H170.48V37.7417C170.48 22.741 158.188 10.4494 143.187 10.4494H42.1732V116.82C59.0278 118.959 72.3869 132.316 74.5266 149.173ZM37.412 126.04C22.0077 126.04 9.52016 138.528 9.52016 153.932C9.52016 169.339 22.0077 181.826 37.412 181.826C52.8186 181.826 65.3062 169.339 65.3062 153.932C65.3062 138.528 52.8186 126.04 37.412 126.04ZM136.174 67.4366H157.409C160.037 67.4366 162.168 69.5694 162.168 72.1978V122.28C162.168 124.908 160.037 127.041 157.409 127.041H136.174C133.545 127.041 131.412 124.908 131.412 122.28V72.1978C131.412 69.5694 133.545 67.4366 136.174 67.4366ZM152.648 76.9568H140.933V117.518H152.648V76.9568ZM113.338 39.2958C107.076 39.2958 107.076 29.7756 113.338 29.7756H149.397C155.659 29.7756 155.659 39.2958 149.397 39.2958H113.338ZM113.338 55.3225C107.076 55.3225 107.076 45.8024 113.338 45.8024H149.397C155.659 45.8024 155.659 55.3225 149.397 55.3225H113.338ZM54.4418 105.805C48.1795 105.805 48.1795 96.2853 54.4418 96.2853H120.149C126.409 96.2853 126.409 105.805 120.149 105.805H54.4418ZM54.4418 92.1835C48.1795 92.1835 48.1795 82.6633 54.4418 82.6633H120.149C126.409 82.6633 126.409 92.1835 120.149 92.1835H54.4418ZM54.4418 78.5615C48.1795 78.5615 48.1795 69.039 54.4418 69.039H101.717C107.98 69.039 107.98 78.5615 101.717 78.5615H54.4418ZM55.4424 20.1609H90.7009C93.3294 20.1609 95.4599 22.2913 95.4599 24.9198V60.1783C95.4599 62.8068 93.3294 64.9395 90.7009 64.9395H55.4424C52.814 64.9395 50.6835 62.8068 50.6835 60.1783V24.9198C50.6835 22.2913 52.814 20.1609 55.4424 20.1609ZM85.9397 29.6811H60.2037V55.4194H85.9397V29.6811Z" fill="#4760FF"/>
</svg>
