<svg width="67" height="67" viewBox="0 0 67 67" fill="none" xmlns="http://www.w3.org/2000/svg">
<g clip-path="url(#clip0_852451_213)">
<path d="M67 3.72222V14.8889H0V3.72222C0 2.73503 0.392161 1.78827 1.09021 1.09021C1.78827 0.392161 2.73503 0 3.72222 0H63.2778C64.265 0 65.2117 0.392161 65.9098 1.09021C66.6078 1.78827 67 2.73503 67 3.72222ZM0 22.3333H67V63.2778C67 64.265 66.6078 65.2117 65.9098 65.9098C65.2117 66.6078 64.265 67 63.2778 67H3.72222C3.12143 66.988 2.53305 66.8268 2.01 66.531L15.3616 53.1794L23.9897 58.9302C24.7058 59.4077 25.5652 59.6223 26.4216 59.5374C27.2781 59.4526 28.0787 59.0736 28.6872 58.4649L36.1316 51.0205C36.8096 50.3185 37.1848 49.3782 37.1763 48.4023C37.1679 47.4263 36.7764 46.4928 36.0863 45.8026C35.3961 45.1125 34.4626 44.721 33.4866 44.7125C32.5106 44.7041 31.5704 45.0792 30.8684 45.7573L25.5828 51.0428L16.9547 45.292C16.2387 44.8145 15.3793 44.5999 14.5228 44.6848C13.6664 44.7696 12.8658 45.1486 12.2573 45.7573L0 58.0146V22.3333ZM42.0351 39.8538C42.7331 40.5516 43.6797 40.9437 44.6667 40.9437C45.6537 40.9437 46.6003 40.5516 47.2983 39.8538L51.0205 36.1316C51.6985 35.4296 52.0737 34.4894 52.0652 33.5134C52.0568 32.5374 51.6653 31.6039 50.9752 30.9137C50.285 30.2236 49.3514 29.8321 48.3755 29.8237C47.3995 29.8152 46.4593 30.1904 45.7573 30.8684L42.0351 34.5906C41.3372 35.2886 40.9452 36.2352 40.9452 37.2222C40.9452 38.2092 41.3372 39.1558 42.0351 39.8538Z" fill="#4760FF"/>
</g>
<defs>
<clipPath id="clip0_852451_213">
<rect width="67" height="67" fill="white"/>
</clipPath>
</defs>
</svg>
