<svg width="80" height="80" viewBox="0 0 80 80" fill="none" xmlns="http://www.w3.org/2000/svg">
<g clip-path="url(#clip0_803_8)">
<path d="M1.01302 66.8549C0.262382 66.104 -0.159301 65.0857 -0.159301 64.024C-0.159301 62.9623 0.262382 61.9441 1.01302 61.1932L13.025 49.1812C13.6796 48.5264 14.5408 48.1187 15.4621 48.0275C16.3834 47.9362 17.3078 48.1671 18.0781 48.6807L27.3594 54.8669L37.0491 45.1772C37.8042 44.4478 38.8156 44.0442 39.8655 44.0534C40.9153 44.0625 41.9196 44.4836 42.6619 45.226C43.4043 45.9683 43.8254 46.9726 43.8345 48.0224C43.8437 49.0723 43.4401 50.0837 42.7107 50.8388L30.6987 62.8509C30.0442 63.5056 29.183 63.9133 28.2617 64.0045C27.3404 64.0958 26.4159 63.865 25.6456 63.3514L16.3644 57.1652L6.67468 66.8549C5.92382 67.6055 4.90557 68.0272 3.84385 68.0272C2.78213 68.0272 1.76388 67.6055 1.01302 66.8549ZM79.9199 3.96396V76.036C79.9199 77.098 79.4981 78.1164 78.7472 78.8673C77.9963 79.6182 76.9778 80.04 75.9159 80.04H3.84385C2.78192 80.04 1.76349 79.6182 1.01259 78.8673C0.261693 78.1164 -0.160156 77.098 -0.160156 76.036C-0.160156 74.9741 0.261693 73.9557 1.01259 73.2048C1.76349 72.4539 2.78192 72.032 3.84385 72.032H71.9119V23.984H7.84785V40C7.84785 41.0619 7.426 42.0804 6.67511 42.8313C5.92421 43.5822 4.90578 44.004 3.84385 44.004C2.78192 44.004 1.76349 43.5822 1.01259 42.8313C0.261693 42.0804 -0.160156 41.0619 -0.160156 40V3.96396C-0.160156 2.90204 0.261693 1.8836 1.01259 1.13271C1.76349 0.38181 2.78192 -0.0400391 3.84385 -0.0400391H75.9159C76.9778 -0.0400391 77.9963 0.38181 78.7472 1.13271C79.4981 1.8836 79.9199 2.90204 79.9199 3.96396ZM7.84785 15.976H71.9119V7.96797H7.84785V15.976ZM50.7187 42.8308L54.7227 38.8268C55.4521 38.0717 55.8557 37.0602 55.8465 36.0104C55.8374 34.9606 55.4163 33.9563 54.674 33.2139C53.9316 32.4716 52.9273 32.0505 51.8775 32.0413C50.8276 32.0322 49.8162 32.4358 49.0611 33.1652L45.0571 37.1692C44.6746 37.5385 44.3696 37.9803 44.1598 38.4689C43.9499 38.9574 43.8395 39.4828 43.8348 40.0144C43.8302 40.5461 43.9315 41.0733 44.1329 41.5654C44.3342 42.0575 44.6315 42.5045 45.0074 42.8805C45.3834 43.2564 45.8304 43.5537 46.3225 43.755C46.8146 43.9564 47.3418 44.0577 47.8735 44.0531C48.4051 44.0484 48.9305 43.938 49.419 43.7281C49.9075 43.5183 50.3494 43.2133 50.7187 42.8308Z" fill="url(#paint0_linear_803_8)"/>
</g>
<defs>
<linearGradient id="paint0_linear_803_8" x1="39.8799" y1="-0.0400391" x2="39.8799" y2="80.04" gradientUnits="userSpaceOnUse">
<stop stop-color="#4760FF"/>
<stop offset="1" stop-color="#4760FF"/>
</linearGradient>
<clipPath id="clip0_803_8">
<rect width="79.8799" height="80" fill="white"/>
</clipPath>
</defs>
</svg>
