<svg width="56" height="67" viewBox="0 0 56 67" fill="none" xmlns="http://www.w3.org/2000/svg">
<path d="M53.6 23.7292H37.9667C34.3375 23.7292 32.1042 21.4958 32.1042 17.8667V2.23333C32.1042 0.977083 31.1271 0 29.8708 0H6.7C3.07083 0 0 3.07083 0 6.7V60.3C0 63.9292 3.07083 67 6.7 67H49.1333C52.7625 67 55.8333 63.9292 55.8333 60.3V25.9625C55.8333 24.7063 54.8562 23.7292 53.6 23.7292Z" fill="#4760FF"/>
<path d="M55.4146 15.2146L40.6187 0.41875C40.3396 0.139583 39.7813 0 39.3625 0C38.525 0 37.6875 0.697917 37.6875 1.53542V13.4C37.6875 15.9125 39.9208 18.1458 42.4333 18.1458H54.2979C55.1354 18.1458 55.8333 17.3083 55.8333 16.4708C55.8333 16.0521 55.6938 15.4937 55.4146 15.2146Z" fill="#4760FF"/>
</svg>
