<svg width="59" height="67" viewBox="0 0 59 67" fill="none" xmlns="http://www.w3.org/2000/svg">
<path d="M3.65472 13.8035H55.2269C57.1566 13.8035 58.8816 15.5285 58.8816 17.4582V25.9859C58.8816 28.0163 57.1566 29.6406 55.2269 29.6406H3.65472C1.62432 29.6406 0 28.0163 0 25.9859V17.4582C0 15.5285 1.62432 13.8035 3.65472 13.8035ZM54.4148 22.5358V20.9115C54.4148 20.3008 53.804 19.6933 53.1965 19.6933H46.6992C45.9878 19.6933 45.481 20.304 45.481 20.9115V22.5358C45.481 23.2473 45.9878 23.7541 46.6992 23.7541H53.1965C53.8073 23.7541 54.4148 23.2473 54.4148 22.5358ZM3.65472 32.4832H55.2269C57.1566 32.4832 58.8816 34.1075 58.8816 36.1379V44.6656C58.8816 46.696 57.1566 48.3203 55.2269 48.3203H3.65472C1.62432 48.3203 0 46.696 0 44.6656V36.1379C0 34.1075 1.62432 32.4832 3.65472 32.4832ZM54.4148 41.2155V39.5912C54.4148 38.9805 53.804 38.373 53.1965 38.373H46.6992C45.9878 38.373 45.481 38.9837 45.481 39.5912V41.2155C45.481 41.927 45.9878 42.4338 46.6992 42.4338H53.1965C53.8073 42.4338 54.4148 41.927 54.4148 41.2155ZM3.65472 51.1629H55.2269C57.1566 51.1629 58.8816 52.7872 58.8816 54.8176V63.3453C58.8816 65.3757 57.1566 67 55.2269 67H3.65472C1.62432 67 0 65.3757 0 63.3453V54.8176C0 52.7872 1.62432 51.1629 3.65472 51.1629ZM54.4148 59.8952V58.2709C54.4148 57.5594 53.804 57.0527 53.1965 57.0527H46.6992C45.9878 57.0527 45.481 57.5594 45.481 58.2709V59.8952C45.481 60.6067 45.9878 61.1135 46.6992 61.1135H53.1965C53.8073 61.1135 54.4148 60.6067 54.4148 59.8952ZM55.2269 11.0649H3.65472C3.04398 11.0649 2.43648 11.1656 1.92969 11.3702L8.1216 2.94327C9.33985 1.31895 11.981 0 14.0114 0H44.8735C46.8032 0 49.4411 1.31895 50.6593 2.94327L56.9552 11.3702C56.3444 11.1656 55.7337 11.0649 55.2269 11.0649Z" fill="#4760FF"/>
</svg>
