<svg width="49" height="49" viewBox="0 0 49 49" fill="none" xmlns="http://www.w3.org/2000/svg">
<g clip-path="url(#clip0_595_261)">
<path d="M36.5868 13.5432L25.4265 0.759927C25.1222 0.413521 24.5402 0.413521 24.2358 0.759927L13.0067 13.5432C12.8795 13.6891 12.7656 13.8759 12.7656 14.0695V47.6256C12.7656 48.0667 13.2228 48.5001 13.6644 48.5001H36.0351C36.4767 48.5001 36.7342 48.0667 36.7342 47.6256V14.0695C36.7343 13.8759 36.714 13.6891 36.5868 13.5432ZM35.1363 46.9023H14.3636V14.3699L24.75 2.49946L35.1363 14.3698V46.9023Z" fill="#4760FF"/>
<path d="M28.4928 20.8247C28.3984 20.5356 28.1488 20.3245 27.8476 20.2808L26.1631 20.0362L25.4101 18.5097C25.2759 18.237 24.9982 18.0642 24.6939 18.0642C24.3896 18.0642 24.1118 18.237 23.9776 18.5097L23.224 20.0362L21.5395 20.2808C21.2384 20.3245 20.9886 20.5356 20.8942 20.8247C20.8006 21.1142 20.8786 21.4317 21.0962 21.644L22.3157 22.8319L22.0278 24.5097C21.9764 24.8093 22.0996 25.1124 22.3454 25.2911C22.4851 25.3922 22.6497 25.4436 22.8151 25.4436C22.9423 25.4436 23.0701 25.4133 23.1872 25.352L24.6939 24.5597L26.1997 25.352C26.4689 25.4936 26.795 25.4706 27.0416 25.2911C27.2873 25.1124 27.4106 24.8093 27.3591 24.5097L27.0712 22.8319L28.2907 21.644C28.5084 21.4317 28.5864 21.1142 28.4928 20.8247ZM25.6551 21.9806C25.4671 22.1644 25.3813 22.4288 25.4257 22.6879L25.5107 23.1837L25.066 22.9496C24.8319 22.8271 24.5557 22.8271 24.3216 22.9496L23.8761 23.1841L23.9611 22.6879C24.0056 22.4288 23.9198 22.1644 23.7317 21.9806L23.3713 21.6295L23.8691 21.5573C24.1297 21.5195 24.3544 21.3561 24.4707 21.12L24.6938 20.6691L24.9162 21.12C25.0324 21.3561 25.2571 21.5195 25.5178 21.5573L26.0156 21.6295L25.6551 21.9806Z" fill="#4760FF"/>
<path d="M28.4928 28.8142C28.3984 28.5251 28.1488 28.314 27.8476 28.2703L26.1631 28.0257L25.4101 26.4992C25.2759 26.2265 24.9982 26.0537 24.6939 26.0537C24.3896 26.0537 24.1118 26.2265 23.9776 26.4992L23.224 28.0257L21.5395 28.2703C21.2384 28.314 20.9886 28.5251 20.8942 28.8142C20.8006 29.1037 20.8786 29.4212 21.0962 29.6335L22.3157 30.8214L22.0278 32.4992C21.9764 32.7988 22.0996 33.1019 22.3454 33.2806C22.4851 33.3817 22.6497 33.4331 22.8151 33.4331C22.9423 33.4331 23.0701 33.4028 23.1872 33.3415L24.6939 32.5492L26.1997 33.3415C26.4689 33.4831 26.795 33.4601 27.0416 33.2806C27.2873 33.1019 27.4106 32.7988 27.3591 32.4992L27.0712 30.8214L28.2907 29.6335C28.5084 29.4212 28.5864 29.1036 28.4928 28.8142ZM25.6551 29.97C25.4671 30.1538 25.3813 30.4182 25.4257 30.6773L25.5107 31.1731L25.066 30.939C24.8319 30.8165 24.5557 30.8165 24.3216 30.939L23.8761 31.1735L23.9611 30.6773C24.0056 30.4182 23.9198 30.1538 23.7317 29.97L23.3713 29.6189L23.8691 29.5467C24.1297 29.5089 24.3544 29.3455 24.4707 29.1094L24.6938 28.6585L24.9162 29.1094C25.0324 29.3455 25.2571 29.5089 25.5178 29.5467L26.0156 29.6189L25.6551 29.97Z" fill="#4760FF"/>
<path d="M28.4928 36.8037C28.3984 36.5147 28.1488 36.3035 27.8476 36.2598L26.1631 36.0152L25.4101 34.4887C25.2759 34.216 24.9982 34.0432 24.6939 34.0432C24.3896 34.0432 24.1118 34.216 23.9776 34.4887L23.224 36.0152L21.5395 36.2598C21.2384 36.3035 20.9886 36.5146 20.8942 36.8037C20.8006 37.0932 20.8786 37.4107 21.0962 37.623L22.3157 38.8109L22.0278 40.4887C21.9764 40.7883 22.0996 41.0914 22.3454 41.2701C22.4851 41.3712 22.6497 41.4226 22.8151 41.4226C22.9423 41.4226 23.0701 41.3923 23.1872 41.331L24.6939 40.5387L26.1997 41.331C26.4689 41.4726 26.795 41.4496 27.0416 41.2701C27.2873 41.0914 27.4106 40.7883 27.3591 40.4887L27.0712 38.8109L28.2907 37.623C28.5084 37.4107 28.5864 37.0932 28.4928 36.8037ZM25.6551 37.9596C25.4671 38.1434 25.3813 38.4078 25.4257 38.6669L25.5107 39.1627L25.066 38.9286C24.8319 38.8061 24.5557 38.8061 24.3216 38.9286L23.8761 39.1631L23.9611 38.6669C24.0056 38.4078 23.9198 38.1434 23.7317 37.9596L23.3713 37.6085L23.8691 37.5363C24.1297 37.4985 24.3544 37.3351 24.4707 37.099L24.6938 36.6481L24.9162 37.099C25.0324 37.3351 25.2571 37.4985 25.5178 37.5363L26.0156 37.6085L25.6551 37.9596Z" fill="#4760FF"/>
<path d="M24.8499 6.87891C23.0874 6.87891 21.6541 8.31253 21.6541 10.0747C21.6541 11.837 23.0873 13.2706 24.8499 13.2706C26.6124 13.2706 28.0457 11.837 28.0457 10.0747C28.0457 8.31253 26.6125 6.87891 24.8499 6.87891ZM24.8499 11.6726C23.969 11.6726 23.252 10.956 23.252 10.0747C23.252 9.1935 23.969 8.47687 24.8499 8.47687C25.7308 8.47687 26.4478 9.1935 26.4478 10.0747C26.4479 10.956 25.7308 11.6726 24.8499 11.6726Z" fill="#4760FF"/>
</g>
<defs>
<clipPath id="clip0_595_261">
<rect width="48" height="48" fill="white" transform="translate(0.75 0.500122)"/>
</clipPath>
</defs>
</svg>
