<svg width="65" height="65" viewBox="0 0 65 65" fill="none" xmlns="http://www.w3.org/2000/svg">
<g clip-path="url(#clip0_467_140)">
<path d="M64.8036 32.4054C64.8036 38.8139 62.9033 45.0784 59.3429 50.4069C55.7826 55.7353 50.7221 59.8883 44.8014 62.3407C38.8808 64.7932 32.3659 65.4348 26.0805 64.1846C19.7952 62.9344 14.0218 59.8484 9.49028 55.3169C4.95881 50.7855 1.87284 45.012 0.622606 38.7267C-0.627624 32.4413 0.0140391 25.9264 2.46645 20.0058C4.91887 14.0851 9.07189 9.02466 14.4003 5.46431C19.7288 1.90396 25.9933 0.00362419 32.4018 0.00362419C32.9389 0.00362419 33.454 0.216984 33.8338 0.596766C34.2136 0.976548 34.4269 1.49164 34.4269 2.02874C34.4269 2.56583 34.2136 3.08092 33.8338 3.46071C33.454 3.84049 32.9389 4.05385 32.4018 4.05385C26.7944 4.05385 21.3129 5.71664 16.6505 8.83195C11.9881 11.9473 8.35423 16.3752 6.20837 21.5557C4.06251 26.7363 3.50105 32.4369 4.59501 37.9365C5.68896 43.4362 8.38918 48.4879 12.3542 52.453C16.3193 56.418 21.371 59.1182 26.8707 60.2122C32.3704 61.3061 38.0709 60.7447 43.2515 58.5988C48.432 56.453 52.86 52.8191 55.9753 48.1567C59.0906 43.4943 60.7534 38.0128 60.7534 32.4054C60.7534 31.8683 60.9667 31.3532 61.3465 30.9734C61.7263 30.5937 62.2414 30.3803 62.7785 30.3803C63.3156 30.3803 63.8307 30.5937 64.2104 30.9734C64.5902 31.3532 64.8036 31.8683 64.8036 32.4054ZM32.4018 16.2045C32.9389 16.2045 33.454 15.9912 33.8338 15.6114C34.2136 15.2316 34.4269 14.7165 34.4269 14.1794C34.4269 13.6423 34.2136 13.1272 33.8338 12.7474C33.454 12.3677 32.9389 12.1543 32.4018 12.1543C28.3965 12.1543 24.4812 13.342 21.1509 15.5672C17.8206 17.7924 15.225 20.9552 13.6922 24.6556C12.1595 28.356 11.7584 32.4279 12.5398 36.3562C13.3212 40.2845 15.2499 43.8929 18.0821 46.7251C20.9143 49.5573 24.5227 51.486 28.451 52.2674C32.3793 53.0488 36.4512 52.6478 40.1516 51.115C43.852 49.5822 47.0148 46.9866 49.24 43.6563C51.4652 40.326 52.6529 36.4107 52.6529 32.4054C52.6529 31.8683 52.4396 31.3532 52.0598 30.9734C51.68 30.5937 51.1649 30.3803 50.6278 30.3803C50.0907 30.3803 49.5756 30.5937 49.1958 30.9734C48.8161 31.3532 48.6027 31.8683 48.6027 32.4054C48.6027 35.6096 47.6525 38.7419 45.8724 41.4061C44.0922 44.0704 41.562 46.1469 38.6016 47.3731C35.6413 48.5993 32.3838 48.9201 29.2412 48.295C26.0985 47.6699 23.2118 46.1269 20.946 43.8612C18.6803 41.5954 17.1373 38.7087 16.5122 35.566C15.8871 32.4234 16.2079 29.1659 17.4341 26.2056C18.6603 23.2453 20.7368 20.715 23.4011 18.9349C26.0653 17.1547 29.1976 16.2045 32.4018 16.2045ZM35.1195 35.3661C34.7788 35.6912 34.3841 35.9543 33.953 36.1438C33.4618 36.3496 32.9345 36.4556 32.4018 36.4556C31.8692 36.4556 31.3418 36.3496 30.8506 36.1438C30.4195 35.9543 30.0248 35.6912 29.6841 35.3661C29.6395 35.3256 29.5828 35.3135 29.5383 35.2689C29.4937 35.2244 29.4897 35.1798 29.4532 35.1393C28.7431 34.4064 28.346 33.4259 28.346 32.4054C28.346 31.3849 28.7431 30.4044 29.4532 29.6715C29.4897 29.631 29.4978 29.5784 29.5383 29.5419L34.4715 24.6087C33.798 24.4166 33.1021 24.3145 32.4018 24.305C30.6716 24.2763 28.9763 24.7932 27.5565 25.7822C26.1366 26.7713 25.0642 28.1824 24.4915 29.8153C23.9187 31.4482 23.8747 33.2199 24.3656 34.8792C24.8566 36.5385 25.8576 38.0011 27.2266 39.0595C28.5956 40.1179 30.2631 40.7183 31.9925 40.7756C33.722 40.8329 35.4256 40.3442 36.8616 39.3787C38.2977 38.4132 39.3933 37.0201 39.9929 35.3969C40.5926 33.7738 40.666 32.0029 40.2025 30.3357L35.2653 35.2689C35.237 35.3135 35.1641 35.3256 35.1195 35.3661ZM36.452 22.6282V14.1794C36.4516 13.9133 36.5035 13.6497 36.605 13.4037C36.7065 13.1576 36.8554 12.934 37.0434 12.7456L49.194 0.594957C49.4773 0.311008 49.8384 0.117551 50.2317 0.0391116C50.6251 -0.0393282 51.0328 0.000781587 51.4033 0.154356C51.7738 0.30793 52.0903 0.568053 52.3128 0.901748C52.5353 1.23544 52.6536 1.62768 52.6529 2.02874V9.29078L57.2945 4.64518C57.6747 4.26492 58.1905 4.05129 58.7283 4.05129C59.266 4.05129 59.7818 4.26492 60.162 4.64518C60.5423 5.02544 60.7559 5.54119 60.7559 6.07896C60.7559 6.61673 60.5423 7.13248 60.162 7.51274L55.5164 12.1543H62.7785C63.1795 12.1536 63.5718 12.272 63.9055 12.4944C64.2392 12.7169 64.4993 13.0334 64.6529 13.4039C64.8064 13.7744 64.8465 14.1822 64.7681 14.5755C64.6897 14.9688 64.4962 15.33 64.2123 15.6132L52.0616 27.7639C51.8732 27.9518 51.6496 28.1007 51.4036 28.2022C51.1575 28.3037 50.8939 28.3557 50.6278 28.3552H39.3155L33.8356 33.8392C33.4553 34.2194 32.9396 34.4331 32.4018 34.4331C31.864 34.4331 31.3483 34.2194 30.968 33.8392C30.5878 33.4589 30.3741 32.9432 30.3741 32.4054C30.3741 31.8676 30.5878 31.3519 30.968 30.9716L36.452 25.4917V22.6282ZM40.5023 15.0178V21.4415L48.6027 13.341V6.91735L40.5023 15.0178ZM43.3658 24.305H49.7894L57.8899 16.2045H51.4662L43.3658 24.305Z" fill="url(#paint0_linear_467_140)"/>
</g>
<defs>
<linearGradient id="paint0_linear_467_140" x1="32.4036" y1="0" x2="32.4036" y2="64.8072" gradientUnits="userSpaceOnUse">
<stop stop-color="#4760FF"/>
<stop offset="1" stop-color="#4760FF"/>
</linearGradient>
<clipPath id="clip0_467_140">
<rect width="64.8076" height="64.8076" fill="white"/>
</clipPath>
</defs>
</svg>
