<svg width="67" height="67" viewBox="0 0 67 67" fill="none" xmlns="http://www.w3.org/2000/svg">
<path fill-rule="evenodd" clip-rule="evenodd" d="M0 33.5V67H33.5H67V33.5V0H33.5H0V33.5ZM14.816 33.7222L14.7948 36.4661H19.1551H23.5154V48.8557V61.2454H26.5995H29.6837V48.8557V36.4661H34.044H38.4043V33.7754C38.4043 32.2865 38.3724 31.0422 38.3299 31.0103C38.2979 30.9678 32.9911 30.9465 26.557 30.9572L14.8479 30.9891L14.816 33.7222ZM58.2529 33.3253C57.0618 32.0916 55.7644 31.3366 54.0628 30.9112C52.9036 30.624 50.1598 30.5389 48.9793 30.7623C45.3421 31.4535 42.8217 33.7826 42.1091 37.1219C41.9071 38.0791 41.9709 40.4507 42.2261 41.3972C42.5345 42.5351 43.279 43.8964 44.0659 44.7472C45.4272 46.2148 46.9161 47.14 50.3724 48.6289C53.3928 49.937 54.4563 50.5645 54.9774 51.3089C55.3815 51.8939 55.4772 52.2342 55.4772 53.0105C55.4772 53.8719 55.222 54.4569 54.6051 55.0205C53.1588 56.318 50.2236 56.4775 48.0859 55.3502C47.3415 54.9567 46.1078 53.7762 45.5442 52.9148L45.1401 52.3192L43.2151 53.4359C42.1517 54.0527 41.0244 54.7015 40.7266 54.8716C40.4182 55.0524 40.1417 55.2226 40.1097 55.2651C40.0353 55.3927 41.237 57.1688 41.8539 57.8494C43.4278 59.5935 45.9802 60.9229 48.6709 61.4015C49.9045 61.6248 52.627 61.6567 53.7756 61.4546C57.4872 60.8272 60.1247 58.9342 61.1882 56.1478C62.1559 53.5848 61.8369 50.1391 60.4118 47.9802C59.1356 46.0446 57.0831 44.6834 52.2867 42.6202C49.6812 41.4929 48.8517 40.9399 48.405 40.0146C48.1923 39.5893 48.1178 39.2808 48.1178 38.7597C48.1072 36.9837 49.4153 35.9202 51.4466 36.0585C52.8291 36.1542 53.7331 36.6966 54.5945 37.9515C54.8817 38.3769 55.1369 38.6534 55.2007 38.6108C56.9661 37.5154 59.8801 35.5586 59.8588 35.4735C59.7844 35.1864 58.8698 33.9846 58.2529 33.3253Z" fill="#4760FF"/>
</svg>
