<svg width="68" height="68" viewBox="0 0 68 68" fill="none" xmlns="http://www.w3.org/2000/svg">
<g clip-path="url(#clip0_767_785)">
<path d="M0.142334 33.6138C0.142334 46.8472 7.83163 58.2848 18.9869 63.7033L3.03851 20.0082C1.18384 24.1647 0.142334 28.7684 0.142334 33.6138ZM56.1453 31.9275C56.1453 27.7939 54.6612 24.9336 53.3894 22.7085C51.6949 19.9527 50.1064 17.6215 50.1064 14.8674C50.1064 11.7932 52.4361 8.93305 55.7191 8.93305C55.8693 8.93305 56.0097 8.95097 56.1518 8.95909C50.206 3.50971 42.2801 0.180908 33.5752 0.180908C21.8943 0.180908 11.6191 6.17401 5.64065 15.2492C6.42594 15.2754 7.16543 15.2918 7.79237 15.2918C11.2893 15.2918 16.7044 14.8673 16.7044 14.8673C18.505 14.7596 18.719 17.4075 16.9182 17.6213C16.9182 17.6213 15.1061 17.8336 13.0915 17.938L25.2669 54.1529L32.5824 32.2098L27.3746 17.938C25.5722 17.8336 23.8678 17.6213 23.8678 17.6213C22.067 17.5135 22.2777 14.7594 24.08 14.8673C24.08 14.8673 29.5997 15.2918 32.886 15.2918C36.3812 15.2918 41.7964 14.8673 41.7964 14.8673C43.5988 14.7596 43.811 17.4075 42.0087 17.6213C42.0087 17.6213 40.195 17.8336 38.1837 17.938L50.2662 53.877L53.6014 42.7364C55.2963 38.3907 56.1453 34.7876 56.1453 31.9275ZM34.1629 36.5377L24.131 65.6886C27.1267 66.5684 30.2955 67.05 33.5752 67.05C37.4706 67.05 41.2042 66.3774 44.6782 65.1547C44.59 65.011 44.5068 64.8592 44.4399 64.6927L34.1629 36.5377ZM62.9137 17.5757C63.0574 18.6401 63.1391 19.7829 63.1391 21.0122C63.1391 24.4045 62.5023 28.2199 60.5971 32.987L50.3855 62.5116C60.3246 56.716 67.0081 45.9494 67.0081 33.6138C67.0081 27.8019 65.5226 22.3362 62.9137 17.5757Z" fill="#4760FF"/>
</g>
<defs>
<clipPath id="clip0_767_785">
<rect width="67" height="67" fill="white" transform="translate(0.0751953 0.115479)"/>
</clipPath>
</defs>
</svg>
