<svg width="55" height="68" viewBox="0 0 55 68" fill="none" xmlns="http://www.w3.org/2000/svg">
<g clip-path="url(#clip0_852451_189)">
<path d="M44.1174 0.5H21.8561H20.1319L18.9131 1.71882L2.06013 18.5719L0.841309 19.7908V21.515V56.26C0.841309 62.4575 5.88306 67.5001 12.0815 67.5001H44.1174C50.316 67.5001 55.3576 62.4575 55.3576 56.26V11.7403C55.3576 5.54175 50.3158 0.5 44.1174 0.5ZM51.1948 56.2598C51.1948 60.1695 48.0262 63.3382 44.1174 63.3382H12.0815C8.17179 63.3382 5.00316 60.1695 5.00316 56.2598V21.5148H15.9583C19.2146 21.5148 21.8561 18.8744 21.8561 15.617V4.66185H44.1173C48.0261 4.66185 51.1947 7.83048 51.1947 11.7403L51.1948 56.2598Z" fill="#5541D5"/>
<path d="M17.8928 39.4625L20.6475 35.445C20.8256 35.1791 20.9134 34.9124 20.9134 34.6456C20.9134 33.9877 20.3981 33.4724 19.6872 33.4724C19.2431 33.4724 18.8877 33.6679 18.6036 34.0945L16.4346 37.2943H16.3999L14.2308 34.0945C13.9466 33.6679 13.5911 33.4724 13.1471 33.4724C12.4363 33.4724 11.921 33.9877 11.921 34.6456C11.921 34.9124 12.0087 35.1791 12.1868 35.445L14.9242 39.4625L11.9739 43.7989C11.7965 44.0657 11.707 44.3324 11.707 44.5993C11.707 45.2571 12.2224 45.7724 12.9333 45.7724C13.3773 45.7724 13.7337 45.5769 14.0179 45.1502L16.3999 41.6306H16.4346L18.8166 45.1502C19.1007 45.5769 19.457 45.7724 19.9011 45.7724C20.6119 45.7724 21.1272 45.2571 21.1272 44.5993C21.1272 44.3324 21.0386 44.0656 20.8604 43.7989L17.8928 39.4625Z" fill="#5541D5"/>
<path d="M32.6809 33.4724C31.8988 33.4724 31.4721 33.8991 31.081 34.8237L28.5576 40.6531H28.4862L25.9087 34.8237C25.5003 33.899 25.0736 33.4724 24.2915 33.4724C23.4208 33.4724 22.8516 34.0772 22.8516 35.0367V44.5107C22.8516 45.3101 23.3496 45.7725 24.0612 45.7725C24.7355 45.7725 25.2335 45.3101 25.2335 44.5107V38.6804H25.3222L27.2062 43.0168C27.5799 43.8702 27.8823 44.1197 28.4862 44.1197C29.0902 44.1197 29.3927 43.8702 29.7663 43.0168L31.632 38.6804H31.7215V44.5107C31.7215 45.3101 32.2012 45.7725 32.912 45.7725C33.6229 45.7725 34.1026 45.3101 34.1026 44.5107V35.0367C34.1026 34.0772 33.5517 33.4724 32.6809 33.4724Z" fill="#5541D5"/>
<path d="M43.4374 43.3375H39.1356C39.0644 43.3375 39.0278 43.3019 39.0278 43.2307V34.8585C39.0278 34.0235 38.4778 33.4724 37.7303 33.4724C36.9665 33.4724 36.4165 34.0233 36.4165 34.8585V44.35C36.4165 45.132 36.9318 45.6656 37.7303 45.6656H43.4372C44.2357 45.6656 44.7511 45.1859 44.7511 44.4925C44.7512 43.8171 44.2359 43.3375 43.4374 43.3375Z" fill="#5541D5"/>
</g>
<defs>
<clipPath id="clip0_852451_189">
<rect width="53.3488" height="67" fill="white" transform="translate(0.880859 0.5)"/>
</clipPath>
</defs>
</svg>
