<svg width="45" height="45" viewBox="0 0 45 45" fill="none" xmlns="http://www.w3.org/2000/svg">
<g clip-path="url(#clip0_666_244)">
<path d="M29.1506 9.16567H39.8945C38.6183 7.61212 37.1352 6.23687 35.492 5.07263H27.4243C28.0919 6.24713 28.666 7.63302 29.1506 9.16567Z" fill="#A24BFF"/>
<path d="M27.4246 5.07248H35.4923C32.1571 2.70894 28.1529 1.22882 23.8165 0.978394H23.1238C25.1648 1.23528 26.1023 2.7458 27.4246 5.07248Z" fill="#CEA0FF"/>
<path d="M44.1618 17.3533C43.7618 15.9266 43.2253 14.5577 42.566 13.2603H30.2056C30.456 14.5744 30.6536 15.9471 30.7999 17.3533H44.1618Z" fill="#A24BFF"/>
<path d="M29.5102 13.2594H42.5655C41.8215 11.796 40.9277 10.4229 39.8946 9.16565H28.4902C28.8924 10.4386 29.2338 11.8117 29.5102 13.2594Z" fill="#CEA0FF"/>
<path d="M31.2731 25.5411H44.8992C44.9639 24.8487 45.0005 24.147 45.0005 23.4379C45.0005 22.7668 44.9653 22.1043 44.9078 21.4478H31.2763C31.3207 22.8091 31.3199 24.1805 31.2731 25.5411Z" fill="#A24BFF"/>
<path d="M44.9077 21.447C44.7844 20.0412 44.5311 18.6735 44.1613 17.354H30.2253C30.3653 18.6944 30.4577 20.0657 30.5028 21.447H44.9077Z" fill="#CEA0FF"/>
<path d="M29.9701 33.7288H42.5067C43.1753 32.4328 43.7202 31.0629 44.1288 29.6351H30.5762C30.427 31.0434 30.2244 32.4158 29.9701 33.7288Z" fill="#A24BFF"/>
<path d="M44.1292 29.6347C44.5069 28.3156 44.7691 26.9478 44.8994 25.5416H30.8483C30.8004 26.924 30.7052 28.295 30.5624 29.6347H44.1292Z" fill="#CEA0FF"/>
<path d="M35.3318 41.9159C36.9987 40.7563 38.5029 39.3797 39.7993 37.8229H29.2426C28.7492 39.3619 28.1633 40.7456 27.4836 41.9159H35.3318Z" fill="#A24BFF"/>
<path d="M28.8452 37.8226H39.7991C40.8443 36.5668 41.7516 35.1936 42.5065 33.7289H29.878C29.5977 35.1776 29.2528 36.5514 28.8452 37.8226Z" fill="#CEA0FF"/>
<path d="M22.5002 45.9379C27.2704 45.9379 31.6902 44.4489 35.3303 41.9177H27.1872C25.742 44.4077 24.7884 45.9379 22.5002 45.9379Z" fill="#CEA0FF"/>
<path d="M28.1697 5.07263H9.50978C7.86635 6.23687 6.38347 7.61202 5.10693 9.16567H29.8956C29.411 7.63302 28.8372 6.24713 28.1697 5.07263Z" fill="#BE81FF"/>
<path d="M9.50928 5.07248H28.1692C26.8466 2.7458 25.1644 1.23528 23.1234 0.978394H21.1847C16.8483 1.22882 12.8441 2.70894 9.50928 5.07248Z" fill="#DFC0FF"/>
<path d="M0.839966 17.3533H31.5093C31.3629 15.9468 31.1654 14.5744 30.9149 13.2603H2.4358C1.77639 14.5578 1.24002 15.9266 0.839966 17.3533Z" fill="#BE81FF"/>
<path d="M5.10677 9.16565C4.07439 10.4229 3.17986 11.796 2.43628 13.2594H30.9151C30.639 11.812 30.2976 10.439 29.8954 9.16565H5.10677Z" fill="#DFC0FF"/>
<path d="M0.000854492 23.4379C0.000854492 24.147 0.0378101 24.8487 0.102126 25.541H31.7843C31.8312 24.1803 31.8319 22.8094 31.7875 21.448H0.0935759C0.036005 22.1043 0.000854492 22.7668 0.000854492 23.4379Z" fill="#BE81FF"/>
<path d="M0.0938721 21.447H31.7874C31.7423 20.0654 31.6496 18.6945 31.5099 17.354H0.839918C0.470078 18.6738 0.216804 20.0412 0.0938721 21.447Z" fill="#DFC0FF"/>
<path d="M31.4981 29.635H0.87207C1.28067 31.0632 1.82598 32.4327 2.49422 33.7287H30.892C31.1464 32.416 31.3484 31.0436 31.4981 29.635Z" fill="#BE81FF"/>
<path d="M0.872106 29.6347H31.4981C31.6406 28.295 31.7361 26.9236 31.7841 25.5416H0.101929C0.232271 26.9481 0.494855 28.3156 0.872106 29.6347Z" fill="#DFC0FF"/>
<path d="M9.66996 41.9159H28.1011C28.7807 40.7453 29.3669 39.3619 29.86 37.8229H5.20251C6.4989 39.3797 8.00268 40.7563 9.66996 41.9159Z" fill="#BE81FF"/>
<path d="M2.49475 33.7289C3.24973 35.1936 4.15699 36.5668 5.2022 37.8226H29.8597C30.2669 36.5515 30.6119 35.1777 30.8921 33.7289H2.49475Z" fill="#DFC0FF"/>
<path d="M21.5486 45.917C21.5941 45.9184 21.6395 45.9205 21.685 45.9219C21.9558 45.9315 22.2272 45.9379 22.5003 45.9379C24.7886 45.9379 26.6544 44.4078 28.1 41.9177H9.67102C13.067 44.2797 17.1434 45.7334 21.5486 45.917Z" fill="#DFC0FF"/>
<path d="M22.0354 0.949219C10.5054 1.18378 1.10782 10.0863 0.0964355 21.4103H22.0358V0.949219H22.0354Z" fill="#7B00FF"/>
<path d="M4.50323 13.6857L4.846 14.7411H5.95656L5.05814 15.3938L5.40128 16.45L4.50323 15.797L3.60547 16.45L3.94795 15.3938L3.0498 14.7411H4.16037L4.50323 13.6857Z" fill="#BE81FF"/>
<path d="M4.50323 17.4144L4.846 18.4706H5.95656L5.05814 19.1232L5.40128 20.1794L4.50323 19.5264L3.60547 20.1794L3.94795 19.1232L3.0498 18.4706H4.16037L4.50323 17.4144Z" fill="#BE81FF"/>
<path d="M8.23262 8.09094L8.57548 9.14679H9.68566L8.78752 9.79983L9.13038 10.8553L8.23262 10.203L7.33447 10.8553L7.67733 9.79983L6.77881 9.14679H7.88938L8.23262 8.09094Z" fill="#BE81FF"/>
<path d="M8.23262 11.8204L8.57548 12.8763H9.68566L8.78752 13.5286L9.13038 14.5848L8.23262 13.9325L7.33447 14.5848L7.67733 13.5286L6.77881 12.8763H7.88938L8.23262 11.8204Z" fill="#BE81FF"/>
<path d="M8.23262 15.55L8.57548 16.6063H9.68566L8.78752 17.2582L9.13038 18.3144L8.23262 17.6615L7.33447 18.3144L7.67733 17.2582L6.77881 16.6063H7.88938L8.23262 15.55Z" fill="#BE81FF"/>
<path d="M1.67164 18.3142L1.3285 17.258L2.22664 16.6057H1.11674L1.09185 16.5287C0.969964 16.9057 0.859857 17.2872 0.758301 17.673L0.773976 17.6613L1.67164 18.3142Z" fill="#BE81FF"/>
<path d="M3.60495 12.7202L4.50271 12.0673L5.40085 12.7202L5.05771 11.664L5.95585 11.011H4.84529L4.50243 9.95557L4.15957 11.011H3.7503C3.6743 11.1262 3.60077 11.242 3.52686 11.3588L3.94752 11.664L3.60495 12.7202Z" fill="#BE81FF"/>
<path d="M8.23252 6.47349L9.13029 7.12577L8.78743 6.0703L9.68519 5.41736H9.04393C8.49929 5.82453 7.97383 6.25546 7.469 6.71014L7.33362 7.12577L8.23252 6.47349Z" fill="#BE81FF"/>
<path d="M11.0638 5.26103L11.962 4.60808L12.8598 5.26103L12.5169 4.2048L13.4147 3.55252H12.3045L12.2579 3.4104C11.8817 3.60259 11.5094 3.80257 11.1455 4.01537L11.4063 4.20471L11.0638 5.26103Z" fill="#BE81FF"/>
<path d="M11.9624 6.2262L12.3052 7.28138H13.4154L12.5173 7.93432L12.8601 8.99055L11.9624 8.33751L11.0642 8.99055L11.4071 7.93432L10.5087 7.28138H11.6191L11.9624 6.2262Z" fill="#BE81FF"/>
<path d="M11.9624 9.95605L12.3052 11.0112H13.4154L12.5173 11.6642L12.8601 12.7204L11.9624 12.0674L11.0642 12.7204L11.4071 11.6642L10.5087 11.0112H11.6191L11.9624 9.95605Z" fill="#BE81FF"/>
<path d="M11.9624 13.6857L12.3052 14.7411H13.4154L12.5173 15.3938L12.8601 16.45L11.9624 15.797L11.0642 16.45L11.4071 15.3938L10.5087 14.7411H11.6191L11.9624 13.6857Z" fill="#BE81FF"/>
<path d="M11.9624 17.4144L12.3052 18.4706H13.4154L12.5173 19.1232L12.8601 20.1794L11.9624 19.5264L11.0642 20.1794L11.4071 19.1232L10.5087 18.4706H11.6191L11.9624 17.4144Z" fill="#BE81FF"/>
<path d="M15.6917 4.36133L16.0346 5.41717H17.1448L16.247 6.07021L16.5895 7.12568L15.6917 6.4734L14.7933 7.12568L15.1365 6.07021L14.238 5.41717H15.3485L15.6917 4.36133Z" fill="#BE81FF"/>
<path d="M15.6917 8.09094L16.0346 9.14679H17.1448L16.247 9.79983L16.5895 10.8553L15.6917 10.203L14.7933 10.8553L15.1365 9.79983L14.238 9.14679H15.3485L15.6917 8.09094Z" fill="#BE81FF"/>
<path d="M15.6917 11.8204L16.0346 12.8763H17.1448L16.247 13.5286L16.5895 14.5848L15.6917 13.9325L14.7933 14.5848L15.1365 13.5286L14.238 12.8763H15.3485L15.6917 11.8204Z" fill="#BE81FF"/>
<path d="M15.6917 15.55L16.0346 16.6063H17.1448L16.247 17.2582L16.5895 18.3144L15.6917 17.6615L14.7933 18.3144L15.1365 17.2582L14.238 16.6063H15.3485L15.6917 15.55Z" fill="#BE81FF"/>
<path d="M19.4212 2.4967L19.7641 3.55255H20.8743L19.9761 4.20483L20.319 5.26106L19.4212 4.60802L18.5228 5.26106L18.866 4.20483L17.9675 3.55255H19.0777L19.4212 2.4967Z" fill="#BE81FF"/>
<path d="M19.4212 6.2262L19.7641 7.28138H20.8743L19.9761 7.93432L20.319 8.99055L19.4212 8.33751L18.5228 8.99055L18.866 7.93432L17.9675 7.28138H19.0777L19.4212 6.2262Z" fill="#BE81FF"/>
<path d="M19.4212 9.95605L19.7641 11.0112H20.8743L19.9761 11.6642L20.319 12.7204L19.4212 12.0674L18.5228 12.7204L18.866 11.6642L17.9675 11.0112H19.0777L19.4212 9.95605Z" fill="#BE81FF"/>
<path d="M19.4212 13.6857L19.7641 14.7411H20.8743L19.9761 15.3938L20.319 16.45L19.4212 15.797L18.5228 16.45L18.866 15.3938L17.9675 14.7411H19.0777L19.4212 13.6857Z" fill="#BE81FF"/>
<path d="M19.4212 17.4144L19.7641 18.4706H20.8743L19.9761 19.1232L20.319 20.1794L19.4212 19.5264L18.5228 20.1794L18.866 19.1232L17.9675 18.4706H19.0777L19.4212 17.4144Z" fill="#BE81FF"/>
</g>
<defs>
<clipPath id="clip0_666_244">
<rect width="45" height="45" fill="white"/>
</clipPath>
</defs>
</svg>
