<svg width="84" height="65" viewBox="0 0 84 65" fill="none" xmlns="http://www.w3.org/2000/svg">
<path d="M19.7103 56.8065C19.0804 56.8065 18.571 56.297 18.571 55.6672C18.571 51.7804 15.4102 48.6196 11.5234 48.6196C7.63672 48.6196 4.47591 51.7804 4.47591 55.6672C4.47591 56.297 3.96647 56.8065 3.33659 56.8065C2.70671 56.8065 2.19727 56.297 2.19727 55.6672V9.33252C2.19727 4.18929 6.38021 0.00634766 11.5234 0.00634766C16.6667 0.00634766 20.8496 4.18929 20.8496 9.33252V55.6672C20.8496 56.297 20.3402 56.8065 19.7103 56.8065ZM11.5234 46.341C14.3343 46.341 16.8604 47.591 18.571 49.5653V9.33252C18.571 5.4458 15.4102 2.28499 11.5234 2.28499C7.63672 2.28499 4.47591 5.4458 4.47591 9.33252V49.5653C6.18652 47.591 8.71257 46.341 11.5234 46.341Z" fill="url(#paint0_linear_802_18)"/>
<path d="M79.9967 64.9935C79.3669 64.9935 78.8574 64.484 78.8574 63.8542V10.472H20.8496V55.6673C20.8496 56.2972 20.3402 56.8066 19.7103 56.8066C19.0804 56.8066 18.571 56.2972 18.571 55.6673C18.571 51.7806 15.4102 48.6198 11.5234 48.6198C7.63672 48.6198 4.47591 51.7806 4.47591 55.6673C4.47591 59.554 7.63672 62.7148 11.5234 62.7148H73.4814C74.1113 62.7148 74.6208 63.2243 74.6208 63.8542C74.6208 64.484 74.1113 64.9935 73.4814 64.9935H11.5234C6.38184 64.9935 2.19727 60.8105 2.19727 55.6673C2.19727 50.5241 6.38184 46.3411 11.5234 46.3411C14.3343 46.3411 16.8604 47.5911 18.571 49.5654V9.33268C18.571 8.7028 19.0804 8.19336 19.7103 8.19336H79.9967C80.6266 8.19336 81.1361 8.7028 81.1361 9.33268V63.8542C81.1361 64.484 80.6266 64.9935 79.9967 64.9935Z" fill="url(#paint1_linear_802_18)"/>
<path d="M36.9954 29.1927H25.8577C25.2278 29.1927 24.7184 28.6833 24.7184 28.0534V16.9157C24.7184 16.2858 25.2278 15.7764 25.8577 15.7764H36.9954C37.6253 15.7764 38.1347 16.2858 38.1347 16.9157V28.0534C38.1347 28.6833 37.6237 29.1927 36.9954 29.1927ZM26.997 26.9141H35.8561V18.055H26.997V26.9141Z" fill="url(#paint2_linear_802_18)"/>
<path d="M46.6357 56.8701H38.1998C37.5699 56.8701 37.0605 56.3607 37.0605 55.7308C37.0605 55.1009 37.5699 54.5915 38.1998 54.5915H45.4964V36.0921H26.997V54.5915H28.5172C29.1471 54.5915 29.6565 55.1009 29.6565 55.7308C29.6565 56.3607 29.1471 56.8701 28.5172 56.8701H25.8577C25.2278 56.8701 24.7184 56.3607 24.7184 55.7308V34.9528C24.7184 34.3229 25.2278 33.8135 25.8577 33.8135H46.6357C47.2656 33.8135 47.775 34.3229 47.775 34.9528V55.7308C47.775 56.359 47.2656 56.8701 46.6357 56.8701Z" fill="url(#paint3_linear_802_18)"/>
<path d="M32.819 56.87C32.5179 56.87 32.2249 56.7479 32.0133 56.5363C31.9613 56.4826 31.9124 56.4256 31.8717 56.3621C31.8311 56.3003 31.7952 56.2352 31.766 56.1652C31.7383 56.0968 31.7171 56.0252 31.7025 55.952C31.6862 55.8787 31.6797 55.8039 31.6797 55.7306C31.6797 55.6558 31.6862 55.5809 31.7025 55.5076C31.7171 55.4344 31.7383 55.3628 31.766 55.2944C31.7952 55.2261 31.8311 55.1593 31.8717 55.0975C31.9124 55.0356 31.9613 54.977 32.0133 54.925C32.2249 54.7117 32.5179 54.5913 32.819 54.5913C33.1185 54.5913 33.4115 54.7117 33.6247 54.925C33.6768 54.977 33.724 55.0356 33.7663 55.0975C33.807 55.1593 33.8428 55.2261 33.8704 55.2944C33.8997 55.3628 33.9209 55.4344 33.9355 55.5076C33.9502 55.5809 33.9583 55.6558 33.9583 55.7306C33.9583 55.8039 33.9502 55.8787 33.9355 55.952C33.9209 56.0252 33.8997 56.0968 33.8704 56.1652C33.8428 56.2352 33.807 56.3003 33.7663 56.3621C33.724 56.4256 33.6768 56.4826 33.6247 56.5363C33.4115 56.7479 33.1185 56.87 32.819 56.87Z" fill="url(#paint4_linear_802_18)"/>
<path d="M71.071 29.1927H41.6667C41.0368 29.1927 40.5273 28.6833 40.5273 28.0534V16.9157C40.5273 16.2858 41.0368 15.7764 41.6667 15.7764H56.0547C56.6846 15.7764 57.194 16.2858 57.194 16.9157C57.194 17.5456 56.6846 18.055 56.0547 18.055H42.806V26.9141H69.9316V18.055H64.6712C64.0413 18.055 63.5319 17.5456 63.5319 16.9157C63.5319 16.2858 64.0413 15.7764 64.6712 15.7764H71.071C71.7008 15.7764 72.2103 16.2858 72.2103 16.9157V28.0534C72.2103 28.6833 71.7008 29.1927 71.071 29.1927Z" fill="url(#paint5_linear_802_18)"/>
<path d="M60.1009 18.0569C60.026 18.0569 59.9512 18.0487 59.8779 18.0341C59.8047 18.0194 59.7331 17.9983 59.6647 17.969C59.5964 17.9413 59.5296 17.9055 59.4678 17.8648C59.4059 17.8225 59.3473 17.7753 59.2952 17.7232C59.2415 17.6695 59.1943 17.6125 59.1536 17.5491C59.1113 17.4872 59.0771 17.4221 59.0479 17.3538C59.0202 17.2838 58.9974 17.2122 58.9827 17.1405C58.9681 17.0657 58.96 16.9908 58.96 16.9176C58.96 16.8427 58.9681 16.7678 58.9827 16.6946C58.9974 16.6213 59.0202 16.5497 59.0479 16.4814C59.0771 16.413 59.1113 16.3463 59.1536 16.2844C59.1943 16.2226 59.2415 16.164 59.2952 16.1119C59.3473 16.0598 59.4059 16.011 59.4678 15.9703C59.5296 15.9296 59.5964 15.8938 59.6647 15.8645C59.7331 15.8368 59.8047 15.8157 59.8779 15.801C60.0244 15.7701 60.1758 15.7701 60.3223 15.801C60.3955 15.8157 60.4671 15.8368 60.5355 15.8645C60.6038 15.8938 60.6706 15.9296 60.7324 15.9703C60.7943 16.011 60.8529 16.0598 60.9049 16.1119C60.9587 16.164 61.0059 16.2226 61.0482 16.2844C61.0889 16.3463 61.123 16.413 61.1523 16.4814C61.18 16.5497 61.2028 16.6213 61.2174 16.6946C61.2321 16.7678 61.2386 16.8427 61.2386 16.9176C61.2386 16.9908 61.2321 17.0657 61.2174 17.1405C61.2028 17.2122 61.18 17.2838 61.1523 17.3538C61.123 17.4221 61.0889 17.4872 61.0482 17.5491C61.0059 17.6125 60.9587 17.6695 60.9049 17.7232C60.8529 17.7753 60.7943 17.8225 60.7324 17.8648C60.6706 17.9055 60.6038 17.9413 60.5355 17.969C60.4671 17.9983 60.3955 18.0194 60.3223 18.0341C60.249 18.0487 60.1742 18.0569 60.1009 18.0569Z" fill="url(#paint6_linear_802_18)"/>
<path d="M59.9332 57.4089H53.6995C53.0696 57.4089 52.5602 56.8994 52.5602 56.2695V34.9528C52.5602 34.3229 53.0696 33.8135 53.6995 33.8135H59.9332C60.5631 33.8135 61.0726 34.3229 61.0726 34.9528V56.2712C61.0726 56.8994 60.5631 57.4089 59.9332 57.4089ZM54.8405 55.1302H58.7955V36.0921H54.8405V55.1302Z" fill="url(#paint7_linear_802_18)"/>
<path d="M71.0709 57.4089H64.8372C64.2073 57.4089 63.6979 56.8994 63.6979 56.2695V34.9528C63.6979 34.3229 64.2073 33.8135 64.8372 33.8135H71.0709C71.7008 33.8135 72.2102 34.3229 72.2102 34.9528V56.2712C72.2102 56.8994 71.7008 57.4089 71.0709 57.4089ZM65.9765 55.1302H69.9316V36.0921H65.9765V55.1302Z" fill="url(#paint8_linear_802_18)"/>
<path d="M11.0368 42.0815C10.4069 42.0815 9.89746 41.5721 9.89746 40.9422V10.5793C9.89746 9.94938 10.4069 9.43994 11.0368 9.43994C11.6667 9.43994 12.1761 9.94938 12.1761 10.5793V40.9422C12.1761 41.5721 11.665 42.0815 11.0368 42.0815Z" fill="url(#paint9_linear_802_18)"/>
<path d="M11.0368 8.12479C10.7357 8.12479 10.4427 8.00272 10.2311 7.79113C10.0195 7.57792 9.89746 7.28495 9.89746 6.98547C9.89746 6.68436 10.0195 6.39139 10.2311 6.17981C10.4948 5.91451 10.8887 5.79406 11.2598 5.86731C11.3314 5.88195 11.403 5.90474 11.473 5.93241C11.5413 5.96171 11.6064 5.99589 11.6683 6.0382C11.7318 6.07889 11.7904 6.1261 11.8424 6.17981C12.054 6.39139 12.1761 6.68436 12.1761 6.98547C12.1761 7.28495 12.054 7.57792 11.8424 7.79113C11.7904 7.84322 11.7318 7.89042 11.6683 7.93274C11.6064 7.97343 11.5413 8.00923 11.473 8.0369C11.403 8.0662 11.3314 8.08736 11.2598 8.10201C11.1865 8.11665 11.1117 8.12479 11.0368 8.12479Z" fill="url(#paint10_linear_802_18)"/>
<defs>
<linearGradient id="paint0_linear_802_18" x1="11.5234" y1="0.00634766" x2="11.5234" y2="56.8065" gradientUnits="userSpaceOnUse">
<stop stop-color="#475EDF"/>
<stop offset="1" stop-color="#5C47DF"/>
</linearGradient>
<linearGradient id="paint1_linear_802_18" x1="41.6667" y1="8.19336" x2="41.6667" y2="64.9935" gradientUnits="userSpaceOnUse">
<stop stop-color="#475EDF"/>
<stop offset="1" stop-color="#5C47DF"/>
</linearGradient>
<linearGradient id="paint2_linear_802_18" x1="31.4266" y1="15.7764" x2="31.4266" y2="29.1927" gradientUnits="userSpaceOnUse">
<stop stop-color="#475EDF"/>
<stop offset="1" stop-color="#5C47DF"/>
</linearGradient>
<linearGradient id="paint3_linear_802_18" x1="36.2467" y1="33.8135" x2="36.2467" y2="56.8701" gradientUnits="userSpaceOnUse">
<stop stop-color="#475EDF"/>
<stop offset="1" stop-color="#5C47DF"/>
</linearGradient>
<linearGradient id="paint4_linear_802_18" x1="32.819" y1="54.5913" x2="32.819" y2="56.87" gradientUnits="userSpaceOnUse">
<stop stop-color="#475EDF"/>
<stop offset="1" stop-color="#5C47DF"/>
</linearGradient>
<linearGradient id="paint5_linear_802_18" x1="56.3688" y1="15.7764" x2="56.3688" y2="29.1927" gradientUnits="userSpaceOnUse">
<stop stop-color="#475EDF"/>
<stop offset="1" stop-color="#5C47DF"/>
</linearGradient>
<linearGradient id="paint6_linear_802_18" x1="60.0993" y1="15.7778" x2="60.0993" y2="18.0569" gradientUnits="userSpaceOnUse">
<stop stop-color="#475EDF"/>
<stop offset="1" stop-color="#5C47DF"/>
</linearGradient>
<linearGradient id="paint7_linear_802_18" x1="56.8164" y1="33.8135" x2="56.8164" y2="57.4089" gradientUnits="userSpaceOnUse">
<stop stop-color="#475EDF"/>
<stop offset="1" stop-color="#5C47DF"/>
</linearGradient>
<linearGradient id="paint8_linear_802_18" x1="67.9541" y1="33.8135" x2="67.9541" y2="57.4089" gradientUnits="userSpaceOnUse">
<stop stop-color="#475EDF"/>
<stop offset="1" stop-color="#5C47DF"/>
</linearGradient>
<linearGradient id="paint9_linear_802_18" x1="11.0368" y1="9.43994" x2="11.0368" y2="42.0815" gradientUnits="userSpaceOnUse">
<stop stop-color="#475EDF"/>
<stop offset="1" stop-color="#5C47DF"/>
</linearGradient>
<linearGradient id="paint10_linear_802_18" x1="11.0368" y1="5.84619" x2="11.0368" y2="8.12479" gradientUnits="userSpaceOnUse">
<stop stop-color="#475EDF"/>
<stop offset="1" stop-color="#5C47DF"/>
</linearGradient>
</defs>
</svg>
