<svg width="120" height="87" viewBox="0 0 120 87" fill="none" xmlns="http://www.w3.org/2000/svg">
<path d="M115.556 20.0951H113.333V7.60144C113.333 3.42727 109.549 0.318385 105.525 1.03255L59.9997 8.95033L14.4922 0.926162C10.4333 0.198384 6.66667 3.33283 6.66667 7.49089V20.0951H4.44444C1.99 20.0951 0 22.0848 0 24.5395V75.6506C0 78.1051 1.99 80.0951 4.44444 80.0951H40.7625C44.5408 80.0951 46.2847 81.9353 48.5075 84.1581C50.1744 85.8251 52.4356 86.7617 54.7928 86.7617C58.5611 86.7617 61.4383 86.7617 65.2067 86.7617C67.5642 86.7617 69.825 85.8251 71.4919 84.1581C73.7142 81.9359 75.4553 80.0951 79.2369 80.0951H115.556C118.01 80.0951 120 78.1051 120 75.6506V24.5395C120 22.0848 118.01 20.0951 115.556 20.0951ZM106.287 5.412C107.606 5.17644 108.889 6.18616 108.889 7.60172V62.9098C108.889 63.9906 108.116 64.9106 107.053 65.0995L62.2222 73.0031V13.0748L106.287 5.412ZM11.1111 7.49089C11.1111 6.11533 12.3461 5.06505 13.7197 5.30116L57.7778 13.0703V73.0031L12.9469 65.0995C11.8836 64.9106 11.1111 63.9906 11.1111 62.9098V7.49089ZM68.9236 47.797C68.7089 46.5881 69.5161 45.4359 70.7247 45.2231L99.6136 40.1298C100.818 39.902 101.975 40.7223 102.188 41.9309C102.402 43.1398 101.595 44.292 100.386 44.5048L71.4975 49.5981C71.3672 49.622 71.237 49.6328 71.1092 49.6328C70.05 49.6328 69.1125 48.8753 68.9236 47.797ZM68.9236 36.6859C68.7089 35.477 69.5161 34.3248 70.7247 34.112L99.6136 29.0187C100.818 28.7951 101.975 29.6112 102.188 30.8198C102.402 32.0287 101.595 33.1809 100.386 33.3937L71.4975 38.487C71.3672 38.5109 71.237 38.5217 71.1092 38.5217C70.05 38.5217 69.1125 37.7642 68.9236 36.6859ZM68.9236 25.5748C68.7089 24.3659 69.5161 23.2137 70.7247 23.0009L99.6136 17.9076C100.818 17.6798 101.975 18.5 102.188 19.7087C102.402 20.9175 101.595 22.0698 100.386 22.2826L71.4975 27.3759C71.3672 27.3998 71.237 27.4106 71.1092 27.4106C70.05 27.4106 69.1125 26.6531 68.9236 25.5748ZM68.9236 58.9081C68.7089 57.6992 69.5161 56.547 70.7247 56.3342L99.6136 51.2409C100.818 51.0173 101.975 51.8334 102.188 53.042C102.402 54.2509 101.595 55.4031 100.386 55.6159L71.4975 60.7092C71.3672 60.7331 71.237 60.7439 71.1092 60.7439C70.05 60.7439 69.1125 59.9864 68.9236 58.9081ZM21.7331 34.0512C18.4414 30.1434 17.875 24.6962 20.7292 21.4837C24.1775 17.6025 30.5983 18.4342 34.4444 23.0009C38.2908 19.7906 44.7114 21.2234 48.1597 26.3206C51.0139 30.5395 50.4472 35.787 47.1558 38.5339L38.1281 46.0687C36.0953 47.7653 32.7936 47.1831 30.7608 44.7695L21.7331 34.0512Z" fill="black"/>
</svg>
