<svg width="45" height="45" viewBox="0 0 45 45" fill="none" xmlns="http://www.w3.org/2000/svg">
<path d="M43.2422 18.8437C41.5547 8.92969 32.9062 1.40625 22.5 1.40625C12.0938 1.40625 3.44531 8.92969 1.75781 18.8437L22.5 8.4375L43.2422 18.8437Z" fill="#699635"/>
<path d="M1.75781 26.1562C3.44531 36.0703 12.0938 43.5937 22.5 43.5937C32.9062 43.5937 41.5547 36.0703 43.2422 26.1562L22.5 36.5625L1.75781 26.1562Z" fill="#699635"/>
<path d="M22.5 8.4375L1.75781 18.8437C1.54687 20.0391 1.40625 21.2344 1.40625 22.5C1.40625 23.7656 1.54687 24.9609 1.75781 26.1562L22.5 36.5625L43.2422 26.1562C43.4531 24.9609 43.5938 23.7656 43.5938 22.5C43.5938 21.2344 43.4531 20.0391 43.2422 18.8437L22.5 8.4375Z" fill="#FFE62E"/>
<path d="M18.2812 19.9686C16.0312 19.9686 13.9219 20.4608 12.0234 21.3046C11.9531 21.7264 11.9531 22.078 11.9531 22.4999C11.9531 28.3358 16.6641 33.0468 22.5 33.0468C26.4375 33.0468 29.8828 30.8671 31.7109 27.703C29.1094 23.1327 24.0469 19.9686 18.2812 19.9686Z" fill="#428BC1"/>
<path d="M32.9062 24.1875C32.9766 23.625 33.0469 23.0625 33.0469 22.5C33.0469 16.6641 28.3359 11.9531 22.5 11.9531C18.3516 11.9531 14.7656 14.3437 13.0078 17.8594C14.6953 17.3672 16.4531 17.0859 18.2812 17.0859C24.2578 17.0859 29.5312 19.8984 32.9062 24.1875Z" fill="#428BC1"/>
<path d="M18.2811 17.0859C16.453 17.0859 14.6952 17.3672 13.0077 17.8594C12.5155 18.9141 12.1639 20.0391 12.0233 21.3047C13.9218 20.4609 16.0311 19.9688 18.2811 19.9688C24.0468 19.9688 29.1093 23.0625 31.7108 27.6328C32.3436 26.5781 32.6952 25.3828 32.9061 24.1875C29.5311 19.8984 24.2577 17.0859 18.2811 17.0859Z" fill="white"/>
<path d="M15.4685 23.203C15.8568 23.203 16.1716 22.8882 16.1716 22.4999C16.1716 22.1116 15.8568 21.7968 15.4685 21.7968C15.0802 21.7968 14.7654 22.1116 14.7654 22.4999C14.7654 22.8882 15.0802 23.203 15.4685 23.203Z" fill="white"/>
<path d="M18.281 27.4218C18.6693 27.4218 18.9841 27.107 18.9841 26.7186C18.9841 26.3303 18.6693 26.0155 18.281 26.0155C17.8927 26.0155 17.5779 26.3303 17.5779 26.7186C17.5779 27.107 17.8927 27.4218 18.281 27.4218Z" fill="white"/>
<path d="M22.4998 27.4218C22.8881 27.4218 23.2029 27.107 23.2029 26.7186C23.2029 26.3303 22.8881 26.0155 22.4998 26.0155C22.1114 26.0155 21.7966 26.3303 21.7966 26.7186C21.7966 27.107 22.1114 27.4218 22.4998 27.4218Z" fill="white"/>
<path d="M22.4998 30.2343C22.8881 30.2343 23.2029 29.9195 23.2029 29.5311C23.2029 29.1428 22.8881 28.828 22.4998 28.828C22.1114 28.828 21.7966 29.1428 21.7966 29.5311C21.7966 29.9195 22.1114 30.2343 22.4998 30.2343Z" fill="white"/>
<path d="M28.1248 27.4218C28.5131 27.4218 28.8279 27.107 28.8279 26.7186C28.8279 26.3303 28.5131 26.0155 28.1248 26.0155C27.7364 26.0155 27.4216 26.3303 27.4216 26.7186C27.4216 27.107 27.7364 27.4218 28.1248 27.4218Z" fill="white"/>
<path d="M28.1248 30.2343C28.5131 30.2343 28.8279 29.9195 28.8279 29.5311C28.8279 29.1428 28.5131 28.828 28.1248 28.828C27.7364 28.828 27.4216 29.1428 27.4216 29.5311C27.4216 29.9195 27.7364 30.2343 28.1248 30.2343Z" fill="white"/>
<path d="M25.3123 28.828C25.7006 28.828 26.0154 28.5132 26.0154 28.1249C26.0154 27.7366 25.7006 27.4218 25.3123 27.4218C24.9239 27.4218 24.6091 27.7366 24.6091 28.1249C24.6091 28.5132 24.9239 28.828 25.3123 28.828Z" fill="white"/>
<path d="M15.4685 26.0155C15.8568 26.0155 16.1716 25.7007 16.1716 25.3124C16.1716 24.9241 15.8568 24.6093 15.4685 24.6093C15.0802 24.6093 14.7654 24.9241 14.7654 25.3124C14.7654 25.7007 15.0802 26.0155 15.4685 26.0155Z" fill="white"/>
</svg>
