<svg width="57" height="57" viewBox="0 0 57 57" fill="none" xmlns="http://www.w3.org/2000/svg">
<path d="M54.5537 23.126H52.8681C52.7009 22.3558 52.4963 21.5904 52.2563 20.8382L53.7152 19.9959C54.8302 19.352 55.2138 17.9211 54.5701 16.8056L51.587 11.6386C51.1709 10.9182 50.3955 10.4707 49.5632 10.4707C49.1551 10.4707 48.7516 10.5789 48.3967 10.7839L46.933 11.6292C46.4022 11.0463 45.8426 10.4866 45.2602 9.95649L46.1054 8.4927C46.4173 7.95248 46.5003 7.32303 46.3387 6.72047C46.1773 6.11792 45.7908 5.61436 45.2505 5.30247L40.0835 2.31923C39.7286 2.11445 39.3253 2.00601 38.917 2.00601C38.0847 2.00601 37.3091 2.45345 36.8933 3.17401L36.0509 4.6328C35.2991 4.39291 34.5339 4.18835 33.7632 4.02102V2.33545C33.7632 1.04767 32.7156 0 31.4278 0H25.4615C24.1738 0 23.1261 1.04767 23.1261 2.33545V4.02102C22.3554 4.18835 21.5903 4.39291 20.8384 4.6328L19.9962 3.17412C19.5802 2.45357 18.8049 2.00601 17.9723 2.00601C17.5642 2.00601 17.1607 2.11423 16.8058 2.31923L11.6392 5.30225C11.0988 5.61425 10.7123 6.1178 10.5508 6.72036C10.3893 7.32292 10.4723 7.95237 10.7842 8.49259L11.6294 9.95638C11.0469 10.4866 10.4874 11.0462 9.95671 11.6291L8.4927 10.7839C8.13792 10.5792 7.7347 10.4708 7.32636 10.4708C6.49403 10.4708 5.71836 10.9183 5.30247 11.6388L2.31945 16.8055C2.00756 17.3457 1.92456 17.9752 2.08601 18.5777C2.24745 19.1803 2.63379 19.6839 3.17412 19.9959L4.63302 20.8381C4.39302 21.5904 4.18835 22.3557 4.02124 23.1259H2.33534C1.04756 23.1261 0 24.1737 0 25.4614V31.4275C0 32.7153 1.04767 33.7629 2.33545 33.7629H4.02102C4.18824 34.5333 4.3928 35.2986 4.6328 36.0508L3.17379 36.893C2.05856 37.5372 1.67523 38.9684 2.31923 40.0833L5.30213 45.2504C5.71825 45.971 6.49358 46.4184 7.32603 46.4184C7.73414 46.4184 8.13748 46.3102 8.49237 46.1053L9.95637 45.26C10.4869 45.8429 11.0464 46.4024 11.6288 46.9326L10.7836 48.3965C10.4719 48.9369 10.3889 49.5662 10.5504 50.1688C10.7119 50.7714 11.0983 51.2751 11.6386 51.5868L16.8054 54.5699C17.1603 54.7748 17.5636 54.8831 17.9718 54.8831C18.8044 54.8831 19.5801 54.4356 19.9956 53.715L20.8379 52.2563C21.5896 52.4961 22.355 52.7008 23.1256 52.868V54.5537C23.1256 55.8415 24.1733 56.8891 25.4611 56.8891H31.4273C32.7151 56.8891 33.7628 55.8415 33.7628 54.5537V52.868C34.5335 52.7008 35.2987 52.496 36.0507 52.2563L36.8928 53.715C37.3089 54.4356 38.0843 54.8831 38.9166 54.8831C39.3249 54.8831 39.7282 54.7749 40.083 54.5699L45.2497 51.5869C45.7901 51.275 46.1765 50.7714 46.3381 50.1689C46.4996 49.5662 46.4166 48.9369 46.1047 48.3967L45.2596 46.9328C45.8423 46.4022 46.4017 45.8428 46.9323 45.2601L48.3962 46.1054C48.7511 46.3101 49.1542 46.4182 49.5623 46.4182C50.3946 46.4182 51.1702 45.9709 51.5862 45.2503L54.5693 40.0832C55.2132 38.9678 54.8297 37.5368 53.7144 36.893L52.2555 36.0507C52.4955 35.2986 52.7002 34.5331 52.8673 33.7628H54.5534C55.8412 33.7628 56.8889 32.7151 56.8889 31.4274V25.4613C56.8891 24.1737 55.8414 23.126 54.5537 23.126ZM55.0927 31.4276C55.0927 31.7248 54.851 31.9666 54.5537 31.9666H52.1325C51.6995 31.9666 51.3282 32.2755 51.2494 32.7013C51.0324 33.8719 50.721 35.0366 50.3238 36.1628C50.1799 36.5706 50.3471 37.0233 50.7218 37.2394L52.8167 38.4491C53.0739 38.5976 53.1625 38.9277 53.0139 39.1852L50.0309 44.3522C49.9346 44.5186 49.7553 44.6219 49.5625 44.6219C49.4678 44.6219 49.3776 44.5975 49.2945 44.5495L47.1949 43.3372C46.8201 43.1206 46.3448 43.2022 46.0637 43.5305C45.2877 44.4359 44.4354 45.2881 43.5303 46.064C43.2019 46.3453 43.1208 46.8205 43.337 47.1951L44.5492 49.2951C44.6212 49.4197 44.6402 49.5648 44.603 49.7039C44.5656 49.8428 44.4765 49.959 44.3517 50.0311L39.1849 53.0142C39.1017 53.0622 39.0114 53.0867 38.9168 53.0867C38.7243 53.0867 38.5449 52.9833 38.4488 52.8168L37.2394 50.7221C37.023 50.3474 36.5706 50.1804 36.1628 50.3241C35.0374 50.7209 33.8726 51.0324 32.701 51.2497C32.2754 51.3286 31.9666 51.7 31.9666 52.1328V54.5538C31.9666 54.8509 31.7249 55.0928 31.4276 55.0928H25.4613C25.1642 55.0928 24.9223 54.851 24.9223 54.5538V52.1327C24.9223 51.6998 24.6135 51.3284 24.1879 51.2496C23.0161 51.0322 21.8513 50.7208 20.7263 50.324C20.6281 50.2894 20.5273 50.2728 20.4279 50.2728C20.1143 50.2728 19.814 50.4377 19.6497 50.722L18.44 52.8168C18.3441 52.9831 18.1647 53.0865 17.9721 53.0865C17.8774 53.0865 17.7872 53.062 17.704 53.014L12.5369 50.0308C12.4123 49.9588 12.3233 49.8428 12.2859 49.7038C12.2488 49.5645 12.2678 49.4193 12.3397 49.2947L13.5518 47.195C13.7681 46.8204 13.6868 46.3451 13.3585 46.0639C12.4538 45.2884 11.6015 44.4361 10.8253 43.5304C10.5438 43.2021 10.0685 43.1205 9.69415 43.3371L7.59414 44.5492C7.51103 44.5972 7.4207 44.6216 7.32614 44.6216C7.13347 44.6216 6.95403 44.5183 6.85792 44.352L3.8749 39.1848C3.72635 38.9276 3.8149 38.5974 4.07202 38.4487L6.16714 37.2393C6.54169 37.0229 6.70892 36.5705 6.56514 36.1627C6.16802 35.0364 5.85647 33.8717 5.63947 32.7011C5.56069 32.2754 5.18924 31.9665 4.75635 31.9665H2.33523C2.03812 31.9665 1.79623 31.7248 1.79623 31.4275V25.4614C1.79623 25.1643 2.03801 24.9224 2.33523 24.9224H4.75635C5.18935 24.9224 5.56069 24.6136 5.63947 24.1879C5.85647 23.0174 6.1678 21.8528 6.56514 20.7263C6.70892 20.3184 6.5418 19.8659 6.16714 19.6498L4.07213 18.4402C3.94757 18.3682 3.85846 18.2521 3.82113 18.113C3.7839 17.974 3.80302 17.8286 3.87502 17.704L6.85792 12.5372C6.95392 12.3707 7.13336 12.2675 7.32614 12.2675C7.42081 12.2675 7.51092 12.2918 7.59414 12.3398L9.69404 13.5523C10.0687 13.7685 10.5439 13.6871 10.8252 13.3589C11.6015 12.4532 12.4538 11.6008 13.3585 10.8256C13.6869 10.5442 13.7683 10.0688 13.5519 9.69438L12.3397 7.59414C12.2676 7.46948 12.2486 7.32436 12.2858 7.18525C12.3232 7.04625 12.4123 6.93003 12.537 6.85803L17.7038 3.87491C17.7871 3.82691 17.8774 3.80246 17.972 3.80246C18.1646 3.80246 18.344 3.90579 18.44 4.07213L19.6496 6.16714C19.866 6.54181 20.3186 6.70903 20.7263 6.56514C21.8516 6.16825 23.0161 5.85669 24.1877 5.63958C24.6134 5.56069 24.9222 5.18924 24.9222 4.75635V2.33523C24.9222 2.03812 25.164 1.79623 25.4612 1.79623H31.4275C31.7247 1.79623 31.9665 2.03801 31.9665 2.33523V4.75624C31.9665 5.18924 32.2752 5.56047 32.701 5.63947C33.8726 5.85669 35.0371 6.16814 36.1624 6.56503C36.5699 6.70903 37.0228 6.54169 37.239 6.16703L38.4487 4.07202C38.5463 3.90302 38.7212 3.80235 38.9167 3.80235C39.0114 3.80235 39.1016 3.82679 39.1848 3.87479L44.3516 6.85792C44.4764 6.93003 44.5655 7.04614 44.6028 7.18514C44.64 7.32414 44.621 7.46937 44.549 7.59403L43.3366 9.69393C43.1203 10.0685 43.2016 10.5438 43.5301 10.8252C44.4345 11.6002 45.287 12.4525 46.0636 13.3586C46.345 13.6867 46.8202 13.7681 47.1947 13.5519L49.2944 12.3395C49.3776 12.2915 49.468 12.2671 49.5625 12.2671C49.7551 12.2671 49.9346 12.3704 50.0305 12.5367L53.0135 17.7035C53.1621 17.9609 53.0737 18.2912 52.8164 18.4397L50.7215 19.6493C50.3469 19.8656 50.1798 20.318 50.3235 20.7259C50.7208 21.8523 51.0322 23.017 51.2492 24.1874C51.328 24.6132 51.6994 24.9221 52.1323 24.9221H54.5534C54.8507 24.9221 55.0924 25.1639 55.0924 25.4611V31.4276H55.0927Z" fill="url(#paint0_linear_786_54)"/>
<path d="M28.4445 12.1152C19.4404 12.1152 12.1151 19.4405 12.1151 28.4446C12.1151 37.4487 19.4404 44.774 28.4445 44.774C32.9716 44.774 37.3379 42.8631 40.4237 39.5315C40.7607 39.1675 40.739 38.5992 40.375 38.2619C40.0109 37.925 39.4428 37.9466 39.1054 38.3106C36.3587 41.2765 32.4726 42.9775 28.4443 42.9775C20.4308 42.9775 13.9113 36.458 13.9113 28.4445C13.9113 20.431 20.4308 13.9116 28.4443 13.9116C36.4578 13.9116 42.9775 20.4312 42.9775 28.4446C42.9775 31.1639 42.2185 33.8169 40.7824 36.1171C40.5198 36.538 40.6479 37.0921 41.0688 37.3548C41.4897 37.6176 42.0438 37.4892 42.3065 37.0685C43.9208 34.4826 44.774 31.5005 44.774 28.4446C44.7739 19.4405 37.4487 12.1152 28.4445 12.1152Z" fill="url(#paint1_linear_786_54)"/>
<path d="M28.4445 8.52246C17.4591 8.52246 8.52209 17.4597 8.52209 28.4449C8.52209 39.43 17.4591 48.3673 28.4445 48.3673C39.4299 48.3673 48.3669 39.4301 48.3669 28.4449C48.3669 17.4595 39.4299 8.52246 28.4445 8.52246ZM28.4445 46.5708C18.4499 46.5708 10.3185 38.4397 10.3185 28.4449C10.3185 18.4501 18.4499 10.3189 28.4445 10.3189C38.4391 10.3189 46.5705 18.4502 46.5705 28.4449C46.5705 38.4396 38.4391 46.5708 28.4445 46.5708Z" fill="url(#paint2_linear_786_54)"/>
<path d="M28.4445 22.9709C29.8954 22.9709 31.2626 23.5328 32.2942 24.5532C32.6468 24.9021 33.2156 24.8991 33.5645 24.5462C33.9133 24.1936 33.9102 23.6249 33.5575 23.276C32.1875 21.9208 30.3714 21.1743 28.4445 21.1743C24.4356 21.1743 21.1741 24.4359 21.1741 28.4449C21.1741 32.4539 24.4356 35.7155 28.4445 35.7155C32.4535 35.7155 35.715 32.454 35.715 28.4449C35.715 27.6813 35.597 26.929 35.3644 26.2087C35.2118 25.7366 34.7051 25.4774 34.2336 25.6299C33.7616 25.7823 33.5023 26.2886 33.6549 26.7607C33.8299 27.3025 33.9185 27.8691 33.9185 28.4449C33.9185 31.4632 31.4629 33.9189 28.4445 33.9189C25.4262 33.9189 22.9706 31.4632 22.9706 28.4449C22.9706 25.4266 25.4262 22.9709 28.4445 22.9709Z" fill="url(#paint3_linear_786_54)"/>
<defs>
<linearGradient id="paint0_linear_786_54" x1="28.4444" y1="0" x2="28.4444" y2="56.8891" gradientUnits="userSpaceOnUse">
<stop stop-color="#475EDF"/>
<stop offset="1" stop-color="#6F59D6"/>
</linearGradient>
<linearGradient id="paint1_linear_786_54" x1="28.4446" y1="12.1152" x2="28.4446" y2="44.774" gradientUnits="userSpaceOnUse">
<stop stop-color="#475EDF"/>
<stop offset="1" stop-color="#6F59D6"/>
</linearGradient>
<linearGradient id="paint2_linear_786_54" x1="28.4445" y1="8.52246" x2="28.4445" y2="48.3673" gradientUnits="userSpaceOnUse">
<stop stop-color="#475EDF"/>
<stop offset="1" stop-color="#6F59D6"/>
</linearGradient>
<linearGradient id="paint3_linear_786_54" x1="28.4445" y1="21.1743" x2="28.4445" y2="35.7155" gradientUnits="userSpaceOnUse">
<stop stop-color="#475EDF"/>
<stop offset="1" stop-color="#6F59D6"/>
</linearGradient>
</defs>
</svg>
