<svg width="57" height="65" viewBox="0 0 57 65" fill="none" xmlns="http://www.w3.org/2000/svg">
<path d="M6.37988 58.2123L1.40601 1.60205H56.0623L51.0835 58.2038L28.701 64.5003L6.37988 58.2123Z" fill="#5C47DF"/>
<path d="M28.7346 59.6877L46.821 54.5995L51.076 6.23047H28.7346V59.6877Z" fill="#5C47DF"/>
<path d="M28.7346 26.7401H37.7889L38.4142 19.6303H28.7346V12.6873H45.8924L45.7281 14.5502L44.0461 33.6831H28.7346V26.7401Z" fill="black"/>
<path d="M28.7753 44.7718L28.7451 44.7808L21.125 42.693L20.6377 37.1555H13.77L14.7283 48.0573L28.7441 52.0045L28.7753 51.9954V44.7718Z" fill="black"/>
<path d="M37.2072 33.3896L36.383 42.6876L28.7515 44.7779V52.0015L42.7787 48.0569L42.8816 46.8837L44.0718 33.3896H37.2072Z" fill="black"/>
<path d="M28.7579 12.6873V19.6303H12.2304L12.0933 18.0701L11.7817 14.5502L11.6179 12.6873H28.7579ZM28.7346 26.7411V33.6841H21.2105L21.0734 32.1239L20.7613 28.604L20.598 26.7411H28.7346Z" fill="black"/>
<path d="M4.97388 57.1103L0 0.5H54.6563L49.6774 57.1017L27.295 63.3982L4.97388 57.1103Z" fill="#5C47DF"/>
<path d="M27.3286 58.5857L45.4149 53.4975L49.67 5.12842H27.3286V58.5857Z" fill="#5C47DF"/>
<path d="M27.3286 25.638H36.3829L37.0082 18.5283H27.3286V11.5852H44.4864L44.3221 13.4481L42.6401 32.5811H27.3286V25.638Z" fill="black"/>
<path d="M27.3691 43.67L27.339 43.679L19.7188 41.5912L19.2315 36.0537H12.3639L13.3222 46.9555L27.338 50.9027L27.3691 50.8936V43.67Z" fill="black"/>
<path d="M35.801 32.2876L34.9768 41.5855L27.3453 43.6758V50.8995L41.3725 46.9548L41.4754 45.7817L42.6657 32.2876H35.801Z" fill="black"/>
<path d="M27.3519 11.5852V18.5283H10.8244L10.6873 16.9681L10.3757 13.4481L10.2119 11.5852H27.3519ZM27.3286 25.639V32.5821H19.8045L19.6674 31.0219L19.3553 27.5019L19.192 25.639H27.3286Z" fill="black"/>
</svg>
