<svg width="70" height="77" viewBox="0 0 70 77" fill="none" xmlns="http://www.w3.org/2000/svg">
<g clip-path="url(#clip0_802_51)">
<path d="M23.123 57.7692V69.3308H7.70759V57.7692H23.123ZM26.9769 50.0615H3.85373C2.83163 50.0615 1.85138 50.4676 1.12865 51.1903C0.405908 51.913 -0.00012207 52.8933 -0.00012207 53.9154V73.1846C-0.00012207 74.2068 0.405908 75.187 1.12865 75.9097C1.85138 76.6325 2.83163 77.0385 3.85373 77.0385H26.9769C27.999 77.0385 28.9792 76.6325 29.7019 75.9097C30.4247 75.187 30.8307 74.2068 30.8307 73.1846V53.9154C30.8307 52.8933 30.4247 51.913 29.7019 51.1903C28.9792 50.4676 27.999 50.0615 26.9769 50.0615Z" fill="url(#paint0_linear_802_51)"/>
<path d="M23.1231 7.66913V34.6461H7.70771V7.66913H23.1231ZM26.977 -0.0385742H3.85385C2.83175 -0.0385742 1.85151 0.367455 1.12877 1.09019C0.40603 1.81293 0 2.79317 0 3.81528V38.5C0 39.5221 0.40603 40.5023 1.12877 41.225C1.85151 41.9478 2.83175 42.3538 3.85385 42.3538H26.977C27.9991 42.3538 28.9793 41.9478 29.7021 41.225C30.4248 40.5023 30.8308 39.5221 30.8308 38.5V3.81528C30.8308 2.79317 30.4248 1.81293 29.7021 1.09019C28.9793 0.367455 27.9991 -0.0385742 26.977 -0.0385742Z" fill="url(#paint1_linear_802_51)"/>
<path d="M61.6616 7.66913V19.2307H46.2462V7.66913H61.6616ZM65.5154 -0.0385742H42.3923C41.3702 -0.0385742 40.39 0.367455 39.6672 1.09019C38.9445 1.81293 38.5385 2.79317 38.5385 3.81528V23.0845C38.5385 24.1067 38.9445 25.0869 39.6672 25.8096C40.39 26.5324 41.3702 26.9384 42.3923 26.9384H65.5154C66.5375 26.9384 67.5178 26.5324 68.2405 25.8096C68.9633 25.0869 69.3693 24.1067 69.3693 23.0845V3.81528C69.3693 2.79317 68.9633 1.81293 68.2405 1.09019C67.5178 0.367455 66.5375 -0.0385742 65.5154 -0.0385742Z" fill="url(#paint2_linear_802_51)"/>
<path d="M61.6616 42.3537V69.3307H46.2462V42.3537H61.6616ZM65.5154 34.646H42.3923C41.3702 34.646 40.39 35.052 39.6672 35.7748C38.9445 36.4975 38.5385 37.4777 38.5385 38.4998V73.1845C38.5385 74.2066 38.9445 75.1869 39.6672 75.9096C40.39 76.6324 41.3702 77.0384 42.3923 77.0384H65.5154C66.5375 77.0384 67.5178 76.6324 68.2405 75.9096C68.9633 75.1869 69.3693 74.2066 69.3693 73.1845V38.4998C69.3693 37.4777 68.9633 36.4975 68.2405 35.7748C67.5178 35.052 66.5375 34.646 65.5154 34.646Z" fill="url(#paint3_linear_802_51)"/>
</g>
<defs>
<linearGradient id="paint0_linear_802_51" x1="15.4153" y1="50.0615" x2="15.4153" y2="77.0385" gradientUnits="userSpaceOnUse">
<stop stop-color="#475EDF"/>
<stop offset="1" stop-color="#6F59D6"/>
</linearGradient>
<linearGradient id="paint1_linear_802_51" x1="15.4154" y1="-0.0385742" x2="15.4154" y2="42.3538" gradientUnits="userSpaceOnUse">
<stop stop-color="#475EDF"/>
<stop offset="1" stop-color="#6F59D6"/>
</linearGradient>
<linearGradient id="paint2_linear_802_51" x1="53.9539" y1="-0.0385742" x2="53.9539" y2="26.9384" gradientUnits="userSpaceOnUse">
<stop stop-color="#475EDF"/>
<stop offset="1" stop-color="#6F59D6"/>
</linearGradient>
<linearGradient id="paint3_linear_802_51" x1="53.9539" y1="34.646" x2="53.9539" y2="77.0384" gradientUnits="userSpaceOnUse">
<stop stop-color="#475EDF"/>
<stop offset="1" stop-color="#6F59D6"/>
</linearGradient>
<clipPath id="clip0_802_51">
<rect width="69.3694" height="77" fill="white"/>
</clipPath>
</defs>
</svg>
