<svg width="49" height="68" viewBox="0 0 49 68" fill="none" xmlns="http://www.w3.org/2000/svg">
<g clip-path="url(#clip0_767_1638)">
<path d="M30.7031 20.0704L25.6245 10.3532C25.3654 9.86854 24.8629 9.54248 24.2845 9.54248C23.7061 9.54248 23.2036 9.86631 22.949 10.3442L22.9445 10.3532L0.644676 50.3164L30.7031 20.0704ZM48.5206 54.1667L42.2405 15.0945C42.1244 14.3687 41.5013 13.8193 40.7509 13.8193C40.3288 13.8193 39.9491 13.9913 39.6744 14.2704L0.0461426 54.1689L21.9708 66.5238C22.6095 66.8878 23.3733 67.1044 24.1862 67.1044C24.9992 67.1044 25.7652 66.89 26.424 66.5126L26.4017 66.5238L48.5206 54.1667ZM1.64968 43.8643L8.24918 1.41315C8.36308 0.680612 8.98841 0.124512 9.74551 0.124512C10.3217 0.124512 10.8242 0.446112 11.0788 0.921812L11.0833 0.930745L18.1808 14.2459L1.64968 43.8643Z" fill="#6F59D6"/>
</g>
<defs>
<clipPath id="clip0_767_1638">
<rect width="48.4187" height="67" fill="white" transform="translate(0.0751953 0.115479)"/>
</clipPath>
</defs>
</svg>
