<svg width="197" height="152" viewBox="0 0 197 152" fill="none" xmlns="http://www.w3.org/2000/svg">
<path fill-rule="evenodd" clip-rule="evenodd" d="M80.8046 1.70503C71.3756 4.12203 65.0656 6.89603 56.8046 12.258C50.9916 16.031 38.6406 27.767 36.2276 31.811C35.6136 32.838 32.3426 33.774 26.4746 34.601C12.7916 36.529 4.53363 40.521 1.30363 46.767C-2.88037 54.858 3.17163 66.159 17.0926 76.247C22.3406 80.051 22.6116 80.47 23.2276 85.708C25.7486 107.159 40.1796 129.154 59.2986 140.688C71.6876 148.162 90.0146 152.542 103.805 151.325C114.754 150.358 122.119 148.245 132.763 143.016C140.377 139.275 143.811 136.8 150.378 130.317C154.865 125.889 159.228 121.214 160.074 119.93C161.348 117.996 162.943 117.43 169.371 116.632C182.808 114.964 192.275 110.624 195.32 104.736C199.683 96.298 194.434 85.83 180.731 75.64C174.677 71.138 173.805 70.087 173.805 67.287C173.805 61.96 170.155 49.411 166.488 42.129C156.785 22.861 140.783 9.21803 120.305 2.75203C110.197 -0.438969 91.1406 -0.943969 80.8046 1.70503ZM87.5676 7.79803C73.8996 10.099 60.9516 16.688 51.3496 26.227L44.3046 33.227L48.8046 33.493C55.1916 33.871 72.9176 35.803 75.3426 36.386C76.9306 36.767 77.7776 36.046 79.1716 33.121C82.0776 27.028 87.8456 18.835 93.6226 12.595L99.0196 6.76503L95.6626 6.88303C93.8156 6.94703 90.1736 7.35903 87.5676 7.79803ZM109.805 9.84103C102.631 12.781 94.7746 20.943 87.9066 32.593C85.7806 36.198 85.2046 37.954 86.0606 38.223C86.7446 38.437 90.9046 39.371 95.3046 40.298C102.386 41.789 122.082 47.384 127.19 49.355C128.983 50.047 129.052 49.549 128.599 39.174C128.041 26.393 125.741 18.145 121.35 13.183C118.016 9.41603 113.811 8.19903 109.805 9.84103ZM134.047 23.072C135.08 27.071 136.084 35.143 136.308 41.253L136.71 52.241L140.007 53.695C141.821 54.494 148.368 57.505 154.555 60.387C167.393 66.365 167.18 66.488 163.717 55.12C160.414 44.279 155.33 36.105 146.393 27.265C141.945 22.865 136.929 18.503 135.247 17.572L132.188 15.878L134.047 23.072ZM36.5816 46.38C33.1836 54.018 31.0486 61.759 30.2286 69.404L29.5716 75.544L34.3056 78.319C38.4536 80.749 60.0326 90.765 61.1226 90.765C61.3456 90.765 61.8166 88.318 62.1686 85.327C63.0476 77.842 68.2036 58.206 71.2696 50.66C72.6616 47.232 73.6386 44.265 73.4396 44.066C72.6406 43.268 60.9486 41.795 50.3886 41.164L39.1986 40.495L36.5816 46.38ZM20.5386 42.853C15.3246 44.082 9.17563 47.357 8.42763 49.304C6.36563 54.679 9.57163 60.862 17.7966 67.371L22.2336 70.882L23.4956 63.408C24.1906 59.297 25.8936 52.917 27.2816 49.23C28.6696 45.543 29.8046 42.355 29.8046 42.146C29.8046 41.51 24.5346 41.912 20.5386 42.853ZM79.8646 49.125C75.4686 59.381 68.8046 84.99 68.8046 91.629C68.8046 93.849 74.0826 95.849 93.8046 101.1C109.784 105.354 114.932 106.172 115.92 104.613C119.255 99.346 127.74 67.922 127.783 60.674L127.805 57.082L117.555 53.95C111.917 52.227 102.355 49.653 96.3046 48.23C90.2546 46.806 84.5146 45.413 83.5486 45.134C82.2196 44.75 81.3246 45.72 79.8646 49.125ZM135.371 62.015C135.167 62.703 134.227 67.54 133.284 72.765C131.844 80.737 126.084 100.106 123.437 105.876C122.5 107.919 126.307 108.56 144.538 109.431L157.771 110.063L160.806 103.576C164.11 96.515 166.76 85.677 166.788 79.11C166.804 75.104 166.606 74.844 161.215 71.801C155.046 68.32 138.284 60.765 136.729 60.765C136.186 60.765 135.575 61.328 135.371 62.015ZM173.436 86.248C172.878 90.997 169.673 102.398 167.297 108.085C166.614 109.72 166.933 109.839 170.421 109.254C179.556 107.72 184.663 105.723 187.218 102.686C190.494 98.793 190.467 97.039 187.055 92.02C184.405 88.12 176.427 80.765 174.848 80.765C174.426 80.765 173.79 83.232 173.436 86.248ZM30.8046 86.371C30.8046 88.872 34.4996 100.277 36.8336 104.983C41.1256 113.633 44.9406 118.728 52.2386 125.554C57.8986 130.849 64.8046 135.719 64.8046 134.416C64.8046 134.196 64.0816 132.047 63.1986 129.641C62.2056 126.938 61.3456 120.173 60.9486 111.948L60.3046 98.631L51.3046 94.854C46.3546 92.777 39.9566 89.882 37.0876 88.421C31.6306 85.642 30.8046 85.373 30.8046 86.371ZM67.8396 108.015C67.8876 116.606 70.1516 128.564 72.6606 133.483C78.2786 144.495 87.1066 144.36 97.9586 133.096C102.321 128.567 112.409 113.991 111.65 113.313C111.46 113.143 106.805 111.994 101.305 110.758C95.8046 109.522 86.2786 106.993 80.1356 105.138C73.9926 103.283 68.7056 101.765 68.3856 101.765C68.0666 101.765 67.8206 104.578 67.8396 108.015ZM116.411 120.226C112.876 127.092 105.111 137.488 100.821 141.098L97.6516 143.765L101.978 143.748C113.41 143.702 127.776 138.529 139.29 130.313C144.958 126.269 152.375 119.001 151.612 118.239C151.438 118.065 146.062 117.436 139.666 116.841C133.269 116.245 126.071 115.498 123.67 115.181L119.305 114.603L116.411 120.226Z" fill="white"/>
</svg>
