<svg width="81" height="80" viewBox="0 0 81 80" fill="none" xmlns="http://www.w3.org/2000/svg">
<path fill-rule="evenodd" clip-rule="evenodd" d="M37.4374 0.0534454C34.8675 0.223333 32.4592 0.638448 29.6117 1.40244C20.8004 3.76646 12.7993 9.34424 7.36692 16.9102C3.8354 21.8286 1.26817 28.2117 0.405428 34.2191C-0.333153 39.3615 -0.0566104 44.8418 1.18593 49.6885C2.83698 56.1282 5.79631 61.7332 10.1602 66.6859C12.8104 69.6936 16.3988 72.6238 19.9067 74.6447C24.677 77.3928 29.9824 79.1903 35.2309 79.8368C37.0041 80.0551 42.693 80.0543 44.5993 79.8353C47.7923 79.4686 51.3454 78.6162 54.2853 77.5116C56.0161 76.8612 58.9002 75.466 60.4276 74.5401C67.2208 70.4221 72.3724 64.9491 75.731 58.282C77.4483 54.873 78.2289 52.7344 79.0729 49.1268C79.7631 46.1762 80.1378 42.8284 80.1378 39.6119C80.1378 38.4408 80.0997 37.459 80.0531 37.4302C80.0064 37.4013 79.9414 36.9147 79.9086 36.3487C79.6744 32.3071 78.0186 26.4173 75.9647 22.3193C72.7288 15.8634 68.032 10.4805 62.4338 6.81214C60.4011 5.48025 57.7038 4.00609 55.8253 3.20047C52.2442 1.66458 48.2085 0.599628 44.2693 0.150896C42.9967 0.00602091 39.0144 -0.0509085 37.4374 0.0534454ZM37.0155 0.818441C35.0677 1.01064 33.6444 1.19053 33.0635 1.3179C31.2879 1.7071 29.0204 2.4841 27.7544 3.13724L27.1604 3.4436L27.7251 3.4484C29.1652 3.46071 31.5623 3.82759 33.0302 4.26052L33.6972 4.45722L34.4354 3.73014C35.5869 2.59586 37.5161 1.38153 38.8415 0.956612C39.0479 0.890478 39.2167 0.81734 39.2167 0.794028C39.2167 0.746603 37.5566 0.765013 37.0155 0.818441ZM40.7115 1.09778C38.5227 1.54662 36.5302 2.56884 34.8278 4.11634L34.2908 4.6044L35.7283 5.18229C37.7661 6.00162 37.823 6.01923 39.2835 6.28046L40.6009 6.51618L41.1845 6.22093C43.5033 5.04783 46.9028 3.84831 48.7552 3.54945C49.1829 3.48042 49.4966 3.38837 49.4524 3.34475C49.0766 2.97455 45.2422 1.66378 43.5189 1.3164C41.7958 0.969018 41.4651 0.943305 40.7115 1.09778ZM46.0202 1.28768C47.0945 1.62005 48.946 2.36204 49.9083 2.84589C50.6921 3.23999 50.7739 3.2598 51.5039 3.23219L52.2734 3.20307L51.128 2.71452C49.1518 1.87158 47.1382 1.26967 45.7701 1.11289C45.297 1.05866 45.3106 1.06817 46.0202 1.28768ZM53.801 3.26991C53.8592 3.32814 53.9658 3.35595 54.038 3.33194C54.113 3.30693 54.0675 3.2616 53.9323 3.22618C53.7659 3.18266 53.7268 3.19567 53.801 3.26991ZM52.0233 3.88122C52.0508 3.91124 52.7487 4.38658 53.5741 4.93737C54.3995 5.48815 55.5026 6.27926 56.0254 6.69528L56.9758 7.45167L57.8763 7.44876L58.7768 7.44586L58.441 7.17542C57.6624 6.5483 55.6066 5.12056 54.6611 4.55027C53.6776 3.95716 53.6132 3.93385 52.8078 3.88112C52.3488 3.85111 51.9958 3.85111 52.0233 3.88122ZM49.472 4.10974C47.4486 4.4174 45.5022 4.96248 43.769 5.70697C42.0701 6.43674 41.4851 6.72299 41.5784 6.77902C41.6276 6.80863 42.2053 6.97572 42.8622 7.15031C45.2934 7.79685 48.5451 8.98536 50.7628 10.0382L51.7536 10.5085L52.6638 9.60408C53.6258 8.64808 54.5311 8.08159 55.6065 7.76233L56.1462 7.60214L55.0603 6.79483C54.4629 6.3508 53.7042 5.80632 53.374 5.5847C52.4641 4.97419 50.6564 3.95216 50.5057 3.96316C50.4325 3.96847 49.9672 4.0344 49.472 4.10974ZM25.8098 4.24001C25.6172 4.28213 25.0569 4.57718 24.5647 4.89565C23.8085 5.385 23.3363 5.72808 21.9115 6.82314C21.8269 6.88828 22.2754 6.80963 22.9083 6.64835C25.553 5.9746 27.8149 5.66885 30.7623 5.5865C31.9664 5.55289 32.9191 5.48365 32.994 5.42422C33.0657 5.36729 33.1675 5.24032 33.2199 5.14227C33.3332 4.93046 33.1948 4.88184 31.3626 4.49064C30.3564 4.27573 29.838 4.2285 28.161 4.19889C27.0604 4.17938 26.0024 4.19789 25.8098 4.24001ZM56.4256 4.90785C57.3734 5.54458 58.6182 6.47016 59.3771 7.10259C60.0259 7.64327 59.9761 7.61795 60.9448 7.899C61.4032 8.03197 62.0034 8.23477 62.2786 8.34963L62.7788 8.55854L61.9284 7.72711C61.4607 7.26987 60.799 6.70648 60.4579 6.47506C59.0793 5.53948 57.1439 4.65692 55.9253 4.40799C55.6261 4.34686 55.6991 4.4197 56.4256 4.90785ZM22.7081 4.91236C20.6653 5.60231 18.3818 7.08878 17.1552 8.52722L16.7957 8.94884L17.7259 8.51882C18.2374 8.2824 18.9937 7.96303 19.4064 7.80925C19.9051 7.62346 20.3079 7.38863 20.6071 7.10939C21.285 6.47636 22.0696 5.84053 22.9438 5.21561C23.376 4.90665 23.6686 4.65502 23.5941 4.65642C23.5196 4.65782 23.1209 4.77298 22.7081 4.91236ZM33.7156 5.35088C33.6312 5.50866 33.6356 5.56719 33.7345 5.59951C33.8701 5.64383 35.3147 5.72638 35.3147 5.68986C35.3147 5.66644 34.3899 5.31846 34.0451 5.21201C33.8829 5.16198 33.7974 5.1981 33.7156 5.35088ZM28.9114 6.32478C25.9069 6.55931 21.3134 7.58303 20.3797 8.22607C19.5794 8.77735 17.1429 11.6415 15.8431 13.5588C15.2044 14.5012 14.0037 16.4951 14.0037 16.6135C14.0037 16.6391 14.3751 16.6608 14.8291 16.6617C17.4453 16.6672 20.4295 17.3633 23.2685 18.6301L24.3642 19.119L25.3806 18.8651L26.3971 18.611L27.1724 17.7106C27.5987 17.2153 28.3576 16.3599 28.8587 15.8096L29.7699 14.8091L29.9466 13.5485C30.2697 11.243 30.8423 9.34174 31.7739 7.48028L32.3873 6.25465L30.8745 6.27216C30.0423 6.28176 29.159 6.30547 28.9114 6.32478ZM32.7841 6.76671C31.7383 8.40436 30.6156 11.6141 30.3574 13.7044L30.2838 14.3007L30.7327 13.9045C30.9795 13.6867 31.6049 13.1227 32.1225 12.6513C34.1629 10.7926 36.0451 9.33934 38.1993 7.95953L39.0329 7.42555L38.2993 7.03445C37.6592 6.69307 37.4194 6.62584 36.4152 6.50608C35.7824 6.43064 34.7839 6.33729 34.1963 6.29857L33.1279 6.22833L32.7841 6.76671ZM40.4202 7.25126C40.2417 7.36412 40.1752 7.30869 41.2677 7.95603C42.7148 8.81327 43.5052 9.39687 46.7694 12.0185C47.0509 12.2447 47.8934 12.9982 48.6413 13.6932L50.0013 14.9565L50.1773 14.2325C50.3919 13.3494 50.7233 12.4487 51.1302 11.6428C51.2984 11.3096 51.4192 11.02 51.3986 10.9994C51.2807 10.8815 48.9835 9.86581 47.5926 9.31653C45.7283 8.58035 44.2751 8.1014 42.2216 7.54632C40.6353 7.11759 40.6324 7.11709 40.4202 7.25126ZM39.2667 7.99655C35.4465 10.4899 33.6224 11.9127 31.0961 14.3691L30.1292 15.3093L30.083 16.61C30.0574 17.3254 30.0522 17.9379 30.0713 17.9712C30.0904 18.0045 30.3437 17.9938 30.6342 17.9475C31.6269 17.7889 34.8622 17.464 36.4636 17.3621C39.8916 17.1439 44.6623 17.2631 48.1213 17.6534C48.9742 17.7497 49.6836 17.8203 49.6978 17.8105C49.7119 17.8007 49.7639 17.3465 49.8136 16.8011L49.9037 15.8096L48.5944 14.5235C46.0694 12.0432 43.6371 10.1604 40.713 8.42287C39.7042 7.82336 39.5857 7.78844 39.2667 7.99655ZM59.0805 9.47041C60.6525 11.0785 61.6264 12.2093 62.7736 13.7585C63.2015 14.3363 63.5609 14.8198 63.5726 14.833C63.5957 14.859 65.4556 14.2516 65.5195 14.1971C65.5724 14.1519 64.8168 13.2725 63.4413 11.7783C62.1147 10.3372 59.9313 8.33452 59.5859 8.24217C59.4543 8.20696 58.9709 8.14572 58.5114 8.106L57.6762 8.03377L59.0805 9.47041ZM55.4621 8.39565C55.0698 8.52272 54.4704 8.79586 54.1301 9.00267C53.5394 9.36145 52.1328 10.6076 52.2281 10.6878C52.253 10.7088 52.9488 11.0998 53.7742 11.5566C56.0205 12.7996 58.3802 14.3446 60.3308 15.8492L60.5841 16.0447L61.7213 15.5538C62.3468 15.2838 62.8737 15.0477 62.8923 15.0291C62.9109 15.0106 62.7163 14.7058 62.4599 14.3519C61.3786 12.8598 60.2886 11.6031 58.6255 9.93155C56.6185 7.91421 56.7505 7.97824 55.4621 8.39565ZM62.6857 10.0777C63.4562 10.864 64.4564 11.9235 64.9084 12.4319C65.3605 12.9405 65.7295 13.3232 65.7285 13.2824C65.7243 13.1167 64.837 11.431 64.332 10.6291C63.7969 9.77947 63.7846 9.76836 62.9353 9.37036C61.1284 8.52362 61.1375 8.49771 62.6857 10.0777ZM17.1277 9.56606L15.7066 10.2762L15.2589 10.9944C14.6078 12.0392 13.8695 13.6619 13.5234 14.8091C13.009 16.5141 12.9222 16.8601 13.0084 16.8601C13.0544 16.8601 13.3461 16.4072 13.6569 15.8536C14.8293 13.7647 16.6122 11.2552 18.0443 9.67812C18.4083 9.27731 18.7061 8.92843 18.7061 8.90272C18.7061 8.79536 18.4799 8.89041 17.1277 9.56606ZM64.0737 9.08111C64.1556 9.20487 64.4605 9.43629 64.7514 9.59527C65.3332 9.91334 65.3184 9.88782 64.5659 9.27481C63.9873 8.80346 63.8559 8.75174 64.0737 9.08111ZM15.1042 9.61699C14.4413 10.167 14.1742 10.4285 14.4039 10.3028C14.9512 10.0035 15.3116 9.72704 15.5005 9.4618C15.6202 9.29372 15.7038 9.15715 15.6863 9.15835C15.6688 9.15945 15.4069 9.36586 15.1042 9.61699ZM65.1479 10.7196C65.1713 10.7677 65.5146 11.4684 65.9107 12.2768C66.3068 13.0852 66.6308 13.7999 66.6308 13.8651C66.6308 13.9445 66.7341 13.963 66.9435 13.9211C67.1155 13.8867 67.6445 13.8566 68.1191 13.8542L68.982 13.8499L68.3317 13.2489C67.2183 12.2199 65.0325 10.4834 65.1479 10.7196ZM13.5425 11.717C11.1617 13.4206 9.29332 15.3965 7.40174 18.2108C7.03185 18.7611 6.62784 19.4102 6.50388 19.6534L6.27846 20.0954L6.81434 19.6438C7.5188 19.0502 8.40126 18.4637 9.18406 18.069C9.89623 17.71 11.7668 17.0602 12.0885 17.0602C12.2362 17.0602 12.3175 16.9783 12.3613 16.7851C12.7501 15.0701 13.3571 13.3407 14.061 11.943C14.2567 11.5546 14.3977 11.2177 14.3743 11.1944C14.351 11.1711 13.9767 11.4063 13.5425 11.717ZM51.589 11.6825C51.2775 12.2283 50.7804 13.699 50.5857 14.6512L50.4339 15.3939L50.9832 16.0019C51.2852 16.3364 51.8792 16.9993 52.3031 17.4751L53.0738 18.3404L54.1907 18.562L55.3076 18.7837L56.1917 18.2853C56.678 18.0112 57.7268 17.4608 58.5224 17.0622C59.8741 16.3852 59.9562 16.328 59.7731 16.1905C58.7637 15.4324 57.0663 14.2517 56.1255 13.6531C54.9637 12.9138 52.0471 11.2572 51.9073 11.2572C51.8657 11.2572 51.7224 11.4485 51.589 11.6825ZM67.1561 14.4295C66.7617 14.5054 66.8287 14.6498 67.9774 16.1988C68.4309 16.8102 69.1081 17.7719 69.4825 18.3359C69.8569 18.8999 70.1992 19.3614 70.2433 19.3614C70.4173 19.3614 70.9377 17.4447 70.9504 16.757C70.9645 15.9908 70.9263 15.9087 70.1679 15.0773C69.8098 14.6846 69.5775 14.5213 69.2822 14.4544C68.881 14.3633 67.5783 14.3481 67.1561 14.4295ZM64.8799 14.9463C64.3847 15.0975 63.9881 15.2669 63.9986 15.3226C64.0091 15.3784 64.3292 15.9159 64.71 16.5172C65.5536 17.8493 66.6699 19.8892 67.239 21.139C67.4714 21.6489 67.676 22.0515 67.6939 22.0336C67.7526 21.9749 67.4342 19.4346 67.2271 18.3109C66.8204 16.103 66.2802 14.6403 65.8804 14.6653C65.8254 14.6687 65.3752 14.7952 64.8799 14.9463ZM62.4287 15.7534C62.071 15.9062 61.6071 16.104 61.3978 16.1928L61.0173 16.3541L62.0982 17.2722C62.6927 17.7773 64.0007 19.0101 65.005 20.012C66.0093 21.0138 66.8309 21.8107 66.8309 21.783C66.8309 21.7552 66.4335 20.9626 65.9477 20.0217C64.9114 18.0144 63.3664 15.456 63.1972 15.4673C63.1322 15.4716 62.7863 15.6004 62.4287 15.7534ZM29.2944 16.1436C29.1113 16.3548 28.5862 16.9438 28.1276 17.4526C27.6691 17.9614 27.3126 18.3964 27.3355 18.4192C27.3774 18.4612 29.5113 18.0986 29.5598 18.0413C29.5975 17.9968 29.6934 15.7596 29.6575 15.7596C29.6409 15.7596 29.4774 15.9323 29.2944 16.1436ZM50.272 16.5802C50.2367 16.8167 50.2224 17.2116 50.2401 17.4577L50.2724 17.9053L51.0228 18.0254C52.1935 18.2128 52.1863 18.2144 51.8679 17.8356C51.7176 17.6568 51.3115 17.2044 50.9653 16.8303L50.3361 16.1502L50.272 16.5802ZM58.2714 17.7143C57.1238 18.2904 56.1432 18.8033 56.0924 18.8542C56.0358 18.9108 56.1698 18.9902 56.4379 19.059C59.8815 19.9425 63.1043 21.0493 65.5211 22.1784C66.0938 22.4459 66.5796 22.6477 66.6006 22.6267C66.6216 22.6057 65.9589 21.887 65.128 21.0298C63.7568 19.6152 62.2322 18.2033 60.8681 17.085L60.3581 16.6669L58.2714 17.7143ZM67.5313 16.98C67.5313 17.0523 67.577 17.2688 67.633 17.4611C67.7886 17.9966 68.1103 20.2046 68.1794 21.2124C68.2134 21.7076 68.266 22.2846 68.2964 22.4945L68.3515 22.8762L68.808 22.1444C69.059 21.7418 69.3984 21.1271 69.562 20.7784L69.8596 20.1441L68.7848 18.5515C67.7084 16.9564 67.5313 16.7344 67.5313 16.98ZM71.4562 17.5075C71.3873 17.8708 71.1674 18.5816 70.9676 19.0869C70.6084 19.9952 70.6063 20.0089 70.7813 20.3088C70.8785 20.4756 71.2942 21.1974 71.7051 21.9127C72.1158 22.6281 72.4602 23.2221 72.4706 23.2327C72.4808 23.2434 72.9607 23.3004 73.5371 23.3595C74.1134 23.4185 74.8232 23.5301 75.1144 23.6073C75.6401 23.7468 75.6435 23.7463 75.5765 23.5307C75.26 22.5118 72.7934 18.3146 71.8142 17.1286L71.5816 16.8467L71.4562 17.5075ZM13.7668 17.325C13.6471 17.36 13.3685 17.8251 12.9903 18.6217C12.4175 19.8282 12.3977 19.8977 12.3032 21.0384C12.1866 22.4459 12.1739 23.7933 12.2778 23.7468C12.319 23.7283 13.1407 23.3213 14.1037 22.8423C16.6393 21.5813 19.6744 20.4371 23.0028 19.4876L23.6476 19.3037L22.3525 18.7899C19.6319 17.7106 18.073 17.3661 15.6545 17.3099C14.719 17.2881 13.8696 17.295 13.7668 17.325ZM11.202 17.851C8.29961 18.7876 5.59621 21.0707 4.79329 23.2634C4.04831 25.2982 3.50663 27.8508 3.30723 30.2671C3.2595 30.8449 3.22979 31.3282 3.24109 31.3411C3.2525 31.354 3.46841 31.0839 3.72094 30.7408C4.8048 29.2684 6.82074 27.3926 8.90282 25.9189L9.8361 25.2583L10.2767 23.8356C10.5191 23.0532 10.977 21.7602 11.2944 20.9622C11.7304 19.8661 11.9021 19.2836 11.9968 18.5791C12.0658 18.0662 12.1064 17.6309 12.0872 17.6117C12.068 17.5925 11.6696 17.7002 11.202 17.851ZM36.9655 17.8263C36.7454 17.8439 35.9125 17.9064 35.1146 17.965C33.7276 18.0669 30.8112 18.4009 30.3371 18.5121C30.129 18.5608 30.1122 18.6193 30.1146 19.2883C30.117 19.9631 30.2245 21.3254 30.3704 22.5295C30.4326 23.0428 30.4398 23.0517 31.4981 23.9242C32.7534 24.9591 36.0426 28.2235 37.1564 29.5397C37.8338 30.3403 37.96 30.4468 38.1044 30.3401C38.196 30.2725 39.2604 29.4706 40.4697 28.5583C43.0945 26.5781 45.8303 24.645 48.2213 23.0811C49.1843 22.4512 50.0077 21.9042 50.0509 21.8657C50.0941 21.8271 50.0603 21.2681 49.9758 20.6234C49.8913 19.9787 49.8222 19.2094 49.8222 18.914C49.8222 18.4082 49.806 18.3735 49.547 18.3209C49.0997 18.2299 46.4827 17.9709 44.9196 17.8628C43.6131 17.7725 37.9609 17.7466 36.9655 17.8263ZM50.2663 19.0863C50.4103 20.503 50.5553 21.4625 50.6257 21.4625C50.7064 21.4625 53.3233 19.897 53.4518 19.7718C53.4945 19.7301 53.3522 19.4945 53.1353 19.2481C52.7442 18.8037 52.7327 18.7988 51.6932 18.6305C50.103 18.3732 50.1909 18.3451 50.2663 19.0863ZM27.8702 18.9117C26.7225 19.1306 26.6669 19.1531 26.3481 19.5253C26.1662 19.7378 26.0157 19.9385 26.0137 19.9712C26.0116 20.0041 26.3812 20.2584 26.8353 20.5364C27.2893 20.8145 28.1508 21.3857 28.7498 21.8057C29.3488 22.2257 29.8603 22.5479 29.8866 22.5217C29.9128 22.4954 29.8858 22.0325 29.8263 21.493C29.767 20.9534 29.6887 20.0956 29.6522 19.5865C29.5741 18.4962 29.733 18.5563 27.8702 18.9117ZM53.8337 19.2364C53.9074 19.3327 53.9766 19.4264 53.9874 19.4446C53.9983 19.4628 54.1072 19.4242 54.2293 19.3588C54.406 19.2642 54.4232 19.2218 54.313 19.1521C54.2367 19.1038 54.0675 19.0637 53.9371 19.0628C53.7266 19.0615 53.7149 19.0811 53.8337 19.2364ZM54.9063 19.4675C54.7035 19.5732 54.5098 19.7046 54.4759 19.7595C54.4419 19.8145 54.6546 20.1638 54.9487 20.5358C55.6918 21.4764 57.1846 23.5425 57.8783 24.5907C58.2877 25.2093 58.5056 25.454 58.6178 25.4208C59.7813 25.0772 63.5147 24.2696 65.5742 23.9159C66.3962 23.7747 67.0822 23.6459 67.0985 23.6295C67.1481 23.5799 64.6635 22.4059 63.2791 21.8248C61.678 21.1527 60.1506 20.6364 57.6762 19.9306C55.1803 19.2188 55.334 19.2445 54.9063 19.4675ZM25.4346 19.4395C25.1804 19.48 25.1377 19.6126 25.3522 19.695C25.4308 19.7251 25.5497 19.6838 25.6166 19.6031C25.7643 19.4252 25.7281 19.3925 25.4346 19.4395ZM22.5581 20.2083C19.5864 21.0751 16.9143 22.1048 14.5039 23.3119C12.1316 24.4998 12.204 24.4508 12.2037 24.8643C12.2033 25.6202 12.4155 28.0953 12.6108 29.6107C12.8128 31.1779 13.0473 32.437 13.5434 34.6193C13.9936 36.5995 13.951 36.5205 14.7847 36.9189L15.5156 37.2683L15.6682 36.8943C18.0633 31.0248 20.9938 25.7442 24.3427 21.2631L25.202 20.1131L24.8806 19.9416C24.4229 19.6973 24.2356 19.7188 22.5581 20.2083ZM52.1984 21.0831C51.0751 21.7835 50.7228 22.0521 50.7234 22.2081C50.7258 22.8771 52.0897 27.2351 52.2855 27.1995C52.4531 27.169 57.4769 25.7478 57.656 25.6803C57.8115 25.6217 57.7252 25.4503 57.0179 24.4129C55.7475 22.55 53.9395 20.1617 53.8 20.1624C53.7308 20.1627 53.01 20.577 52.1984 21.0831ZM24.8558 21.5201C21.6217 25.8474 18.6718 31.0721 16.601 36.1402L16.0204 37.561L16.4878 37.8311C17.2033 38.2445 18.3709 39.0836 19.2408 39.8097L20.0256 40.4646L21.9422 39.4732C24.2841 38.2619 27.9126 36.5356 30.8776 35.2223L33.0938 34.2407L32.8433 33.5796C31.5336 30.1238 30.466 26.2372 30.1529 23.7859C30.086 23.2617 30.0796 23.2537 29.2733 22.676C28.176 21.8898 27.0891 21.1707 26.3374 20.7334L25.7145 20.371L24.8558 21.5201ZM69.9427 21.1882C69.8108 21.4216 69.4404 22.0321 69.1197 22.5448L68.5365 23.4768L69.3096 23.4125C69.7347 23.3771 70.4546 23.3179 70.9093 23.2807L71.736 23.2134L71.0278 21.9878C70.6382 21.3136 70.2887 20.7624 70.2511 20.7629C70.2135 20.7633 70.0747 20.9546 69.9427 21.1882ZM11.115 23.2707C10.8775 23.9902 10.7004 24.5959 10.7215 24.6169C10.7425 24.6379 10.9493 24.5421 11.181 24.4038L11.6024 24.1526V23.0576C11.6024 22.4554 11.5899 21.9628 11.5745 21.9628C11.5592 21.9628 11.3524 22.5514 11.115 23.2707ZM47.4202 24.1422C44.4444 26.1401 43.0565 27.1284 40.1906 29.2901L38.2131 30.7819L38.5898 31.2706C38.7971 31.5394 39.0156 31.7612 39.0755 31.7635C39.1355 31.7659 39.991 31.458 40.9765 31.0793C43.2665 30.1994 48.0184 28.5355 50.0223 27.9119C50.8752 27.6465 51.6057 27.4027 51.6454 27.3701C51.6852 27.3375 51.5371 26.7978 51.3162 26.1708C51.0954 25.5438 50.7628 24.443 50.5773 23.7248C50.3917 23.0065 50.2018 22.4062 50.1554 22.3907C50.1089 22.3752 48.8781 23.1634 47.4202 24.1422ZM30.5749 23.983C31.1421 27.1091 32.0423 30.364 33.1633 33.3422L33.4358 34.0662L33.7128 33.8425C33.8651 33.7194 34.7719 32.9931 35.7278 32.2284C36.6837 31.4637 37.5042 30.8039 37.5511 30.7623C37.7804 30.559 33.4056 26.0431 31.2602 24.2685L30.5149 23.652L30.5749 23.983ZM69.8655 23.8549C69.471 23.8873 69.1145 23.9476 69.0734 23.9888C69.0324 24.03 69.0429 24.0638 69.0969 24.0638C69.3894 24.0638 72.2419 26.0422 73.2283 26.929C73.5067 27.1793 73.7345 27.3344 73.7345 27.2737C73.7345 27.2129 73.3515 26.3984 72.8835 25.4635L72.0325 23.7637L71.3077 23.7799C70.909 23.7888 70.2601 23.8225 69.8655 23.8549ZM72.834 23.8048C72.834 23.8204 73.2327 24.6619 73.72 25.6745C74.2072 26.6871 74.7107 27.7745 74.839 28.0909C74.9671 28.4074 75.1088 28.6662 75.1538 28.6662C75.3958 28.6662 76.6316 26.6634 76.6355 26.265C76.6363 26.1824 76.516 25.7827 76.3683 25.3767C76.1031 24.6482 76.0918 24.6349 75.5076 24.3586C74.9808 24.1095 74.4981 23.9976 73.2092 23.8262C73.0029 23.7987 72.834 23.7891 72.834 23.8048ZM65.5303 24.319C63.8514 24.612 61.7097 25.0568 59.9742 25.4727L58.6484 25.7903L59.4688 27.1532C59.9202 27.9028 60.6151 29.1114 61.0134 29.8387L61.7375 31.1614L62.3499 30.4891C63.8521 28.8399 67.4312 24.361 67.4312 24.1302C67.4312 24.0224 66.9624 24.0689 65.5303 24.319ZM67.3254 25.2395C66.6894 26.1287 64.6611 28.6117 63.3074 30.1581L61.9577 31.7L62.8315 33.5098C63.312 34.5052 63.8344 35.6455 63.9924 36.0438C64.1504 36.442 64.3128 36.7685 64.3535 36.7692C64.3941 36.7698 64.8325 36.5186 65.3277 36.2109C66.3488 35.5762 66.2574 35.7476 66.6803 33.6718C67.0599 31.8077 67.3123 30.2555 67.4782 28.7641C67.642 27.2914 67.7907 24.7642 67.7136 24.7642C67.687 24.7642 67.5123 24.978 67.3254 25.2395ZM10.9769 25.2445L10.4081 25.6146L10.1041 26.8898C9.54385 29.2404 9.08751 32.2458 8.94414 34.5298L8.8744 35.6407L10.0133 35.6965C11.0116 35.7453 12.5225 36.0386 13.2236 36.3197C13.3728 36.3795 13.358 36.2525 13.1052 35.3036C12.4878 32.9856 11.9186 29.414 11.6968 26.4651C11.6326 25.6121 11.5724 24.9053 11.5629 24.8943C11.5534 24.8832 11.2897 25.0408 10.9769 25.2445ZM69.4323 25.0354C70.902 27.1291 71.7173 28.3546 72.3338 29.3967C72.7465 30.0944 73.1304 30.6657 73.1869 30.6662C73.2434 30.6668 73.5969 30.3576 73.9724 29.9792C74.7773 29.1681 74.7759 29.1538 73.802 28.266C72.4281 27.0136 69.0868 24.5433 69.4323 25.0354ZM68.2987 25.8549C68.2618 26.0392 68.2313 26.4657 68.2307 26.8028C68.2287 28.1012 67.6976 31.9081 67.2195 34.0509C67.1051 34.5637 67.0353 35.0071 67.0646 35.0363C67.1245 35.0962 70.0558 33.1315 70.2431 32.9059C70.3391 32.7902 70.3169 32.537 70.1363 31.6885C69.8402 30.2968 69.2381 28.1132 68.7518 26.6678C68.395 25.607 68.3606 25.5452 68.2987 25.8549ZM69.1522 25.8734C69.5878 27.0122 70.8301 31.5079 70.8345 31.9611C70.8354 32.0474 70.8756 32.1804 70.924 32.2568C70.9927 32.3653 71.177 32.2683 71.7728 31.8096C72.1914 31.4875 72.5339 31.1744 72.5339 31.114C72.5339 31.0537 72.1678 30.3769 71.7205 29.6101C70.5799 27.6554 68.8977 25.2078 69.1522 25.8734ZM57.0259 26.282C55.5932 26.6778 52.4806 27.5846 52.4429 27.6171C52.4261 27.6316 52.6413 28.155 52.9212 28.7802C53.8378 30.8281 55.1421 33.0316 56.6081 35.0091L57.2678 35.8992L59.2979 33.8329C60.4145 32.6964 61.3281 31.6961 61.3281 31.6099C61.3281 31.5238 61.2091 31.2427 61.0639 30.9852C59.6247 28.4364 58.2354 26.0803 58.1404 26.0275C58.1052 26.0079 57.6037 26.1224 57.0259 26.282ZM8.42177 27.0169C6.94681 28.1635 4.91666 30.192 3.96837 31.4671L3.19807 32.5025V33.2752C3.19807 34.2174 3.34515 35.7694 3.56536 37.1519L3.72975 38.1838L4.28933 37.6411C5.28735 36.6731 6.24114 36.1429 7.56122 35.8223L8.27249 35.6496L8.33933 34.5842C8.4764 32.3959 8.88171 29.5444 9.36305 27.3811C9.50203 26.7567 9.59577 26.2261 9.57146 26.2018C9.54715 26.1773 9.02978 26.5442 8.42177 27.0169ZM2.65819 28.2408C2.37074 29.4433 2.14633 30.9421 2.04788 32.3181L1.98334 33.2186L2.22537 32.8184C2.43958 32.4642 2.4806 32.2225 2.58235 30.7173C2.64559 29.7818 2.76305 28.6131 2.84339 28.12C2.92383 27.6271 2.97355 27.2078 2.95404 27.1882C2.93443 27.1687 2.80137 27.6423 2.65819 28.2408ZM76.6679 27.5524C76.5489 27.7592 76.2454 28.1814 75.9935 28.4906C75.7415 28.7999 75.5354 29.0837 75.5354 29.1214C75.5354 29.159 75.7737 29.447 76.0647 29.7615C76.3559 30.076 76.8961 30.7775 77.2653 31.3205C77.8703 32.2102 77.9367 32.2771 77.9367 31.9976C77.9367 31.264 77.2011 27.7424 76.9566 27.3055C76.907 27.2171 76.8162 27.2947 76.6679 27.5524ZM49.472 28.5579C46.5118 29.5097 40.0041 31.8445 39.4427 32.156C39.3556 32.2044 39.4712 32.433 39.8299 32.9218C42.3655 36.3783 45.1936 41.3547 46.5795 44.7992C46.6846 45.0604 46.807 45.2742 46.8514 45.2744C47.157 45.2758 56.8258 36.5449 56.8258 36.2675C56.8258 36.2197 56.5931 35.8744 56.3089 35.5001C54.886 33.626 53.4497 31.2254 52.4897 29.1165C52.1641 28.4011 51.8921 27.809 51.8854 27.8008C51.8787 27.7925 50.7927 28.1331 49.472 28.5579ZM74.0511 30.5613L73.3172 31.2368L73.8619 32.3277C74.8565 34.3197 75.9062 37.1296 76.4467 39.2467C76.5767 39.7557 76.7113 40.1722 76.7462 40.1722C76.7809 40.1722 76.9545 39.8476 77.1318 39.451C77.5105 38.6041 77.515 38.6516 76.7875 35.8199C76.3636 34.1699 75.0382 30.1254 74.8688 29.9651C74.8228 29.9215 74.4548 30.1898 74.0511 30.5613ZM76.3917 32.3431C76.7339 33.375 77.1862 34.8655 77.3968 35.6556C77.845 37.3366 77.9058 37.298 78.0041 35.2695L78.0647 34.0187L77.7368 33.3686C77.3213 32.5448 75.9595 30.4775 75.8276 30.4703C75.7957 30.4686 76.0495 31.3114 76.3917 32.3431ZM36.4653 32.1781C35.6949 32.789 35.0195 33.332 34.9645 33.3851C34.8434 33.5015 34.9377 33.4666 36.7408 32.7271C37.4977 32.4168 38.2311 32.1194 38.3705 32.0664L38.6242 31.9699L38.2951 31.5226C38.1141 31.2766 37.9435 31.0736 37.916 31.0715C37.8885 31.0694 37.2357 31.5673 36.4653 32.1781ZM71.962 32.2529C71.5649 32.5656 71.1963 32.8659 71.143 32.92C71.0802 32.9837 71.1312 33.5623 71.2871 34.5579C71.6374 36.7927 71.8377 39.2487 71.8729 41.7389C71.9083 44.2309 71.7969 44.0215 72.8966 43.6647C73.2336 43.5553 73.7739 43.3076 74.0972 43.1141C74.6671 42.773 75.9498 41.6042 76.1469 41.2465C76.3516 40.8752 75.1173 36.7423 74.0689 34.2875C73.4934 32.9402 72.8534 31.6654 72.7579 31.676C72.7172 31.6805 72.3591 31.9401 71.962 32.2529ZM59.5582 34.1617L57.5435 36.2348L58.1959 36.9778C59.3774 38.3238 60.1656 39.0783 60.3265 39.0175C60.4747 38.9614 63.737 37.1753 63.8232 37.1031C63.9136 37.0272 62.1959 33.126 61.7319 32.3533L61.5728 32.0884L59.5582 34.1617ZM36.7154 33.2102C35.5873 33.6692 34.429 34.1516 34.1413 34.282L33.6182 34.5192L34.0239 35.4697C35.0944 37.9783 36.7934 41.1848 38.3735 43.6791C39.1405 44.8897 41.0509 47.6231 41.1902 47.709C41.2636 47.7543 43.3054 46.9648 45.4449 46.0638C45.9815 45.8379 46.4204 45.5982 46.4204 45.5312C46.4204 45.1291 44.4023 40.9743 43.1137 38.7236C41.7172 36.2844 39.0779 32.3601 38.8417 32.3718C38.8003 32.3739 37.8435 32.7511 36.7154 33.2102ZM78.7386 33.527C78.7395 33.7426 78.7863 33.9865 78.8428 34.069C78.9157 34.1756 78.926 34.0741 78.8785 33.7188C78.7949 33.0943 78.7366 33.0145 78.7386 33.527ZM68.6625 34.5578C67.7164 35.1969 66.9155 35.7478 66.8829 35.782C66.8501 35.8161 66.7116 36.2664 66.5748 36.7825C66.4381 37.2986 66.1652 38.2407 65.9683 38.876L65.6104 40.031L66.1004 41.6274C66.6621 43.4574 66.5284 43.3156 68.0921 43.7389C68.8409 43.9416 69.3298 44.0091 70.0986 44.0156C70.6576 44.0203 71.1529 43.9862 71.1992 43.9398C71.3379 43.8007 71.2585 39.2404 71.0875 37.5208C71 36.6403 70.8394 35.3675 70.7306 34.6921C70.6218 34.0169 70.5328 33.4428 70.5328 33.4165C70.5328 33.309 70.3091 33.4455 68.6625 34.5578ZM1.16802 34.119C1.1245 34.4492 1.06877 34.8544 1.04426 35.0195L0.999535 35.3197L1.15301 34.9838C1.24906 34.7734 1.29529 34.4368 1.27678 34.0833L1.24706 33.5187L1.16802 34.119ZM2.27229 34.1772C2.03417 34.6036 1.99755 34.7798 1.99845 35.4949C1.99945 36.3548 2.21676 38.5297 2.39466 39.4604C2.45139 39.7569 2.49781 40.027 2.49801 40.0607C2.49811 40.0945 2.65569 39.861 2.84819 39.5418C3.04059 39.2227 3.19807 38.8782 3.19807 38.7763C3.19807 38.6745 3.11203 38.0803 3.00677 37.4557C2.90152 36.8311 2.76175 35.7349 2.69611 35.0195C2.63048 34.3041 2.57015 33.7112 2.56194 33.7018C2.55384 33.6925 2.42347 33.9064 2.27229 34.1772ZM32.3631 35.5443C29.6819 37.8173 26.5664 40.6254 24.4324 42.6928L23.2052 43.8818L23.7901 44.6533C25.4101 46.7908 27.078 49.6533 27.9798 51.844L28.1922 52.3601L29.9775 51.7811C31.9074 51.1553 34.3052 50.335 36.078 49.6941C37.3251 49.2432 40.7541 47.9599 40.7921 47.9298C40.8056 47.9192 40.5384 47.5313 40.1982 47.0678C39.3073 45.8542 37.6593 43.3245 36.8138 41.873C35.9643 40.4145 34.299 37.1164 33.7577 35.8199C33.5507 35.3247 33.355 34.8883 33.3225 34.8502C33.2901 34.8121 32.8584 35.1245 32.3631 35.5443ZM29.9119 36.1056C26.1654 37.8074 20.695 40.4737 20.4144 40.7347C20.391 40.7565 20.7755 41.1903 21.269 41.6989C21.7626 42.2073 22.3342 42.824 22.5394 43.0692L22.9126 43.5149L23.6859 42.7563C24.9596 41.5067 27.5427 39.1431 29.5069 37.4301C31.69 35.5261 32.0798 35.1752 32.013 35.1744C31.9854 35.1741 31.04 35.5931 29.9119 36.1056ZM78.5965 36.3396C78.5584 36.7141 78.4345 37.3982 78.3212 37.8598C78.1231 38.6665 78.1212 38.7363 78.2737 39.6607C78.361 40.1897 78.4825 41.0726 78.5437 41.6229C78.6049 42.1732 78.6873 42.8711 78.7267 43.1737L78.7983 43.724L79.0217 42.7946C79.3022 41.6277 79.4055 40.2537 79.3245 38.7689C79.2669 37.7131 78.9246 35.9347 78.7414 35.7393C78.6999 35.6949 78.6346 35.965 78.5965 36.3396ZM9.02608 36.0342C8.80427 36.0833 8.80096 36.1073 8.80096 37.6546C8.80096 38.5183 8.84689 39.9447 8.90292 40.8242C8.99647 42.291 9.40548 45.6892 9.57877 46.4398L9.6514 46.7545L11.4512 45.5571C12.4411 44.8986 13.2607 44.3502 13.2725 44.3384C13.2843 44.3266 13.548 43.4407 13.8585 42.3696C14.1689 41.2986 14.4458 40.3461 14.4736 40.2529C14.5015 40.1598 14.3653 39.597 14.1712 39.0023C13.977 38.4076 13.7471 37.6657 13.6603 37.3537L13.5025 36.7864L12.8776 36.5806C11.5562 36.1455 9.70853 35.8834 9.02608 36.0342ZM7.39744 36.3579C6.47496 36.6532 5.58781 37.1854 4.84512 37.8892C3.79608 38.8833 3.81689 38.7969 4.23331 40.4333C4.82501 42.7587 5.93949 45.7694 6.95511 47.7863L7.30109 48.4733L8.17614 47.806C8.65739 47.439 9.061 47.1335 9.07311 47.127C9.08521 47.1205 9.00977 46.6223 8.90542 46.0199C8.49771 43.6643 8.20676 40.095 8.20256 37.3957C8.20115 36.4801 8.16904 36.1715 8.07559 36.1755C8.00685 36.1784 7.7016 36.2605 7.39744 36.3579ZM65.216 36.7279L64.4574 37.1748L64.8188 38.0716C65.0175 38.5647 65.2076 38.969 65.2413 38.9699C65.3119 38.9718 66.0662 36.3726 66.0111 36.3175C65.991 36.2973 65.6332 36.482 65.216 36.7279ZM1.17092 36.9541C0.838652 38.0081 0.753808 38.7215 0.764314 40.3723C0.774519 41.962 0.962516 43.3518 1.27848 44.1742C1.37013 44.4129 1.37753 44.406 1.43946 44.0242C1.60595 42.9971 1.82196 41.9215 1.906 41.7004C1.96934 41.5337 1.93812 41.1045 1.80685 40.3393C1.64467 39.3937 1.53541 38.4934 1.36763 36.7204C1.34221 36.4513 1.3218 36.4757 1.17092 36.9541ZM55.325 38.337C53.1828 40.3692 51.5759 41.8223 49.4854 43.6179C48.6673 44.3205 48.0982 44.8637 48.2206 44.8248C48.5431 44.7224 51.8204 43.2261 54.054 42.1614C55.4943 41.4749 59.4871 39.4676 59.7023 39.322C59.7161 39.3127 59.4437 39.0162 59.097 38.6631C58.7505 38.3099 58.1765 37.6971 57.8214 37.3012L57.1759 36.5812L55.325 38.337ZM14.2291 37.3457C14.4446 38.1217 14.7643 39.0699 14.8108 39.0707C14.842 39.0712 14.9491 38.8128 15.0488 38.4963C15.1484 38.1798 15.2505 37.8674 15.2756 37.8018C15.301 37.7354 15.098 37.5697 14.8158 37.4266C14.217 37.1233 14.1652 37.1161 14.2291 37.3457ZM62.3286 38.4234C61.4206 38.9317 60.6804 39.3869 60.6835 39.4347C60.6979 39.6535 63.9227 42.0732 64.2 42.0732C64.2963 42.0732 64.9336 40.3136 64.9314 40.0537C64.93 39.8895 64.1059 37.6081 64.0218 37.5356C63.9985 37.5156 63.2366 37.9151 62.3286 38.4234ZM0.0395393 39.922C0.0396394 41.2427 0.0538467 41.7692 0.0711556 41.0919C0.0885646 40.4147 0.0884646 39.3341 0.0710556 38.6907C0.0536466 38.0473 0.0395393 38.6014 0.0395393 39.922ZM15.4641 38.9852L15.1015 39.9946L15.5668 41.2589C15.8227 41.9544 16.0444 42.5381 16.0594 42.5561C16.0938 42.5972 19.3954 40.7712 19.452 40.6797C19.505 40.5939 18.0979 39.4586 17.0552 38.7461C15.7324 37.8422 15.8827 37.8196 15.4641 38.9852ZM58.4766 40.4758C56.532 41.5022 52.6169 43.3631 49.522 44.7322C48.1738 45.3287 47.0577 45.8242 47.0417 45.8332C47.0258 45.8423 47.1489 46.1927 47.3154 46.6117C48.2794 49.0383 49.3814 52.9585 49.8284 55.5502L50.0494 56.8323L50.8113 57.3924C52.3639 58.5339 54.3602 59.7869 54.4552 59.6794C54.7266 59.3728 56.4169 56.9993 57.1965 55.8303C59.1655 52.8778 60.8861 49.8142 62.3178 46.7117C63.1123 44.99 64.0333 42.7796 64.0248 42.6148C64.0222 42.5645 63.5156 42.1953 62.8992 41.7944C62.2827 41.3935 61.4074 40.7519 60.9542 40.3687C60.5009 39.9855 60.0957 39.6746 60.0537 39.6779C60.0117 39.6811 59.302 40.0402 58.4766 40.4758ZM3.22228 40.0385C2.83098 40.8193 2.6759 41.4016 2.73683 41.861C2.90902 43.159 4.29454 47.9031 5.02772 49.7054L5.25163 50.2557L5.99702 49.5793L6.7423 48.903L6.17381 47.7014C5.07824 45.3854 4.18968 42.9964 3.6468 40.9072C3.50783 40.3724 3.37616 39.9167 3.35425 39.8948C3.33234 39.8728 3.27291 39.9375 3.22228 40.0385ZM77.2586 40.6508L76.9308 41.2106L77.1287 42.3763C77.3005 43.3879 77.4784 44.9039 77.5629 46.0752L77.5881 46.4254L77.8763 45.8759C78.1628 45.3301 78.1643 45.318 78.099 44.075C78.0234 42.6352 77.7527 40.2533 77.6536 40.1567C77.6167 40.1206 77.4389 40.343 77.2586 40.6508ZM14.5718 41.7899C14.2476 42.8745 14.0037 43.741 14.0037 43.8085C14.0037 43.8382 14.3255 43.6639 14.719 43.4213C15.1124 43.1787 15.4749 42.9668 15.5245 42.9502C15.5958 42.9265 14.977 41.121 14.8525 40.9895C14.8353 40.9712 14.709 41.3314 14.5718 41.7899ZM65.0411 41.5867C64.925 41.9307 64.8299 42.273 64.8299 42.3473C64.8299 42.4611 65.8233 43.014 65.8965 42.941C65.9263 42.9111 65.3496 41.0587 65.2927 41.0019C65.2705 40.9796 65.1573 41.2428 65.0411 41.5867ZM18.4059 41.8765C17.608 42.3178 16.8064 42.7546 16.6245 42.8474C16.3545 42.985 16.3045 43.0588 16.3523 43.2492C16.4738 43.7334 18.4391 47.9762 18.542 47.9762C18.5752 47.9762 19.9206 46.6031 21.6512 44.803L22.5377 43.8808L22.1477 43.4048C21.6449 42.7913 20.0024 41.0723 19.9199 41.0735C19.8851 41.0739 19.2038 41.4353 18.4059 41.8765ZM75.7118 42.5257C74.8022 43.3765 73.3843 44.1018 72.2155 44.314C71.794 44.3905 71.8706 44.0441 71.5931 47.1258C71.4314 48.9209 71.084 51.1459 70.6988 52.8537C70.5716 53.4178 70.4894 53.8792 70.5162 53.8792C70.7729 53.8792 73.8366 51.2759 74.8231 50.2195C75.6173 49.369 76.7166 47.9497 76.8272 47.6319C76.9873 47.1721 76.5694 42.2828 76.3507 42.0559C76.315 42.019 76.0275 42.2303 75.7118 42.5257ZM64.3665 43.2488C61.9533 49.1618 59.102 54.2909 55.6575 58.9148C55.2545 59.4557 54.9248 59.933 54.9248 59.9752C54.9248 60.0175 55.099 60.1306 55.3119 60.2266C55.6898 60.397 55.721 60.3951 56.6426 60.144C60.324 59.1412 65.0724 57.2322 67.3099 55.8556L67.8389 55.5301L67.7804 54.6797C67.5127 50.7844 67.3795 49.635 66.9238 47.2829C66.665 45.9474 66.0939 43.5989 66.009 43.5215C65.9644 43.4809 64.6071 42.8736 64.5609 42.8736C64.5381 42.8736 64.4506 43.0425 64.3665 43.2488ZM2.26069 43.2798C2.22217 43.414 2.16304 44.1161 2.12942 44.8399L2.06839 46.156L2.43818 46.884C2.79296 47.5822 4.00529 49.4075 4.19018 49.5218C4.23911 49.552 4.0328 48.8451 3.73165 47.9511C3.43059 47.0569 2.99226 45.5852 2.75754 44.6805C2.43468 43.4358 2.31381 43.0951 2.26069 43.2798ZM14.7407 43.9415L13.8269 44.504L13.5124 46.015C12.8478 49.209 12.5552 51.285 12.4183 53.7792C12.3715 54.6321 12.342 55.3418 12.3526 55.3563C12.3633 55.3707 12.7569 54.8755 13.2275 54.2557C14.2273 52.9386 15.9717 50.8365 17.2149 49.4506L18.0914 48.4736L17.4828 47.1994C17.1482 46.4985 16.639 45.3642 16.3513 44.6784C16.0635 43.9927 15.7891 43.4198 15.7412 43.4053C15.6935 43.3908 15.2433 43.6321 14.7407 43.9415ZM66.7309 43.9094C66.7309 43.9288 66.8642 44.4579 67.027 45.085C67.7232 47.7657 68.2608 51.1882 68.3887 53.7542C68.4279 54.5383 68.4991 55.1799 68.547 55.1799C68.5949 55.1799 68.8589 55.0336 69.1335 54.8547C69.6859 54.4951 69.6742 54.5215 70.0923 52.6786C70.6045 50.4208 71.1332 46.5599 71.1332 45.0775V44.4744H70.3437C69.5438 44.4744 68.2875 44.2804 67.388 44.0181C66.8867 43.8718 66.7309 43.846 66.7309 43.9094ZM20.8524 46.3136C19.7545 47.4496 18.8443 48.4143 18.8296 48.4573C18.7902 48.5735 19.744 50.3186 20.9621 52.359L22.0365 54.1587L22.7476 53.966C25.0681 53.337 27.7107 52.5351 27.7107 52.4598C27.7107 52.2591 26.5959 49.9407 25.9635 48.8266C25.2352 47.5432 23.7294 45.2752 23.1816 44.6365L22.8487 44.2483L20.8524 46.3136ZM11.3678 46.0709C10.4513 46.6752 9.70143 47.1943 9.70143 47.2244C9.70143 47.2545 9.81529 47.8075 9.95446 48.4531C10.2964 50.0399 10.716 51.55 11.281 53.2289L11.7525 54.6296L11.7771 54.0293C11.866 51.8633 12.2499 48.9757 12.7599 46.6356C12.9506 45.7607 13.0903 45.0285 13.0704 45.0086C13.0505 44.9886 12.2843 45.4667 11.3678 46.0709ZM78.9095 45.2748C78.8712 45.4124 78.8445 45.7275 78.8502 45.9752L78.8606 46.4254L78.9516 45.8759C79.0515 45.2723 79.0231 44.8666 78.9095 45.2748ZM1.21395 46.3926C1.34311 47.1369 1.40585 47.2311 1.33561 46.5755C1.30319 46.2728 1.24176 45.988 1.19914 45.9423C1.15642 45.8968 1.16312 46.0994 1.21395 46.3926ZM46.3104 46.3039C46.0974 46.4853 42.6593 49.2489 42.5299 49.3427C42.455 49.3969 43.9861 51.1372 45.3198 52.5138C46.5548 53.7885 49.0462 56.0727 49.4318 56.2838C49.5708 56.3599 49.56 56.2053 49.3493 55.1003C48.8813 52.6446 47.9589 49.4012 47.046 47.0007C46.8525 46.4917 46.6663 46.0768 46.6323 46.0788C46.5983 46.0808 46.4534 46.1821 46.3104 46.3039ZM43.28 47.3817C42.3507 47.7605 41.5696 48.0913 41.5441 48.1168C41.4873 48.1734 42.1228 48.9767 42.2243 48.9767C42.2926 48.9767 44.6982 47.1127 45.0161 46.8134C45.2499 46.5934 45.0677 46.653 43.28 47.3817ZM77.8109 47.33C77.5699 47.729 77.5365 47.886 77.5365 48.62C77.5365 49.6015 77.388 51.1844 77.1844 52.372C77.1048 52.8361 77.0567 53.2328 77.0774 53.2535C77.1527 53.3287 77.7324 50.6999 77.8771 49.6271C78.0338 48.4661 78.173 46.8756 78.1179 46.8756C78.1 46.8756 77.9618 47.08 77.8109 47.33ZM8.59866 48.0576C8.34983 48.2604 7.99825 48.5422 7.81736 48.6837L7.48849 48.941L8.10781 50.0344C8.6797 51.0441 10.3343 53.5965 10.7948 54.1794C10.9462 54.371 10.8876 54.102 10.5444 53.0288C10.0937 51.6196 9.20117 48.1796 9.20117 47.852C9.20117 47.6069 9.11623 47.6358 8.59866 48.0576ZM2.0981 47.9345C2.1003 48.6675 2.85599 52.3355 3.09312 52.7646C3.14774 52.8635 3.22779 52.8043 3.38677 52.547C3.50703 52.3525 3.80638 51.9344 4.05201 51.6181C4.29774 51.3017 4.49874 51.0103 4.49874 50.9704C4.49874 50.9307 4.20319 50.5446 3.842 50.1125C3.48082 49.6804 2.95855 48.9892 2.6814 48.5765C2.07369 47.6713 2.0974 47.6974 2.0981 47.9345ZM38.7664 49.1701C36.2853 50.1109 32.3744 51.4745 29.9619 52.2401C29.1365 52.502 28.4486 52.7241 28.4333 52.7337C28.418 52.7432 28.6513 53.4888 28.9519 54.3907C29.2524 55.2925 29.579 56.4244 29.6776 56.9058C29.7762 57.3874 29.8844 57.7813 29.918 57.7813C30.0133 57.7813 34.1124 55.0616 35.6148 54.0015C36.3577 53.4773 38.0786 52.2171 39.4391 51.2011C42.156 49.1719 42.0181 49.3507 41.3967 48.6622L41.0676 48.2977L38.7664 49.1701ZM17.1433 50.2559C15.1749 52.5052 12.5404 55.8511 12.6508 55.9614C12.7972 56.1079 21.1686 54.4516 21.3873 54.233C21.4079 54.2124 21.0199 53.5263 20.525 52.7083C20.0302 51.8904 19.337 50.6952 18.9846 50.0524L18.3441 48.8837L17.1433 50.2559ZM76.3607 49.5049C75.274 50.8877 72.9586 52.9948 71.0976 54.2946L70.3117 54.8435L69.6889 56.7376C69.3464 57.7794 68.8833 59.1044 68.6597 59.6822C68.3106 60.5845 67.8825 62.3585 67.9868 62.4701C68.0056 62.49 68.3497 62.407 68.7516 62.2854C70.9217 61.629 73.0245 60.1888 74.5684 58.3016C74.9995 57.7749 75.2137 57.3884 75.4756 56.6649C75.9157 55.449 76.4889 53.1224 76.6796 51.7782C76.8564 50.532 76.9876 48.8767 76.9096 48.8767C76.8792 48.8767 76.6322 49.1594 76.3607 49.5049ZM6.1618 50.165C5.58801 50.7432 5.49516 50.883 5.5797 51.0405C5.71867 51.2992 6.90599 52.4237 7.75042 53.0964C8.51512 53.7057 10.7019 55.2238 10.7019 55.1455C10.7019 55.1188 10.3379 54.5865 9.89283 53.9628C9.04729 52.7776 7.68339 50.6314 7.3124 49.9022C7.19343 49.6684 7.03946 49.477 6.97032 49.477C6.90118 49.477 6.5373 49.7866 6.1618 50.165ZM40.3673 50.9909C38.0833 52.7363 34.6268 55.1931 32.0532 56.9004L29.9423 58.3008L30.0202 58.7163C30.0631 58.945 30.1524 59.7234 30.2186 60.4462L30.339 61.7606L31.2175 61.8733C33.725 62.1948 35.8905 62.3141 39.3167 62.3195C43.2675 62.3257 45.8884 62.1549 49.2384 61.673L50.0052 61.5627L49.961 60.7975C49.89 59.569 49.7133 57.6573 49.6398 57.3222C49.5891 57.0912 49.3322 56.8154 48.6215 56.229C47.3327 55.1653 44.4288 52.2906 43.1906 50.8527C42.6339 50.2062 42.1536 49.6802 42.1233 49.6841C42.093 49.6879 41.3028 50.2759 40.3673 50.9909ZM4.44351 51.9917C3.91374 52.7062 3.50063 53.5185 3.49923 53.8485C3.49863 53.9692 3.61569 54.3847 3.75916 54.7718C4.00669 55.4397 4.04651 55.4883 4.53456 55.719C5.09045 55.9817 6.37351 56.2805 6.94651 56.2805H7.30149L6.61393 54.9048C6.23584 54.1482 5.73228 53.0788 5.49506 52.5285C5.25773 51.9783 5.03032 51.489 4.9897 51.4414C4.94898 51.3937 4.70315 51.6413 4.44351 51.9917ZM6.46506 53.0527C6.5509 53.2597 6.95851 54.0962 7.37083 54.9115L8.12051 56.394L9.03599 56.3343C9.53955 56.3014 10.2361 56.2495 10.5838 56.2188L11.216 56.163L10.2499 55.574C8.98866 54.805 8.13742 54.2012 7.1297 53.3609L6.30898 52.6764L6.46506 53.0527ZM27.4106 53.0405C27.02 53.1595 24.4172 53.902 22.8334 54.3463C22.3924 54.4701 22.3228 54.5205 22.3984 54.6617C22.7532 55.3242 26.1675 59.9824 26.2984 59.9824C26.3627 59.9824 29.2581 58.2418 29.4061 58.1141C29.5454 57.994 28.3494 53.8074 27.981 53.1258C27.8658 52.9126 27.842 52.9091 27.4106 53.0405ZM20.6571 54.8857C19.525 55.1895 16.2917 55.8704 14.5587 56.1698L12.9531 56.4472L13.9607 56.9561C15.5685 57.7681 17.4963 58.5463 19.7566 59.2959C20.9122 59.6792 21.9252 60.0284 22.0078 60.0719C22.0903 60.1155 22.7738 60.3021 23.5266 60.4865L24.8953 60.8219L25.2608 60.6272C25.4618 60.5202 25.6468 60.4003 25.6719 60.3608C25.697 60.3213 25.316 59.7585 24.8252 59.1101C23.9387 57.9389 21.9279 55.044 21.8349 54.8047C21.7709 54.6399 21.5043 54.6584 20.6571 54.8857ZM68.9776 55.6262L68.5818 55.8647L68.5318 56.9684C68.5043 57.5756 68.5098 58.0406 68.544 58.0019C68.6238 57.9114 69.4389 55.4534 69.4015 55.4159C69.3861 55.4004 69.1953 55.4951 68.9776 55.6262ZM66.3307 57.061C63.8462 58.3573 59.8653 59.8984 57.351 60.5371C56.9521 60.6384 56.6257 60.7514 56.6257 60.7882C56.6257 60.8893 58.032 61.4605 59.3271 61.8855C61.4551 62.5839 63.9297 62.947 65.6547 62.8141L66.4532 62.7524L67.0519 61.5307C67.5477 60.5188 67.6652 60.1779 67.7361 59.5451C67.8853 58.215 67.9656 56.2799 67.8711 56.2923C67.8217 56.2988 67.1286 56.6447 66.3307 57.061ZM4.49874 56.4096C4.49874 56.4384 4.63131 56.7575 4.79339 57.1187C5.70356 59.1472 8.42097 63.4663 8.53853 63.0713C8.56104 62.9958 8.63328 62.6638 8.69911 62.3336C8.76495 62.0034 8.97455 61.3662 9.16495 60.9175L9.51103 60.1018L9.12413 59.4667C8.91132 59.1176 8.4767 58.3704 8.15823 57.8063L7.57923 56.7807H6.99823C6.48067 56.7807 5.34188 56.6014 4.72386 56.4224C4.60009 56.3865 4.49874 56.3807 4.49874 56.4096ZM10.7019 56.6843C10.3443 56.7244 9.68012 56.7626 9.22618 56.769C8.77225 56.7754 8.40076 56.807 8.40076 56.839C8.40076 56.9021 9.54895 58.9179 9.75156 59.2105C9.86081 59.3682 9.97047 59.2314 10.6888 58.0411C11.5041 56.6901 11.5668 56.5675 11.4273 56.5958C11.3861 56.6043 11.0596 56.6441 10.7019 56.6843ZM11.4661 57.6784C11.32 57.8991 10.9746 58.5024 10.6986 59.019L10.1968 59.9582L11.1994 61.4461C12.3106 63.0951 12.6635 63.5605 12.5552 63.2341C12.3969 62.7563 11.9938 60.0161 11.893 58.7318C11.8325 57.9614 11.7715 57.3188 11.7574 57.304C11.7433 57.2891 11.6122 57.4576 11.4661 57.6784ZM14.0818 58.1565C15.718 59.9697 19.4328 63.3842 19.7691 63.3842C19.9472 63.3842 24.136 61.2769 24.0764 61.2172C24.0555 61.1964 23.3689 60.9985 22.5506 60.7774C19.4677 59.9448 16.4158 58.8396 14.3808 57.8191C13.9004 57.5782 13.4792 57.3811 13.4448 57.3811C13.4103 57.3811 13.697 57.7299 14.0818 58.1565ZM50.2902 58.6567C50.3574 59.3032 50.4147 60.2073 50.4175 60.6656L50.4225 61.4991L50.6976 61.4445C50.8489 61.4143 51.513 61.2968 52.1734 61.183C53.3616 60.9783 53.3779 60.9718 53.7518 60.5543C54.1926 60.062 54.3113 60.2149 52.6736 59.1652C52.0683 58.7773 51.2749 58.2396 50.9105 57.9705C50.546 57.7013 50.2299 57.4811 50.208 57.4811C50.1859 57.4811 50.223 58.0102 50.2902 58.6567ZM12.4053 58.0314C12.4031 58.3531 12.7372 60.9077 12.9092 61.8834C13.1843 63.4444 13.6378 64.8883 13.9427 65.1749L14.185 65.4025L14.9197 65.2008C15.3238 65.0899 15.7781 64.9522 15.9291 64.8947L16.2038 64.7902L15.6705 63.9622C14.7952 62.6026 13.9124 61.0243 13.137 59.4321C12.735 58.6067 12.4057 57.9764 12.4053 58.0314ZM14.0381 59.844C14.8325 61.4151 16.4398 64.1559 16.7532 64.4737C16.87 64.5923 17.0464 64.55 17.9483 64.1876C18.5302 63.9537 19.0062 63.7312 19.0062 63.6933C19.0062 63.6553 18.4773 63.1772 17.8306 62.6306C17.184 62.0841 15.874 60.8534 14.9195 59.896L13.1839 58.155L14.0381 59.844ZM28.0609 59.4498C27.2905 59.9159 26.6477 60.3511 26.6323 60.4168C26.617 60.4827 26.7787 60.7066 26.9916 60.9145C27.3496 61.2642 27.4599 61.3072 28.4621 61.4879C29.058 61.5953 29.6055 61.6833 29.6787 61.6833C29.8452 61.6833 29.8529 61.0724 29.7018 59.8396C29.5312 58.4488 29.6634 58.4802 28.0609 59.4498ZM73.2825 60.5952C71.983 61.6713 70.4356 62.4872 68.832 62.9419C68.3092 63.0902 67.8678 63.2228 67.8511 63.2366C67.8343 63.2504 67.7181 63.6606 67.5929 64.1483C67.3392 65.1363 66.3715 67.6519 65.9336 68.4618C65.7774 68.7507 65.6712 68.987 65.6978 68.987C65.7243 68.987 66.2489 68.6123 66.8638 68.1542C68.635 66.8345 69.9674 65.574 71.3305 63.9282C72.0264 63.088 73.9507 60.1825 73.8112 60.1825C73.7945 60.1825 73.5566 60.3682 73.2825 60.5952ZM54.4245 60.5327C54.323 60.655 54.3285 60.6828 54.4541 60.6828C54.7038 60.6828 54.928 60.5688 54.8683 60.4722C54.7837 60.3353 54.5634 60.3653 54.4245 60.5327ZM9.59928 61.2581C9.28742 62.0863 9.07701 63.1665 9.13083 63.663C9.16885 64.013 9.28742 64.2156 9.77437 64.7636C10.1329 65.1669 10.5073 65.4829 10.7118 65.5547C11.08 65.6838 12.3832 65.7243 12.8932 65.6223C13.3192 65.5371 13.2807 65.4483 12.173 63.9637C11.6665 63.2848 10.9459 62.2689 10.5715 61.7061C10.1971 61.1433 9.87382 60.6828 9.85331 60.6828C9.8327 60.6828 9.71834 60.9416 9.59928 61.2581ZM25.8127 60.7789C25.6269 60.8964 25.6773 60.9419 26.0916 61.0306C26.4095 61.0988 26.418 61.0929 26.2927 60.8923C26.1496 60.6632 26.0375 60.6367 25.8127 60.7789ZM54.5992 61.2195L53.7234 61.4331L52.8983 62.3964C52.4446 62.9262 51.6844 63.7817 51.2091 64.2974L50.3448 65.2351L50.1788 66.3857C49.8302 68.8027 49.2766 70.6357 48.3083 72.5793L47.6402 73.9205L49.4065 73.855C52.7526 73.7308 55.5763 73.2695 58.4442 72.3785C59.5961 72.0206 59.922 71.7799 61.2996 70.2689C62.9203 68.4914 64.6926 66.0335 65.7793 64.0566L66.149 63.3842L65.0642 63.3822C62.4756 63.3775 59.6819 62.7258 56.8863 61.4743C56.2826 61.204 55.7182 60.9881 55.6319 60.9944C55.5456 61.0007 55.081 61.1021 54.5992 61.2195ZM22.4853 62.5666C21.2347 63.2089 20.212 63.7568 20.2127 63.7844C20.2145 63.8582 22.0011 65.1558 23.2084 65.9601C25.3642 67.3963 28.0533 68.9344 28.2242 68.8289C28.4395 68.6957 29.1939 66.9312 29.397 66.0856C29.7316 64.6923 29.7791 64.8487 28.65 63.626C28.0953 63.0253 27.4882 62.3648 27.3009 62.1585C26.99 61.8158 26.8747 61.7659 25.9738 61.5832C25.4313 61.4732 24.936 61.3867 24.8733 61.391C24.8105 61.3953 23.736 61.9244 22.4853 62.5666ZM51.3837 61.8733L50.4938 62.0367L50.4501 63.1775L50.4065 64.3183L51.15 63.526C51.9919 62.6292 52.7237 61.7926 52.7237 61.7272C52.7237 61.6563 52.3328 61.6989 51.3837 61.8733ZM28.2647 62.4087C29.2639 63.4856 29.6608 63.8844 29.7334 63.8844C29.7765 63.8844 29.8118 63.5242 29.8118 63.084C29.8118 62.6438 29.8005 62.2835 29.7868 62.2835C29.7731 62.2834 29.3791 62.2159 28.9114 62.1335C28.4436 62.0512 28.018 61.9836 27.9656 61.9835C27.9131 61.9835 28.0478 62.1748 28.2647 62.4087ZM49.0718 62.2918C47.8533 62.4983 44.457 62.7856 42.0681 62.8845C39.0454 63.0096 35.3958 62.8955 32.3277 62.5801C31.2578 62.4701 30.3728 62.3921 30.3611 62.4068C30.3494 62.4217 30.3113 62.8882 30.2765 63.4439L30.213 64.454L31.2881 65.4949C32.6748 66.8375 34.0522 68.0194 35.6148 69.2076C36.942 70.2167 39.259 71.778 40.0296 72.1823L40.4922 72.4251L41.2802 71.937C43.3564 70.6505 46.1535 68.4638 48.4947 66.2965C50.0842 64.825 50.0223 64.9539 50.0223 63.12C50.0223 62.0587 50.0915 62.1191 49.0718 62.2918ZM66.3535 64.3597C65.1643 66.4829 63.8172 68.3915 62.1561 70.3071L61.2282 71.3772L61.8034 71.1244C62.1198 70.9854 62.8227 70.6402 63.3652 70.3574C64.2448 69.8989 64.3903 69.7831 64.7052 69.2907C65.2298 68.4707 65.9903 67.0114 66.2192 66.3857C66.4581 65.7324 67.1311 63.5132 67.1311 63.3784C67.1311 63.0963 66.8923 63.3978 66.3535 64.3597ZM18.2809 64.5578C17.6894 64.8087 17.2059 65.0412 17.2066 65.0745C17.2092 65.2039 18.6057 67.0194 19.5845 68.1661C20.1502 68.8289 21.2267 69.9638 21.9767 70.688C23.2983 71.9643 23.351 72.0029 23.6852 71.9402C24.41 71.8042 25.2839 71.4793 25.9023 71.1157C26.5425 70.7395 27.8112 69.6222 27.8104 69.4354C27.8101 69.3815 27.4714 69.1634 27.0578 68.9511C25.2216 68.0084 22.4486 66.2462 20.4894 64.777C19.9815 64.3962 19.5189 64.0883 19.4613 64.093C19.4035 64.0977 18.8724 64.3068 18.2809 64.5578ZM29.9805 65.5103C29.8947 66.1324 29.4503 67.4247 29.0199 68.3039L28.6441 69.0714L29.7057 69.5756C32.0791 70.7025 35.5285 71.9343 38.1349 72.5856C39.1667 72.8433 39.445 72.8811 39.6214 72.7866C39.8268 72.6767 39.8072 72.6517 39.2524 72.3178C36.481 70.6495 33.4861 68.3401 30.8624 65.8478C30.4221 65.4297 30.0568 65.0869 30.0505 65.0862C30.0442 65.0856 30.0127 65.2764 29.9805 65.5103ZM15.5044 65.5475C15.0917 65.6808 14.6945 65.8113 14.6217 65.8374C14.3643 65.9295 17.5832 69.3979 19.5178 71.1131C20.3415 71.8435 20.7286 71.9886 21.853 71.9886H22.3712L20.9124 70.5128C19.5306 69.1151 17.9659 67.2708 17.0014 65.9032C16.7617 65.5633 16.4956 65.2895 16.4102 65.295C16.3248 65.3004 15.9171 65.414 15.5044 65.5475ZM48.7029 66.8316C46.8956 68.5826 44.842 70.2059 42.4708 71.7576C41.7301 72.2423 41.1226 72.6636 41.1209 72.694C41.1191 72.7242 41.4666 72.9136 41.8931 73.1148C42.7853 73.5359 43.9595 73.7155 45.9176 73.7306L47.0657 73.7395L47.5249 72.9391C48.4653 71.2995 49.2194 69.1863 49.5753 67.1935C49.6596 66.7217 49.7504 66.2343 49.7772 66.1106C49.804 65.9868 49.7913 65.887 49.749 65.8891C49.7067 65.891 49.236 66.3152 48.7029 66.8316ZM12.0119 66.2771L11.1708 66.3357L12.0214 67.1402C12.8047 67.8809 14.6855 69.3873 14.8271 69.3873C14.8605 69.3873 14.6711 68.9616 14.4062 68.4414C14.1413 67.9211 13.8167 67.212 13.6847 66.8656C13.4112 66.1475 13.4877 66.1743 12.0119 66.2771ZM14.5067 67.1361C14.678 67.615 15.1823 68.5697 15.7393 69.4697C16.2454 70.2872 16.2702 70.3098 17.093 70.7042C18.9293 71.5845 18.9306 71.574 17.1999 69.8168C16.3441 68.9477 15.3638 67.9215 15.0216 67.5363C14.5324 66.9856 14.4224 66.9001 14.5067 67.1361ZM27.959 70.0134C27.2904 70.917 25.8708 71.8787 24.545 72.326L23.8878 72.5477L24.6737 73.1486C26.1183 74.2533 27.9161 75.4319 28.9993 75.9845C29.4155 76.1969 29.4795 76.202 30.2998 76.0885C32.1298 75.8356 33.7468 75.4232 35.5648 74.7457C36.4889 74.4014 38.5163 73.4753 38.5163 73.3974C38.5163 73.3638 38.0998 73.2315 37.5908 73.1036C35.2817 72.5231 31.7781 71.2307 28.8094 69.8644L28.2571 69.6103L27.959 70.0134ZM65.2716 70.0373C64.9918 70.2217 64.6821 70.4957 64.5836 70.6461L64.4043 70.9197L64.6921 70.7093C65.0502 70.4476 65.8983 69.6949 65.8304 69.6989C65.8029 69.7006 65.5515 69.8529 65.2716 70.0373ZM15.0456 70.3739C15.0709 70.4149 15.3756 70.6712 15.7224 70.9434C16.2864 71.3859 16.3294 71.4047 16.1277 71.121C15.9408 70.8579 14.9011 70.14 15.0456 70.3739ZM62.6846 71.4597C62.4127 71.5984 61.6972 71.91 61.0948 72.1521C60.1579 72.5286 59.8646 72.7064 59.0688 73.3808C58.557 73.8144 57.7517 74.4503 57.279 74.7936C56.8065 75.137 56.4355 75.4336 56.4547 75.4528C56.4738 75.472 56.8466 75.3713 57.283 75.2292C58.4191 74.8592 60.2388 73.9001 61.228 73.1501C62.0717 72.5105 63.3084 71.333 63.2234 71.2505C63.199 71.2269 62.9565 71.321 62.6846 71.4597ZM18.1607 72.3681C19.0626 73.2322 20.4046 74.1876 21.4575 74.7149C22.0391 75.0062 24.2385 75.7906 24.4736 75.7906C24.5112 75.7906 24.0731 75.4686 23.5 75.0751C22.3994 74.3194 21.2788 73.4822 20.4699 72.8113C20.1224 72.5231 19.7956 72.3601 19.3318 72.2436C18.974 72.1537 18.4089 71.9695 18.0762 71.8343C17.7433 71.6991 17.4449 71.5902 17.4132 71.5923C17.3814 71.5945 17.7178 71.9436 18.1607 72.3681ZM21.7076 72.992C22.2615 73.4629 24.3131 74.881 25.4305 75.5654L26.4513 76.1908L27.2561 76.1891L28.0609 76.1874L27.7107 75.9733C26.5902 75.2879 25.027 74.2072 24.134 73.5005L23.1087 72.689L22.233 72.6917L21.3575 72.6944L21.7076 72.992ZM57.6262 73.2993C56.7197 73.5707 54.3055 74.0497 52.8737 74.242C52.2134 74.3306 50.6826 74.4285 49.472 74.4593C47.2777 74.5151 47.1055 74.5448 46.9155 74.8998C46.8343 75.0515 46.8946 75.0973 47.3461 75.2271C48.9749 75.6953 50.1242 75.8365 52.3249 75.8386L54.4777 75.8406L55.1958 75.4143C55.9813 74.9479 58.5081 73.0794 58.3265 73.0991C58.299 73.102 57.9839 73.1921 57.6262 73.2993ZM38.5163 74.095C36.6961 75.0448 33.9934 75.9977 31.8755 76.4364C31.222 76.5718 30.6734 76.6966 30.6563 76.7137C30.6033 76.7667 32.4092 77.5054 33.4637 77.8624C34.8024 78.3155 36.46 78.7485 37.5945 78.9416C38.6668 79.1241 39.165 79.0681 40.7175 78.5907C42.3589 78.0858 43.8758 77.2105 45.0593 76.0849L45.7492 75.4287L45.2594 75.2488C44.99 75.1498 44.2518 74.8521 43.619 74.587C42.7374 74.2179 42.1352 74.0449 41.0433 73.8473C40.2595 73.7055 39.5842 73.5916 39.5425 73.5942C39.5009 73.5969 39.0391 73.8222 38.5163 74.095ZM44.7994 74.4022C44.838 74.4369 45.1765 74.5654 45.5513 74.6879C46.212 74.9038 46.2374 74.9049 46.3687 74.7255C46.4431 74.6236 46.484 74.5202 46.4596 74.4958C46.4352 74.4713 46.0358 74.4261 45.5721 74.3953C45.1084 74.3645 44.7606 74.3676 44.7994 74.4022ZM45.8988 76.1672C44.7746 77.3158 43.0453 78.4445 41.4963 79.0406L40.8675 79.2826L41.9825 79.2875C45.4837 79.3029 49.2614 78.4526 52.4735 76.9263L53.0738 76.641L51.7732 76.5781C50.3005 76.5069 49.0243 76.3061 47.4849 75.9033L46.4278 75.6267L45.8988 76.1672ZM54.5246 76.591C54.442 76.6443 54.4195 76.6879 54.4746 76.6879C54.5296 76.6879 54.6421 76.6443 54.7247 76.591C54.8072 76.5376 54.8297 76.494 54.7747 76.494C54.7197 76.494 54.6071 76.5376 54.5246 76.591ZM26.21 76.8911C26.2925 76.9445 26.4051 76.9881 26.4601 76.9881C26.5151 76.9881 26.4926 76.9445 26.4101 76.8911C26.3275 76.8378 26.215 76.7942 26.1599 76.7942C26.1049 76.7942 26.1274 76.8378 26.21 76.8911ZM28.1659 76.8608C27.895 76.9043 27.9324 76.9356 28.6161 77.2367C30.535 78.082 32.8529 78.7914 34.1641 78.9348C34.7219 78.9957 34.6702 78.9684 33.4354 78.5487C32.7045 78.3002 31.5114 77.8184 30.784 77.478C29.4522 76.8547 28.9457 76.7354 28.1659 76.8608Z" fill="#000000"/>
</svg>
