<svg width="61" height="67" viewBox="0 0 61 67" fill="none" xmlns="http://www.w3.org/2000/svg">
<g clip-path="url(#clip0_766_648)">
<path fill-rule="evenodd" clip-rule="evenodd" d="M48.4199 20.1H48.3959H19.5324L20.2227 26.8H47.733C47.3298 32.6692 46.11 45.1038 45.6623 50.762L30.2106 55.1114V55.1245L30.1764 55.1409L14.7145 49.7004L13.6552 36.85H21.2341L21.7706 43.761L30.1901 46.9H30.2106L38.6165 43.8853L39.481 33.5H13.3169C13.1905 32.1567 11.564 14.7132 11.2804 13.4H49.0964C48.8846 15.611 48.6693 17.8823 48.4199 20.1ZM0.0623169 0L5.55004 60.7956L30.1764 67L54.8678 60.6713L60.3623 0H0.0623169Z" fill="#5C47DF"/>
</g>
<defs>
<clipPath id="clip0_766_648">
<rect width="60.3" height="67" fill="white" transform="translate(0.0623169)"/>
</clipPath>
</defs>
</svg>
