<svg width="41" height="30" viewBox="0 0 41 30" fill="none" xmlns="http://www.w3.org/2000/svg">
<path d="M14.9633 26.0362C14.495 26.4733 14.1326 26.7659 13.7623 26.9797C11.9494 28.0264 9.71578 28.0264 7.90289 26.9797C7.23482 26.594 6.59265 25.9518 5.3083 24.6676C4.02394 23.3833 3.38175 22.7411 2.99607 22.0729C1.94939 20.26 1.94939 18.0264 2.99607 16.2135C3.38175 15.5456 4.02394 14.9034 5.3083 13.619L10.8326 8.09474C12.1169 6.81038 12.7591 6.16819 13.4271 5.78251C15.2401 4.73583 17.4737 4.73583 19.2866 5.78249C19.9545 6.16819 20.5967 6.81038 21.8811 8.09474C23.1655 9.37909 23.8077 10.0213 24.1934 10.6893C25.2401 12.5022 25.2401 14.7358 24.1934 16.5487C23.9795 16.919 23.6869 17.2815 23.2496 17.7497M17.7504 12.2504C17.3131 12.7186 17.0205 13.0811 16.8067 13.4514C15.7601 15.2643 15.7601 17.4979 16.8067 19.3108C17.1924 19.979 17.8346 20.6211 19.119 21.9053C20.4034 23.1897 21.0455 23.8319 21.7135 24.2176C23.5264 25.2643 25.76 25.2643 27.5729 24.2176C28.241 23.8319 28.8832 23.1897 30.1676 21.9053L35.6918 16.3811C36.9762 15.0967 37.6184 14.4545 38.0039 13.7866C39.0506 11.9737 39.0506 9.74007 38.0039 7.92718C37.6184 7.25913 36.9762 6.61694 35.6918 5.33259C34.4075 4.04823 33.7653 3.40606 33.0973 3.02036C31.2842 1.97368 29.0508 1.97368 27.2379 3.02036C26.8674 3.23419 26.5051 3.52683 26.0368 3.96401" stroke="black" stroke-width="3.90625" stroke-linecap="round"/>
</svg>
