<svg width="77" height="68" viewBox="0 0 77 68" fill="none" xmlns="http://www.w3.org/2000/svg">
<path d="M34.1416 49.1597C35.5234 49.2225 36.9353 49.2677 38.3648 49.2677C39.8094 49.2677 41.2365 49.2375 42.6359 49.1597C41.2365 50.9686 39.8547 52.5689 38.3925 54.0939L38.4126 54.0738C36.9579 52.5664 35.561 50.9635 34.2446 49.2953L34.1416 49.1597ZM19.8261 47.1498C22.547 47.8407 25.8658 48.4285 29.2525 48.7903L29.5816 48.818C31.6543 51.6645 33.7496 54.1693 35.9982 56.5259L35.9706 56.4958C32.6769 60.1713 28.2325 62.754 23.2052 63.6811L23.0671 63.7012C23.057 63.7012 23.047 63.7012 23.0369 63.7012C22.4138 63.7012 21.826 63.548 21.3109 63.2766L21.331 63.2867C19.2407 62.0933 18.3338 57.5283 19.0397 51.662C19.2081 50.2174 19.4844 48.6974 19.8236 47.1472L19.8261 47.1498ZM56.9664 47.1171C57.2628 48.308 57.5417 49.8254 57.7402 51.368L57.7628 51.5841C58.4838 57.4479 57.5945 62.0079 55.5218 63.2264C55.0595 63.4826 54.5068 63.6334 53.9189 63.6334C53.8611 63.6334 53.8033 63.6309 53.7455 63.6283H53.7531C48.5952 62.6862 44.1533 60.1211 40.8672 56.4907L40.8496 56.4706C43.0579 54.1517 45.1382 51.6519 47.0451 49.0215L47.1908 48.8104C50.899 48.4235 54.2229 47.8256 57.4613 47.0091L56.9664 47.1146V47.1171ZM22.7631 37.741C23.3912 38.972 24.0494 40.1981 24.773 41.4291C25.4948 42.6535 26.2326 43.8493 26.9863 45.0168C24.8056 44.6977 22.7003 44.2957 20.6879 43.8058C21.2531 41.8286 21.9616 39.781 22.7606 37.7359L22.7631 37.741ZM53.9867 37.6782C54.8183 39.7408 55.5243 41.7984 56.1097 43.7932C54.0998 44.2857 51.9768 44.7027 49.781 45.0168C50.5347 43.8385 51.2884 42.625 51.9944 41.3814C52.7004 40.1579 53.3611 38.9067 53.9917 37.6756L53.9867 37.6782ZM17.3238 24.2395C18.4192 27.9528 19.595 31.0581 20.9642 34.0528L20.7758 33.5956C19.605 36.1205 18.4468 39.2082 17.4972 42.3863L17.3665 42.9014C15.5928 42.3562 14.1658 41.821 12.7764 41.2206L13.0653 41.3311C7.62859 39.0172 4.11128 35.9748 4.11128 33.5629C4.11128 31.151 7.62859 28.0935 13.0653 25.7896C14.3843 25.2244 15.8315 24.7144 17.3238 24.2395ZM59.3782 24.227C60.8982 24.6968 62.3428 25.2219 63.6945 25.7896C69.1312 28.1136 72.6485 31.151 72.6485 33.5629C72.6335 35.9748 69.1162 39.0248 63.6794 41.3336C62.3604 41.8989 60.9158 42.4064 59.426 42.8813C58.3205 39.1554 57.1448 36.0527 55.7805 33.0529L55.9715 33.5252C57.1372 31.0028 58.2979 27.9151 59.2451 24.737L59.3782 24.2194V24.227ZM49.7609 22.109C51.9442 22.4331 54.047 22.8301 56.0594 23.325C55.4941 25.3098 54.7882 27.3498 53.9867 29.3949C53.3586 28.1714 52.7004 26.9378 51.9768 25.7093C51.2709 24.4782 50.5171 23.2798 49.7634 22.1115L49.7609 22.109ZM26.9688 22.109C26.2151 23.2924 25.4613 24.5033 24.7579 25.752C24.0519 26.9755 23.3912 28.2065 22.7631 29.4376C21.9315 27.3775 21.2255 25.3249 20.6401 23.325C22.65 22.8552 24.7679 22.4356 26.9662 22.1141L26.9688 22.109ZM38.3799 21.3101C40.7038 21.3101 43.0177 21.4156 45.2939 21.6015C46.5685 23.4289 47.8063 25.3751 49.0072 27.4403C50.1746 29.4502 51.2399 31.4869 52.2029 33.5503C51.2357 35.608 50.1755 37.6631 49.0223 39.673C47.8289 41.7457 46.5953 43.7179 45.3165 45.5444C43.0303 45.7428 40.7139 45.8509 38.3774 45.8509C36.0535 45.8509 33.7396 45.7403 31.4634 45.5594C30.1896 43.7329 28.946 41.7783 27.7501 39.7207C26.5827 37.7108 25.5175 35.6741 24.5544 33.6106C25.5066 31.548 26.5819 29.4878 27.735 27.4754C28.9284 25.4027 30.162 23.4381 31.4408 21.6116C33.727 21.4106 36.0434 21.3051 38.3799 21.3051V21.3101ZM38.3322 13.067C39.7893 14.5745 41.1862 16.1748 42.5002 17.843L42.6007 17.9762C41.2189 17.9134 39.8069 17.8707 38.3774 17.8707C36.9328 17.8707 35.5058 17.9008 34.1064 17.9762C35.5033 16.1673 36.8851 14.5669 38.3498 13.0419L38.3297 13.062L38.3322 13.067ZM23.0043 3.48992C28.1621 4.43456 32.6015 6.99969 35.8902 10.6275L35.9077 10.6476C33.6994 12.9691 31.6191 15.4689 29.7123 18.1043L29.5665 18.3154C25.8608 18.6998 22.537 19.2927 19.301 20.1092L19.7935 20.0037C19.4417 18.4661 19.1804 16.9763 18.997 15.5467C18.276 9.68289 19.1654 5.12295 21.2381 3.90948C21.7556 3.66578 22.3611 3.51504 22.9992 3.49494H23.0068L23.0043 3.48992ZM53.6802 3.42711V3.44721C53.7129 3.44721 53.7506 3.44469 53.7908 3.44469C54.3912 3.44469 54.9565 3.59292 55.4539 3.85421L55.4338 3.84416C57.5241 5.04256 58.4311 9.60501 57.7251 15.4739C57.5568 16.9185 57.2804 18.441 56.9413 19.9936C54.2153 19.2952 50.8965 18.7048 47.5098 18.3455L47.1883 18.3179C45.113 15.4689 43.0177 12.964 40.7692 10.6049L40.7993 10.6351C44.093 6.96703 48.5299 4.38432 53.5471 3.45223L53.6877 3.42962L53.6802 3.42711ZM53.6953 0.0052685C47.5601 0.937355 42.249 3.91702 38.3699 8.21567L38.3498 8.23828C34.443 3.94214 29.1319 0.982578 23.1475 0.0856643L23.0068 0.0680778C22.9741 0.0680778 22.9339 0.0680778 22.8937 0.0680778C21.6601 0.0680778 20.5019 0.392173 19.4995 0.959967L19.5347 0.94238C15.2184 3.43213 14.2512 11.1903 16.4796 20.9257C6.92262 23.8777 0.707031 28.596 0.707031 33.5679C0.707031 38.56 6.95528 43.2908 16.5399 46.2202C14.3291 55.9933 15.3164 63.764 19.6427 66.2513C20.5924 66.7964 21.733 67.1155 22.9465 67.1155C23.0017 67.1155 23.057 67.1155 23.1098 67.113H23.1022C29.2374 66.1809 34.5486 63.1987 38.4276 58.8976L38.4478 58.875C42.3545 63.1736 47.6656 66.1332 53.6501 67.0301L53.7908 67.0477C53.8284 67.0477 53.8762 67.0477 53.9214 67.0477C55.1474 67.0477 56.3006 66.7261 57.298 66.1658L57.2628 66.1834C61.5766 63.6962 62.5463 55.938 60.3179 46.2001C69.8397 43.2732 76.0553 38.5449 76.0553 33.5654C76.0553 28.5733 69.8071 23.8426 60.2224 20.9056C62.4333 11.1426 61.4459 3.3643 57.1196 0.874547C56.1599 0.324339 55.0092 0.000244141 53.7832 0.000244141C53.7506 0.000244141 53.7179 0.000244141 53.6852 0.000244141H53.6903L53.6953 0.0052685ZM45.3819 33.5679C45.3819 37.4445 42.2389 40.5875 38.3623 40.5875C34.4858 40.5875 31.3428 37.4445 31.3428 33.5679C31.3428 29.6913 34.4858 26.5484 38.3623 26.5484C40.3019 26.5484 42.0555 27.3348 43.3268 28.6035C44.598 29.8748 45.3819 31.6284 45.3819 33.5679Z" fill="#5C47DF"/>
</svg>
