<svg width="68" height="67" viewBox="0 0 68 67" fill="none" xmlns="http://www.w3.org/2000/svg">
<path d="M65.8891 0.640625H21.8535V22.7197H43.5211C44.293 22.7197 44.9193 23.346 44.9193 24.1179V45.4864H67.2872V2.04134C67.2879 1.67008 67.1409 1.3138 66.8786 1.05104C66.6163 0.788281 66.2603 0.640625 65.8891 0.640625Z" fill="#6F59D6"/>
<path opacity="0.405" d="M21.851 0.640625V22.7197H1.19303C0.909164 22.7192 0.653675 22.5474 0.546128 22.2847C0.43858 22.022 0.500248 21.7204 0.702272 21.521L21.851 0.640625ZM46.1104 66.3898C45.9093 66.5873 45.6093 66.645 45.3493 66.5362C45.0892 66.4274 44.9198 66.1732 44.9193 65.8913V45.4864H67.2872L46.1104 66.3872V66.3898Z" fill="#6F59D6"/>
<path opacity="0.405" d="M21.851 22.7197H44.2215C44.6049 22.7197 44.9193 23.0316 44.9193 23.4175V45.4864H23.2517C22.4795 45.4864 21.8536 44.8604 21.8536 44.0883V22.7197H21.851Z" fill="#6F59D6"/>
</svg>
