<svg width="385" height="289" viewBox="0 0 385 289" fill="none" xmlns="http://www.w3.org/2000/svg">
<rect x="148.686" y="127.301" width="86.1495" height="69.3982" rx="34.6991" fill="white"/>
<path fill-rule="evenodd" clip-rule="evenodd" d="M192 99C157.206 99 129 127.206 129 162C129 196.794 157.206 225 192 225C226.794 225 255 196.794 255 162C255 127.206 226.794 99 192 99ZM215.724 139.492L224.633 148.4L185.7 187.496L162.346 164.142L171.254 155.233L185.7 169.679L215.724 139.492Z" fill="#5C47DF"/>
<path d="M149.5 68L151.408 73.8734L157.584 73.8734L152.588 77.5033L154.496 83.3766L149.5 79.7467L144.504 83.3766L146.412 77.5033L141.416 73.8734L147.592 73.8734L149.5 68Z" fill="#5C47DF"/>
<path d="M221.5 70.5L222.847 74.6459H227.206L223.68 77.2082L225.027 81.3541L221.5 78.7918L217.973 81.3541L219.32 77.2082L215.794 74.6459H220.153L221.5 70.5Z" fill="#5C47DF"/>
<path d="M300 76L301.347 80.1459H305.706L302.18 82.7082L303.527 86.8541L300 84.2918L296.473 86.8541L297.82 82.7082L294.294 80.1459H298.653L300 76Z" fill="#5C47DF"/>
<path d="M311 44L312.347 48.1459H316.706L313.18 50.7082L314.527 54.8541L311 52.2918L307.473 54.8541L308.82 50.7082L305.294 48.1459H309.653L311 44Z" fill="#5C47DF"/>
<path d="M320 167L321.347 171.146H325.706L322.18 173.708L323.527 177.854L320 175.292L316.473 177.854L317.82 173.708L314.294 171.146H318.653L320 167Z" fill="#5C47DF"/>
<path d="M326 205L327.347 209.146H331.706L328.18 211.708L329.527 215.854L326 213.292L322.473 215.854L323.82 211.708L320.294 209.146H324.653L326 205Z" fill="#5C47DF"/>
<path d="M289 224L290.347 228.146H294.706L291.18 230.708L292.527 234.854L289 232.292L285.473 234.854L286.82 230.708L283.294 228.146H287.653L289 224Z" fill="#5C47DF"/>
<path d="M314 233L315.572 237.837H320.657L316.543 240.826L318.114 245.663L314 242.674L309.886 245.663L311.457 240.826L307.343 237.837H312.428L314 233Z" fill="#5C47DF"/>
<path d="M356 115L356.898 117.764H359.804L357.453 119.472L358.351 122.236L356 120.528L353.649 122.236L354.547 119.472L352.196 117.764H355.102L356 115Z" fill="#5C47DF"/>
<path d="M283 102L283.898 104.764H286.804L284.453 106.472L285.351 109.236L283 107.528L280.649 109.236L281.547 106.472L279.196 104.764H282.102L283 102Z" fill="#5C47DF"/>
<path d="M223 21L224.347 25.1459H228.706L225.18 27.7082L226.527 31.8541L223 29.2918L219.473 31.8541L220.82 27.7082L217.294 25.1459H221.653L223 21Z" fill="#5C47DF"/>
<path d="M76 69L77.5716 73.8369H82.6574L78.5429 76.8262L80.1145 81.6631L76 78.6738L71.8855 81.6631L73.4571 76.8262L69.3426 73.8369H74.4284L76 69Z" fill="#5C47DF"/>
<path d="M112 55L113.347 59.1459H117.706L114.18 61.7082L115.527 65.8541L112 63.2918L108.473 65.8541L109.82 61.7082L106.294 59.1459H110.653L112 55Z" fill="#5C47DF"/>
<path d="M46 21L47.3471 25.1459H51.7063L48.1796 27.7082L49.5267 31.8541L46 29.2918L42.4733 31.8541L43.8204 27.7082L40.2937 25.1459H44.6529L46 21Z" fill="#5C47DF"/>
<path d="M273 267L273.898 269.764H276.804L274.453 271.472L275.351 274.236L273 272.528L270.649 274.236L271.547 271.472L269.196 269.764H272.102L273 267Z" fill="#5C47DF"/>
<path d="M203.5 44L205.745 50.9098H213.011L207.133 55.1803L209.378 62.0902L203.5 57.8197L197.622 62.0902L199.867 55.1803L193.989 50.9098H201.255L203.5 44Z" fill="#5C47DF"/>
<path d="M193 0L195.245 6.90983H202.511L196.633 11.1803L198.878 18.0902L193 13.8197L187.122 18.0902L189.367 11.1803L183.489 6.90983H190.755L193 0Z" fill="#5C47DF"/>
<path d="M12 120L14.6942 128.292H23.4127L16.3593 133.416L19.0534 141.708L12 136.584L4.94658 141.708L7.64074 133.416L0.587322 128.292H9.30583L12 120Z" fill="#5C47DF"/>
<path d="M57 164L57.8981 166.764H60.8042L58.4531 168.472L59.3511 171.236L57 169.528L54.6489 171.236L55.5469 168.472L53.1958 166.764H56.1019L57 164Z" fill="#5C47DF"/>
<path d="M98 231L98.8981 233.764H101.804L99.4531 235.472L100.351 238.236L98 236.528L95.6489 238.236L96.5469 235.472L94.1958 233.764H97.1019L98 231Z" fill="#5C47DF"/>
<path d="M149 280L149.898 282.764H152.804L150.453 284.472L151.351 287.236L149 285.528L146.649 287.236L147.547 284.472L145.196 282.764H148.102L149 280Z" fill="#5C47DF"/>
<path d="M53 275L54.5716 279.837H59.6574L55.5429 282.826L57.1145 287.663L53 284.674L48.8855 287.663L50.4571 282.826L46.3426 279.837H51.4284L53 275Z" fill="#5C47DF"/>
<path d="M373 242L375.694 250.292H384.413L377.359 255.416L380.053 263.708L373 258.584L365.947 263.708L368.641 255.416L361.587 250.292H370.306L373 242Z" fill="#5C47DF"/>
<path d="M358 130L359.347 134.146H363.706L360.18 136.708L361.527 140.854L358 138.292L354.473 140.854L355.82 136.708L352.294 134.146H356.653L358 130Z" fill="#5C47DF"/>
<path d="M63 213L63.6735 215.073H65.8532L64.0898 216.354L64.7634 218.427L63 217.146L61.2366 218.427L61.9102 216.354L60.1468 215.073H62.3265L63 213Z" fill="#5C47DF"/>
</svg>
