<svg width="68" height="41" viewBox="0 0 68 41" fill="none" xmlns="http://www.w3.org/2000/svg">
<g clip-path="url(#clip0_767_761)">
<path fill-rule="evenodd" clip-rule="evenodd" d="M33.5752 0.616211C24.6318 0.616211 19.0451 5.0594 16.8084 13.9491C20.1617 9.50595 24.0751 7.83933 28.5451 8.94929C31.097 9.58308 32.9213 11.4241 34.9366 13.4596C38.2263 16.776 42.0323 20.6156 50.3419 20.6156C59.2853 20.6156 64.872 16.1724 67.1087 7.28268C63.7553 11.7259 59.8453 13.3925 55.372 12.2825C52.82 11.6487 50.9958 9.80775 48.9771 7.77227C45.6908 4.45245 41.8881 0.616211 33.5752 0.616211ZM16.8084 20.6156C7.865 20.6156 2.27831 25.0588 0.041626 33.9485C3.39498 29.502 7.30834 27.8387 11.7784 28.9487C14.3303 29.5825 16.1545 31.4235 18.1732 33.459C21.4595 36.7754 25.2655 40.615 33.5785 40.615C42.5219 40.615 48.1086 36.1718 50.3453 27.2821C46.9919 31.7253 43.0786 33.3919 38.6085 32.2819C36.0566 31.6481 34.2324 29.8071 32.217 27.7717C28.9241 24.4552 25.118 20.6156 16.8084 20.6156Z" fill="#5C47DF"/>
</g>
<defs>
<clipPath id="clip0_767_761">
<rect width="67" height="40.039" fill="white" transform="translate(0.0751953 0.595947)"/>
</clipPath>
</defs>
</svg>
