<svg width="40" height="40" viewBox="0 0 40 40" fill="none" xmlns="http://www.w3.org/2000/svg">
<g clip-path="url(#clip0_890_10)">
<path d="M25.8024 37.7711C22.0981 39.0178 18.0939 39.0573 14.3658 37.8839C10.6377 36.7105 7.37797 34.3847 5.05557 31.2412C2.73317 28.0976 1.46786 24.2984 1.4417 20.39C1.41554 16.4817 2.62987 12.6659 4.90998 9.49152C7.19008 6.31714 10.4184 3.94791 14.1305 2.72471C17.8425 1.50151 21.8469 1.48741 25.5675 2.68443C29.288 3.88145 32.533 6.22789 34.8354 9.38612C37.1378 12.5443 38.379 16.3516 38.3804 20.2599C38.3207 21.7581 38.1393 23.2489 37.838 24.7176" stroke="white" stroke-width="2.22883"/>
<path d="M24.2645 34.3389C22.9358 35.8485 21.4792 37.2405 19.9109 38.4993" stroke="white" stroke-width="2.22883"/>
<path d="M19.9109 1.57495C24.8964 5.93076 27.9813 12.0632 28.5067 18.6626C28.6146 19.8606 28.6369 21.0647 28.5736 22.2659" stroke="white" stroke-width="2.22883"/>
<path d="M19.9108 1.57495C17.2058 3.93266 15.0327 6.83825 13.5355 10.0992C12.0382 13.3602 11.2509 16.9021 11.2258 20.4903C11.2258 32.5259 16.6344 36.092 19.8885 38.4992" stroke="white" stroke-width="2.22883"/>
<path d="M3.84106 11.1589H36.0699" stroke="white" stroke-width="2.22883"/>
<path d="M19.9109 1.56763V38.4993" stroke="white" stroke-width="2.22883"/>
<path d="M4.34619 30.1633H23.6553" stroke="white" stroke-width="2.22883"/>
<path d="M1.44128 20.4903L38.3804 20.0371" stroke="white" stroke-width="2.22883"/>
<path d="M35.9362 38.7221L39.2274 35.4234L33.2839 29.4799L36.6642 27.3179C36.7135 27.2888 36.7528 27.2454 36.7768 27.1935C36.8008 27.1416 36.8085 27.0836 36.7989 27.0272C36.7892 26.9708 36.7626 26.9187 36.7227 26.8777C36.6827 26.8368 36.6312 26.8089 36.5751 26.7979L25.2155 24.1382C25.1686 24.1286 25.12 24.1308 25.0742 24.1446C25.0284 24.1584 24.9866 24.1833 24.9528 24.2172C24.9189 24.251 24.894 24.2928 24.8802 24.3386C24.8664 24.3844 24.8642 24.433 24.8738 24.4799L27.3403 36.0549C27.3522 36.1112 27.3805 36.1627 27.4217 36.2028C27.4629 36.2429 27.5151 36.2699 27.5717 36.2802C27.6282 36.2906 27.6866 36.2839 27.7393 36.261C27.7921 36.238 27.8368 36.1999 27.8678 36.1515L29.9926 32.7786L35.9362 38.7221Z" stroke="white" stroke-width="2.22883"/>
</g>
<defs>
<clipPath id="clip0_890_10">
<rect width="39.9406" height="40" fill="white"/>
</clipPath>
</defs>
</svg>
