<svg width="68" height="68" viewBox="0 0 68 68" fill="none" xmlns="http://www.w3.org/2000/svg">
<g clip-path="url(#clip0_767_711)">
<path d="M26.7506 29.8938V19.5632H34.2044C38.2788 19.5632 40.6615 21.4769 40.6615 24.7432C40.6615 28.1015 38.1322 29.8938 33.2747 29.8938H26.7506ZM26.7506 45.6472H34.6985C39.6565 45.6472 42.2779 43.6372 42.2779 39.881C42.2779 36.175 39.556 34.2362 34.3802 34.2362H26.7506V45.6472Z" fill="#563D7C"/>
<path d="M16.8137 0.0578613C12.3713 0.0578613 8.11092 1.82259 4.96968 4.96382C1.82845 8.10506 0.0637207 12.3655 0.0637207 16.8079V50.3079C0.0637207 54.7502 1.82845 59.0107 4.96968 62.1519C8.11092 65.2931 12.3713 67.0579 16.8137 67.0579H50.3137C54.7561 67.0579 59.0165 65.2931 62.1578 62.1519C65.299 59.0107 67.0637 54.7502 67.0637 50.3079V16.8079C67.0637 12.3655 65.299 8.10506 62.1578 4.96382C59.0165 1.82259 54.7561 0.0578613 50.3137 0.0578613L16.8137 0.0578613ZM21.2525 50.3079V14.9025H35.4858C42.1313 14.9025 46.1346 18.2902 46.1346 23.7382C46.1346 27.4399 43.4127 30.7522 39.9245 31.3427V31.7614C44.7108 32.2514 47.8975 35.66 47.8975 40.2746C47.8975 46.5056 43.3583 50.3079 35.804 50.3079H21.2525Z" fill="#563D7C"/>
</g>
<defs>
<clipPath id="clip0_767_711">
<rect width="67" height="67" fill="white" transform="translate(0.0552979 0.0578613)"/>
</clipPath>
</defs>
</svg>
